<?xml version="1.0" standalone="no"?>
<!DOCTYPE svg PUBLIC "-//W3C//DTD SVG 20010904//EN"
 "http://www.w3.org/TR/2001/REC-SVG-20010904/DTD/svg10.dtd">
<svg version="1.0" xmlns="http://www.w3.org/2000/svg"
 width="512.000000pt" height="512.000000pt" viewBox="0 0 512.000000 512.000000"
 preserveAspectRatio="xMidYMid meet">
<metadata>
Created by potrace 1.14, written by Peter Selinger 2001-2017
</metadata>
<g transform="translate(0.000000,512.000000) scale(0.100000,-0.100000)"
fill="#000000" stroke="none">
<path d="M0 3058 c1 -1781 3 -2074 16 -2143 87 -470 433 -815 902 -900 104
-19 3256 -17 3312 2 19 7 46 14 60 17 45 7 152 47 214 78 317 159 538 454 600
798 13 74 15 292 13 1685 -3 1599 -3 1600 -24 1675 -34 121 -53 171 -91 245
-160 312 -451 528 -794 590 -59 10 -478 13 -2141 14 l-2067 1 0 -2062z m1925
1800 c11 -3 40 -8 65 -13 25 -4 54 -9 65 -11 11 -2 31 -6 45 -9 99 -18 311
-98 428 -162 65 -35 220 -135 263 -170 502 -411 735 -1026 630 -1663 -35 -211
-137 -470 -256 -648 -50 -75 -61 -89 -128 -170 -257 -307 -642 -529 -1027
-593 -131 -22 -225 -24 -970 -24 l-785 0 -1 1725 c0 949 2 1731 4 1738 4 11
157 12 826 9 451 -3 830 -7 841 -9z m2969 -460 c-4 -51 -8 -108 -8 -126 -1
-36 -2 -37 -101 -52 -38 -6 -81 -13 -95 -15 -14 -3 -47 -8 -75 -11 -27 -3 -55
-11 -62 -18 -6 -6 -14 -38 -17 -71 -4 -33 -9 -77 -11 -97 -10 -82 -15 -120
-20 -155 -3 -21 -14 -114 -25 -208 -11 -93 -22 -184 -25 -202 -3 -18 -7 -56
-10 -85 -3 -29 -7 -62 -9 -73 -2 -11 -7 -49 -11 -85 -4 -36 -9 -74 -11 -84 -2
-11 -6 -44 -9 -75 -3 -31 -7 -67 -9 -81 -3 -14 -7 -47 -11 -75 -3 -27 -8 -63
-10 -80 -3 -16 -7 -50 -10 -75 -7 -71 -24 -213 -29 -237 -3 -12 -8 -53 -11
-90 -4 -37 -9 -70 -10 -73 -2 -3 -6 -34 -10 -70 -3 -36 -10 -90 -15 -120 -5
-30 -12 -82 -15 -115 -4 -33 -8 -67 -10 -75 -2 -8 -7 -40 -10 -70 -3 -30 -15
-109 -25 -175 -10 -66 -21 -138 -25 -160 -3 -23 -8 -52 -10 -65 -3 -14 -10
-54 -16 -90 -46 -292 -146 -490 -348 -690 -178 -177 -408 -312 -699 -411 -110
-37 -308 -83 -397 -92 -16 -2 -31 20 -77 108 -32 61 -57 115 -58 120 0 6 30
21 68 33 242 84 412 207 526 380 50 75 110 212 121 271 3 19 8 37 10 41 3 5
55 281 81 430 3 19 8 44 10 55 10 62 45 274 49 300 5 41 14 100 25 165 11 67
13 78 49 338 17 114 32 230 35 257 4 28 8 59 10 71 2 12 7 45 11 75 3 30 8 65
10 79 2 14 6 45 10 70 3 25 7 61 10 80 3 19 7 53 9 75 3 22 8 58 10 80 17 130
26 206 31 255 4 30 8 66 10 80 2 14 7 54 10 90 4 36 8 72 10 80 1 8 6 47 9 85
7 68 11 106 20 183 3 20 8 64 11 97 4 33 8 64 9 70 1 10 -81 30 -169 41 -27 3
-53 8 -56 10 -4 2 -26 6 -49 9 -57 7 -62 11 -56 48 3 18 8 59 12 91 3 33 8 67
9 75 2 9 4 24 4 34 1 16 42 17 726 17 l726 0 -7 -92z"/>
<path d="M900 4064 l0 -293 -141 0 c-77 0 -143 -2 -146 -5 -8 -7 -7 -885 0
-892 4 -5 1819 -8 2357 -4 l55 0 0 239 c-1 271 -9 248 88 246 31 0 57 2 57 5
0 6 -20 24 -151 140 -46 41 -91 82 -99 90 -8 8 -53 49 -100 90 -46 41 -100 90
-119 108 -34 31 -56 40 -63 25 -1 -5 -45 -46 -95 -92 -104 -93 -93 -94 -97 14
l-1 40 -75 0 -75 0 -2 -140 -2 -139 -77 -71 -78 -71 77 1 77 2 1 -39 c0 -21 0
-67 0 -103 0 -36 0 -89 0 -119 l-1 -54 -185 1 -185 1 0 510 0 511 -142 0 -143
0 -5 145 -5 145 -362 1 -363 1 0 -293z m293 89 c-1 -32 -2 -65 -2 -73 -1 -12
-15 -15 -74 -15 l-72 0 0 72 0 73 75 0 75 0 -2 -57z m288 45 c4 -77 2 -121 -6
-126 -14 -9 -118 -10 -130 -1 -9 6 -10 41 -6 122 1 14 11 17 71 17 49 0 70 -4
71 -12z m-289 -294 c2 -9 1 -43 0 -75 l-4 -59 -71 0 -72 0 1 73 c1 39 2 73 3
75 0 1 32 2 70 2 56 0 70 -3 73 -16z m289 1 c1 -8 1 -26 1 -40 0 -14 0 -41 -1
-60 l-1 -36 -70 2 c-68 2 -70 3 -71 28 -1 28 -1 101 0 114 1 4 33 7 71 7 55 0
70 -3 71 -15z m293 -52 c-1 -38 -2 -71 -3 -74 0 -4 -32 -7 -71 -8 l-70 -1 0
75 0 75 73 0 73 0 -2 -67z m-874 -297 l0 -74 -57 0 c-93 -1 -94 0 -92 71 1 34
3 65 5 68 2 3 35 7 74 8 l70 2 0 -75z m292 47 c2 -16 1 -49 0 -75 l-4 -46 -69
0 c-38 0 -70 3 -70 7 -4 18 -5 127 -2 134 3 4 35 7 73 7 67 0 69 0 72 -27z
m289 15 c0 -7 1 -41 2 -74 l2 -62 -72 1 c-81 0 -75 -6 -75 77 0 71 -4 67 72
69 51 1 70 -2 71 -11z m291 0 c2 -7 4 -40 4 -73 l-1 -60 -72 -1 -73 -1 0 72 0
72 69 2 c49 1 70 -2 73 -11z m966 -93 c12 -15 22 -35 22 -46 0 -18 -8 -19
-104 -19 -103 0 -104 0 -98 23 12 39 26 56 61 70 43 18 87 7 119 -28z m-1838
-262 l0 -73 -75 0 -75 0 1 68 c1 37 5 70 10 73 5 3 38 5 74 5 l65 -1 0 -72z
m436 -73 l-1 -145 -72 -1 -72 -1 1 141 c1 77 5 143 9 146 5 3 37 6 73 5 l64 0
-2 -145z m435 140 c1 -3 2 -35 3 -72 l2 -68 -73 0 -73 0 0 69 c0 43 4 71 12
73 17 6 128 4 129 -2z m993 -186 l1 -102 -106 1 -106 1 -1 95 c0 53 2 99 5
104 2 4 50 6 105 5 l101 -3 1 -101z"/>
<path d="M687 2765 c-32 -7 -63 -17 -69 -23 -9 -9 -19 -302 -10 -302 1 0 31
14 65 32 46 23 78 32 127 35 62 3 70 0 178 -53 91 -45 130 -59 195 -68 128
-19 248 4 346 65 124 76 210 77 343 6 118 -64 167 -77 278 -77 111 -1 161 13
280 79 80 43 90 46 160 46 70 0 81 -4 179 -53 57 -28 109 -52 115 -52 14 0 46
54 93 155 39 84 40 95 10 95 -13 0 -65 22 -117 49 -104 54 -145 67 -235 76
-106 11 -188 -8 -311 -70 -153 -78 -220 -78 -347 -3 -78 46 -153 69 -242 73
-117 5 -176 -9 -300 -72 -97 -49 -116 -55 -172 -56 -56 0 -74 5 -175 55 -62
31 -126 59 -143 63 -52 12 -188 12 -248 0z"/>
<path d="M748 2244 c-2 -1 -16 -4 -33 -7 -67 -12 -96 -20 -101 -29 -7 -11 -8
-287 -2 -294 3 -2 34 10 69 28 52 26 76 32 129 33 60 0 75 -5 165 -51 117 -60
181 -77 287 -76 97 1 157 18 281 81 91 46 104 50 160 47 51 -2 79 -12 162 -53
125 -64 165 -75 281 -75 l92 -1 106 57 c127 67 231 141 335 241 l76 73 -45 12
c-25 7 -85 13 -135 12 -101 0 -179 -21 -264 -71 -130 -77 -193 -76 -353 2
-121 60 -193 77 -296 70 -86 -5 -137 -21 -246 -77 -90 -46 -104 -51 -165 -51
-60 1 -76 6 -168 53 -56 28 -123 56 -149 62 -44 10 -180 20 -186 14z"/>
</g>
</svg>
