<?xml version="1.0" encoding="UTF-8" standalone="no"?><!-- Generator: Gravit.io --><svg xmlns="http://www.w3.org/2000/svg" xmlns:xlink="http://www.w3.org/1999/xlink" style="isolation:isolate" viewBox="0 0 24 6.7" width="24pt" height="6.7pt"><path d=" M 11.561 5.38 L 11.561 5.38 Q 11.702 5.422 11.877 5.422 L 11.877 5.422 L 11.877 5.422 Q 12.431 5.422 12.701 4.808 L 12.701 4.808 L 12.701 4.808 Q 12.971 4.194 12.971 3.325 L 12.971 3.325 L 12.971 3.325 Q 12.971 2.939 12.845 2.686 L 12.845 2.686 L 12.845 2.686 Q 12.719 2.434 12.466 2.434 L 12.466 2.434 L 12.466 2.434 Q 12.158 2.434 11.905 2.749 L 11.905 2.749 L 11.561 5.38 L 11.561 5.38 L 11.561 5.38 L 11.561 5.38 L 11.561 5.38 L 11.561 5.38 L 11.561 5.38 L 11.561 5.38 L 11.561 5.38 Z  M 15.593 5.05 L 15.593 5.05 Q 15.586 5.085 15.586 5.141 L 15.586 5.141 L 15.586 5.141 Q 15.586 5.31 15.712 5.31 L 15.712 5.31 L 15.712 5.31 Q 15.769 5.31 15.835 5.275 L 15.835 5.275 L 15.835 5.275 Q 15.902 5.239 16.028 5.155 L 16.028 5.155 L 16.119 5.394 L 16.119 5.394 Q 16 5.555 15.751 5.723 L 15.751 5.723 L 15.751 5.723 Q 15.502 5.892 15.123 5.892 L 15.123 5.892 L 15.123 5.892 Q 14.801 5.892 14.622 5.769 L 14.622 5.769 L 14.622 5.769 Q 14.443 5.646 14.443 5.45 L 14.443 5.45 L 14.443 5.45 Q 14.443 5.408 14.45 5.38 L 14.45 5.38 L 14.632 3.998 L 14.829 2.532 L 14.436 2.322 L 14.492 2.02 L 15.846 1.838 L 16.028 1.922 L 15.593 5.05 L 15.593 5.05 L 15.593 5.05 L 15.593 5.05 L 15.593 5.05 L 15.593 5.05 L 15.593 5.05 L 15.593 5.05 Z  M 15.586 1.234 L 15.586 1.234 Q 15.376 1.234 15.211 1.066 L 15.211 1.066 L 15.211 1.066 Q 15.046 0.898 15.046 0.687 L 15.046 0.687 L 15.046 0.687 Q 15.046 0.4 15.242 0.2 L 15.242 0.2 L 15.242 0.2 Q 15.439 0 15.762 0 L 15.762 0 L 15.762 0 Q 16.007 0 16.154 0.161 L 16.154 0.161 L 16.154 0.161 Q 16.302 0.323 16.302 0.533 L 16.302 0.533 L 16.302 0.533 Q 16.302 0.842 16.119 1.038 L 16.119 1.038 L 16.119 1.038 Q 15.937 1.234 15.586 1.234 L 15.586 1.234 L 15.586 1.234 L 15.586 1.234 L 15.586 1.234 L 15.586 1.234 L 15.586 1.234 L 15.586 1.234 Z  M 17.521 5.05 L 17.521 5.05 Q 17.514 5.078 17.514 5.134 L 17.514 5.134 L 17.514 5.134 Q 17.514 5.31 17.647 5.31 L 17.647 5.31 L 17.647 5.31 Q 17.703 5.31 17.77 5.278 L 17.77 5.278 L 17.77 5.278 Q 17.836 5.246 17.963 5.155 L 17.963 5.155 L 18.054 5.394 L 18.054 5.394 Q 17.689 5.892 17.1 5.892 L 17.1 5.892 L 17.1 5.892 Q 16.798 5.892 16.591 5.78 L 16.591 5.78 L 16.591 5.78 Q 16.384 5.667 16.377 5.429 L 16.377 5.429 L 16.377 5.429 Q 16.377 5.387 16.405 5.162 L 16.405 5.162 L 16.995 0.743 L 16.539 0.596 L 16.609 0.316 L 17.984 0.168 L 18.159 0.267 L 17.521 5.05 L 17.521 5.05 L 17.521 5.05 L 17.521 5.05 L 17.521 5.05 L 17.521 5.05 Z  M 20.15 2.308 L 20.15 2.308 Q 19.785 2.308 19.606 2.778 L 19.606 2.778 L 19.606 2.778 Q 19.427 3.247 19.392 3.851 L 19.392 3.851 L 19.392 3.851 Q 19.61 3.837 19.855 3.714 L 19.855 3.714 L 19.855 3.714 Q 20.101 3.591 20.269 3.36 L 20.269 3.36 L 20.269 3.36 Q 20.437 3.128 20.437 2.82 L 20.437 2.82 L 20.437 2.82 Q 20.437 2.308 20.15 2.308 L 20.15 2.308 L 20.15 2.308 L 20.15 2.308 L 20.15 2.308 L 20.15 2.308 L 20.15 2.308 Z  M 23.564 2.308 L 23.564 2.308 Q 23.199 2.308 23.02 2.778 L 23.02 2.778 L 23.02 2.778 Q 22.842 3.247 22.807 3.851 L 22.807 3.851 L 22.807 3.851 Q 23.024 3.837 23.269 3.714 L 23.269 3.714 L 23.269 3.714 Q 23.515 3.591 23.683 3.36 L 23.683 3.36 L 23.683 3.36 Q 23.852 3.128 23.852 2.82 L 23.852 2.82 L 23.852 2.82 Q 23.852 2.308 23.564 2.308 L 23.564 2.308 L 23.564 2.308 L 23.564 2.308 L 23.564 2.308 L 23.564 2.308 Z  M 7.881 3.802 L 7.846 4.047 L 7.846 4.047 Q 7.755 4.657 7.755 4.854 L 7.755 4.854 L 7.755 4.854 Q 7.755 5.106 7.832 5.215 L 7.832 5.215 L 7.832 5.215 Q 7.909 5.324 8.084 5.324 L 8.084 5.324 L 8.084 5.324 Q 8.274 5.324 8.453 5.222 L 8.453 5.222 L 8.453 5.222 Q 8.631 5.12 8.765 4.966 L 8.765 4.966 L 9.185 1.866 L 10.287 1.866 L 9.845 5.05 L 9.845 5.05 Q 9.817 5.31 9.985 5.31 L 9.985 5.31 L 9.985 5.31 Q 10.041 5.31 10.101 5.278 L 10.101 5.278 L 10.101 5.278 Q 10.16 5.246 10.294 5.155 L 10.294 5.155 L 10.392 5.394 L 10.392 5.394 Q 10.343 5.478 10.217 5.594 L 10.217 5.594 L 10.217 5.594 Q 10.09 5.709 9.887 5.801 L 9.887 5.801 L 9.887 5.801 Q 9.683 5.892 9.438 5.892 L 9.438 5.892 L 9.438 5.892 Q 9.164 5.892 9.01 5.797 L 9.01 5.797 L 9.01 5.797 Q 8.856 5.702 8.821 5.527 L 8.821 5.527 L 8.821 5.527 Q 8.814 5.506 8.814 5.45 L 8.814 5.45 L 8.814 5.45 Q 8.814 5.366 8.821 5.324 L 8.821 5.324 L 8.814 5.317 L 8.814 5.317 Q 8.589 5.569 8.309 5.73 L 8.309 5.73 L 8.309 5.73 Q 8.028 5.892 7.621 5.892 L 7.621 5.892 L 7.621 5.892 Q 7.25 5.892 6.941 5.678 L 6.941 5.678 L 6.941 5.678 Q 6.632 5.464 6.625 5.015 L 6.625 5.015 L 6.625 5.015 Q 6.625 4.727 6.738 3.984 L 6.738 3.984 L 6.738 3.984 Q 6.766 3.844 6.773 3.774 L 6.773 3.774 L 6.955 2.518 L 6.52 2.252 L 6.576 1.95 L 7.937 1.838 L 8.112 1.922 L 7.881 3.802 L 7.881 3.802 L 7.881 3.802 Z  M 6.381 1.066 L 6.359 1.227 L 6.359 1.227 Q 6.121 3.184 5.977 4.268 L 5.977 4.268 L 5.977 4.268 Q 5.833 5.352 5.756 5.562 L 5.756 5.562 L 5.756 5.562 Q 5.553 6.151 4.978 6.523 L 4.978 6.523 L 4.978 6.523 Q 4.403 6.895 3.659 7 L 3.659 7 L 3.477 6.642 L 3.477 6.642 Q 4.003 6.481 4.255 6.193 L 4.255 6.193 L 4.255 6.193 Q 4.508 5.906 4.578 5.527 L 4.578 5.527 L 4.578 5.527 Q 4.908 3.809 5.202 1.073 L 5.202 1.073 L 4.704 0.989 L 4.753 0.61 L 6.907 0.61 L 6.879 0.989 L 6.381 1.066 L 6.381 1.066 Z  M 11.975 2.202 L 11.975 2.202 Q 12.41 1.838 12.936 1.838 L 12.936 1.838 L 12.936 1.838 Q 13.525 1.838 13.82 2.22 L 13.82 2.22 L 13.82 2.22 Q 14.115 2.602 14.115 3.325 L 14.115 3.325 L 14.115 3.325 Q 14.115 4.04 13.831 4.626 L 13.831 4.626 L 13.831 4.626 Q 13.546 5.211 13.017 5.552 L 13.017 5.552 L 13.017 5.552 Q 12.487 5.892 11.786 5.892 L 11.786 5.892 L 11.786 5.892 Q 11.414 5.892 10.958 5.744 L 10.958 5.744 L 10.46 5.892 L 11.106 0.736 L 10.748 0.589 L 10.818 0.302 L 12.045 0.168 L 12.228 0.267 L 11.975 2.202 L 11.975 2.202 L 11.975 2.202 L 11.975 2.202 L 11.975 2.202 L 11.975 2.202 L 11.975 2.202 L 11.975 2.202 L 11.975 2.202 Z  M 21.279 5.092 L 21.279 5.092 Q 21.089 5.394 20.676 5.657 L 20.676 5.657 L 20.676 5.657 Q 20.262 5.92 19.68 5.92 L 19.68 5.92 L 19.68 5.92 Q 19.161 5.92 18.824 5.699 L 18.824 5.699 L 18.824 5.699 Q 18.487 5.478 18.333 5.12 L 18.333 5.12 L 18.333 5.12 Q 18.179 4.763 18.179 4.349 L 18.179 4.349 L 18.179 4.349 Q 18.179 3.633 18.47 3.058 L 18.47 3.058 L 18.47 3.058 Q 18.761 2.483 19.269 2.157 L 19.269 2.157 L 19.269 2.157 Q 19.778 1.831 20.395 1.831 L 20.395 1.831 L 20.395 1.831 Q 20.97 1.831 21.244 2.083 L 21.244 2.083 L 21.244 2.083 Q 21.517 2.336 21.517 2.735 L 21.517 2.735 L 21.517 2.735 Q 21.517 3.247 21.181 3.588 L 21.181 3.588 L 21.181 3.588 Q 20.844 3.928 20.357 4.089 L 20.357 4.089 L 20.357 4.089 Q 19.869 4.25 19.392 4.265 L 19.392 4.265 L 19.392 4.265 Q 19.385 4.784 19.557 5.05 L 19.557 5.05 L 19.557 5.05 Q 19.729 5.317 20.037 5.317 L 20.037 5.317 L 20.037 5.317 Q 20.395 5.317 20.637 5.155 L 20.637 5.155 L 20.637 5.155 Q 20.879 4.994 21.061 4.748 L 21.061 4.748 L 21.279 5.092 L 21.279 5.092 L 21.279 5.092 L 21.279 5.092 L 21.279 5.092 L 21.279 5.092 Z  M 24.693 5.092 L 24.693 5.092 Q 24.504 5.394 24.09 5.657 L 24.09 5.657 L 24.09 5.657 Q 23.676 5.92 23.094 5.92 L 23.094 5.92 L 23.094 5.92 Q 22.575 5.92 22.238 5.699 L 22.238 5.699 L 22.238 5.699 Q 21.902 5.478 21.747 5.12 L 21.747 5.12 L 21.747 5.12 Q 21.593 4.763 21.593 4.349 L 21.593 4.349 L 21.593 4.349 Q 21.593 3.633 21.884 3.058 L 21.884 3.058 L 21.884 3.058 Q 22.175 2.483 22.684 2.157 L 22.684 2.157 L 22.684 2.157 Q 23.192 1.831 23.81 1.831 L 23.81 1.831 L 23.81 1.831 Q 24.385 1.831 24.658 2.083 L 24.658 2.083 L 24.658 2.083 Q 24.932 2.336 24.932 2.735 L 24.932 2.735 L 24.932 2.735 Q 24.932 3.247 24.595 3.588 L 24.595 3.588 L 24.595 3.588 Q 24.258 3.928 23.771 4.089 L 23.771 4.089 L 23.771 4.089 Q 23.284 4.25 22.807 4.265 L 22.807 4.265 L 22.807 4.265 Q 22.8 4.784 22.971 5.05 L 22.971 5.05 L 22.971 5.05 Q 23.143 5.317 23.452 5.317 L 23.452 5.317 L 23.452 5.317 Q 23.81 5.317 24.052 5.155 L 24.052 5.155 L 24.052 5.155 Q 24.294 4.994 24.476 4.748 L 24.476 4.748 L 24.693 5.092 L 24.693 5.092 L 24.693 5.092 L 24.693 5.092 L 24.693 5.092 Z  M 1.621 2.732 L 1.621 2.295 L 1.402 2.295 L 1.402 2.732 L 1.621 2.732 L 1.621 2.732 L 1.621 2.732 L 1.621 2.732 L 1.621 2.732 L 1.621 2.732 Z  M 3.754 2.732 L 3.754 2.422 L 3.441 2.422 L 3.441 2.732 L 3.754 2.732 L 3.754 2.732 L 3.754 2.732 L 3.754 2.732 L 3.754 2.732 L 3.754 2.732 Z  M 2.057 2.514 L 2.276 2.514 L 2.276 2.295 L 2.057 2.295 L 2.057 2.514 L 2.057 2.514 L 2.057 2.514 L 2.057 2.514 L 2.057 2.514 L 2.057 2.514 L 2.057 2.514 L 2.057 2.514 Z  M 2.057 2.077 L 2.276 2.077 L 2.276 1.859 L 2.057 1.859 L 2.057 2.077 L 2.057 2.077 L 2.057 2.077 L 2.057 2.077 L 2.057 2.077 L 2.057 2.077 L 2.057 2.077 L 2.057 2.077 Z  M 2.057 1.64 L 2.276 1.64 L 2.276 1.422 L 2.057 1.422 L 2.057 1.64 L 2.057 1.64 L 2.057 1.64 L 2.057 1.64 L 2.057 1.64 L 2.057 1.64 L 2.057 1.64 L 2.057 1.64 Z  M 1.621 2.077 L 1.839 2.077 L 1.839 1.859 L 1.621 1.859 L 1.621 2.077 L 1.621 2.077 L 1.621 2.077 L 1.621 2.077 L 1.621 2.077 L 1.621 2.077 L 1.621 2.077 L 1.621 2.077 Z  M 1.621 1.64 L 1.839 1.64 L 1.839 1.422 L 1.621 1.422 L 1.621 1.64 L 1.621 1.64 L 1.621 1.64 L 1.621 1.64 L 1.621 1.64 L 1.621 1.64 L 1.621 1.64 L 1.621 1.64 Z  M 1.621 1.204 L 1.839 1.204 L 1.839 0.985 L 1.621 0.985 L 1.621 1.204 L 1.621 1.204 L 1.621 1.204 L 1.621 1.204 L 1.621 1.204 L 1.621 1.204 L 1.621 1.204 L 1.621 1.204 Z  M 1.184 2.077 L 1.402 2.077 L 1.402 1.859 L 1.184 1.859 L 1.184 2.077 L 1.184 2.077 L 1.184 2.077 L 1.184 2.077 L 1.184 2.077 L 1.184 2.077 L 1.184 2.077 L 1.184 2.077 Z  M 1.184 1.64 L 1.402 1.64 L 1.402 1.422 L 1.184 1.422 L 1.184 1.64 L 1.184 1.64 L 1.184 1.64 L 1.184 1.64 L 1.184 1.64 L 1.184 1.64 L 1.184 1.64 L 1.184 1.64 Z  M 1.184 1.204 L 1.402 1.204 L 1.402 0.985 L 1.184 0.985 L 1.184 1.204 L 1.184 1.204 L 1.184 1.204 L 1.184 1.204 L 1.184 1.204 L 1.184 1.204 L 1.184 1.204 L 1.184 1.204 Z  M 0.748 2.514 L 0.966 2.514 L 0.966 2.295 L 0.748 2.295 L 0.748 2.514 L 0.748 2.514 L 0.748 2.514 L 0.748 2.514 L 0.748 2.514 L 0.748 2.514 L 0.748 2.514 L 0.748 2.514 Z  M 0.748 2.077 L 0.966 2.077 L 0.966 1.859 L 0.748 1.859 L 0.748 2.077 L 0.748 2.077 L 0.748 2.077 L 0.748 2.077 L 0.748 2.077 L 0.748 2.077 L 0.748 2.077 L 0.748 2.077 Z  M 3.754 2.109 C 3.754 2.023 3.683 1.952 3.597 1.952 C 3.511 1.952 3.441 2.023 3.441 2.109 L 3.754 2.109 L 3.754 2.109 L 3.754 2.109 L 3.754 2.109 L 3.754 2.109 L 3.754 2.109 L 3.754 2.109 L 3.754 2.109 Z  M 0.529 4.438 Q 0.529 4.028 0.529 3.983 C 0.601 3.951 0.693 3.927 0.828 3.927 C 1.208 3.927 1.254 4.127 1.491 4.127 C 1.738 4.127 1.766 3.927 2.155 3.927 C 2.535 3.927 2.581 4.127 2.818 4.127 C 3.065 4.127 3.093 3.927 3.482 3.927 C 3.589 3.927 3.67 3.943 3.736 3.966 C 3.53 4.201 3.271 4.389 2.979 4.512 C 2.934 4.52 2.882 4.525 2.822 4.525 C 2.442 4.525 2.396 4.326 2.159 4.326 C 1.912 4.326 1.884 4.525 1.495 4.525 C 1.115 4.525 1.069 4.326 0.832 4.326 C 0.704 4.326 0.63 4.384 0.529 4.438 L 0.529 4.438 L 0.529 4.438 L 0.529 4.438 L 0.529 4.438 Z  M 0.529 3.641 Q 0.529 3.167 0.529 3.186 C 0.601 3.154 0.693 3.13 0.828 3.13 C 1.208 3.13 1.254 3.33 1.491 3.33 C 1.738 3.33 1.766 3.13 2.155 3.13 C 2.535 3.13 2.581 3.33 2.818 3.33 C 3.065 3.33 3.093 3.13 3.482 3.13 C 3.847 3.13 3.904 3.314 4.118 3.329 C 4.069 3.46 4.007 3.584 3.934 3.701 C 3.736 3.646 3.669 3.529 3.486 3.529 C 3.239 3.529 3.211 3.728 2.822 3.728 C 2.442 3.728 2.396 3.529 2.159 3.529 C 1.912 3.529 1.884 3.728 1.495 3.728 C 1.115 3.728 1.069 3.529 0.832 3.529 C 0.704 3.529 0.63 3.587 0.529 3.641 L 0.529 3.641 L 0.529 3.641 L 0.529 3.641 L 0.529 3.641 Z  M 2.494 2.732 L 2.494 1.204 L 2.057 1.204 L 2.057 0.767 L 0.966 0.767 L 0.966 1.64 L 0.966 1.64 L 0.966 1.64 L 0.529 1.64 L 0.529 2.732 Q 0.529 2.753 0.529 2.761 Q 0.529 2.823 0.529 2.996 L 0.529 2.996 L 4.012 2.996 L 4.145 2.996 L 4.145 2.892 L 4.145 2.892 L 4.145 2.266 L 4.38 2.266 L 3.597 1.561 L 3.284 1.843 L 3.284 1.639 L 3.049 1.639 L 3.049 2.054 L 3.049 2.054 L 3.049 2.054 L 2.814 2.266 L 3.049 2.266 L 3.049 2.732 L 2.494 2.732 L 2.494 2.732 L 2.494 2.732 L 2.494 2.732 L 2.494 2.732 Z  M 0 5.202 L 0 3.146 L 0 2.601 L 0 2.029 L 0 0 L 1.606 0 L 2.178 0 C 2.354 0 2.529 0.018 2.701 0.053 C 2.869 0.087 3.033 0.138 3.19 0.205 C 3.499 0.336 3.78 0.525 4.017 0.762 C 4.254 0.999 4.443 1.28 4.574 1.589 C 4.641 1.746 4.692 1.91 4.726 2.078 C 4.761 2.25 4.779 2.425 4.779 2.601 C 4.779 2.777 4.761 2.952 4.726 3.125 C 4.692 3.292 4.641 3.456 4.574 3.614 C 4.443 3.922 4.254 4.203 4.017 4.44 C 3.78 4.677 3.499 4.867 3.19 4.997 C 3.033 5.064 2.869 5.115 2.701 5.149 C 2.529 5.185 2.354 5.202 2.178 5.202 L 1.579 5.202 L 0 5.202 L 0 5.202 Z " fill-rule="evenodd" fill="rgb(173,255,182)"/></svg>