<?xml version="1.0" encoding="UTF-8" standalone="no"?><!-- Generator: Gravit.io --><svg xmlns="http://www.w3.org/2000/svg" xmlns:xlink="http://www.w3.org/1999/xlink" style="isolation:isolate" viewBox="-318.804 4531 1236.475 659.893" width="1236.475pt" height="659.893pt"><g><path d=" M 170.977 4914.404 L 170.977 4914.404 Q 196.039 4893.384 226.356 4893.384 L 226.356 4893.384 L 226.356 4893.384 Q 260.31 4893.384 277.288 4915.414 L 277.288 4915.414 L 277.288 4915.414 Q 294.265 4937.444 294.265 4979.08 L 294.265 4979.08 L 294.265 4979.08 Q 294.265 5020.311 277.894 5054.063 L 277.894 5054.063 L 277.894 5054.063 Q 261.523 5087.816 231.004 5107.42 L 231.004 5107.42 L 231.004 5107.42 Q 200.485 5127.025 160.063 5127.025 L 160.063 5127.025 L 160.063 5127.025 Q 138.639 5127.025 112.364 5118.537 L 112.364 5118.537 L 83.665 5127.025 L 120.853 4829.921 L 100.238 4821.432 L 104.28 4804.859 L 175.019 4797.179 L 185.529 4802.838 L 170.977 4914.404 Z  M 147.128 5097.517 L 147.128 5097.517 Q 155.212 5099.942 165.318 5099.942 L 165.318 5099.942 L 165.318 5099.942 Q 197.251 5099.942 212.814 5064.573 L 212.814 5064.573 L 212.814 5064.573 Q 228.377 5029.203 228.377 4979.08 L 228.377 4979.08 L 228.377 4979.08 Q 228.377 4956.847 221.101 4942.295 L 221.101 4942.295 L 221.101 4942.295 Q 213.825 4927.743 199.273 4927.743 L 199.273 4927.743 L 199.273 4927.743 Q 181.487 4927.743 166.935 4945.933 L 166.935 4945.933 L 147.128 5097.517 Z  M 379.479 5078.519 L 379.479 5078.519 Q 379.074 5080.54 379.074 5083.773 L 379.074 5083.773 L 379.074 5083.773 Q 379.074 5093.475 386.35 5093.475 L 386.35 5093.475 L 386.35 5093.475 Q 389.584 5093.475 393.424 5091.454 L 393.424 5091.454 L 393.424 5091.454 Q 397.264 5089.433 404.54 5084.582 L 404.54 5084.582 L 409.795 5098.326 L 409.795 5098.326 Q 402.924 5107.623 388.574 5117.324 L 388.574 5117.324 L 388.574 5117.324 Q 374.224 5127.025 352.396 5127.025 L 352.396 5127.025 L 352.396 5127.025 Q 333.801 5127.025 323.494 5119.952 L 323.494 5119.952 L 323.494 5119.952 Q 313.186 5112.877 313.186 5101.56 L 313.186 5101.56 L 313.186 5101.56 Q 313.186 5099.134 313.59 5097.517 L 313.59 5097.517 L 324.1 5017.885 L 335.418 4933.402 L 312.782 4921.275 L 316.015 4903.894 L 394.031 4893.384 L 404.54 4898.235 L 379.479 5078.519 Z  M 379.074 4858.621 L 379.074 4858.621 Q 366.948 4858.621 357.448 4848.919 L 357.448 4848.919 L 357.448 4848.919 Q 347.949 4839.218 347.949 4827.091 L 347.949 4827.091 L 347.949 4827.091 Q 347.949 4810.518 359.267 4798.998 L 359.267 4798.998 L 359.267 4798.998 Q 370.586 4787.478 389.18 4787.478 L 389.18 4787.478 L 389.18 4787.478 Q 403.328 4787.478 411.816 4796.774 L 411.816 4796.774 L 411.816 4796.774 Q 420.305 4806.072 420.305 4818.198 L 420.305 4818.198 L 420.305 4818.198 Q 420.305 4835.984 409.795 4847.302 L 409.795 4847.302 L 409.795 4847.302 Q 399.286 4858.621 379.074 4858.621 L 379.074 4858.621 Z  M 490.562 5078.519 L 490.562 5078.519 Q 490.158 5080.136 490.158 5083.369 L 490.158 5083.369 L 490.158 5083.369 Q 490.158 5093.475 497.838 5093.475 L 497.838 5093.475 L 497.838 5093.475 Q 501.072 5093.475 504.912 5091.656 L 504.912 5091.656 L 504.912 5091.656 Q 508.752 5089.837 516.028 5084.582 L 516.028 5084.582 L 521.283 5098.326 L 521.283 5098.326 Q 500.264 5127.025 466.309 5127.025 L 466.309 5127.025 L 466.309 5127.025 Q 448.927 5127.025 437.003 5120.558 L 437.003 5120.558 L 437.003 5120.558 Q 425.078 5114.09 424.674 5100.347 L 424.674 5100.347 L 424.674 5100.347 Q 424.674 5097.921 426.291 5084.986 L 426.291 5084.986 L 460.245 4830.325 L 433.971 4821.836 L 438.013 4805.667 L 517.241 4797.179 L 527.347 4802.838 L 490.562 5078.519 Z  M 707.148 5080.944 L 707.148 5080.944 Q 696.234 5098.326 672.385 5113.484 L 672.385 5113.484 L 672.385 5113.484 Q 648.536 5128.643 614.985 5128.643 L 614.985 5128.643 L 614.985 5128.643 Q 585.073 5128.643 565.67 5115.909 L 565.67 5115.909 L 565.67 5115.909 Q 546.267 5103.176 537.374 5082.561 L 537.374 5082.561 L 537.374 5082.561 Q 528.481 5061.945 528.481 5038.096 L 528.481 5038.096 L 528.481 5038.096 Q 528.481 4996.865 545.257 4963.719 L 545.257 4963.719 L 545.257 4963.719 Q 562.032 4930.573 591.338 4911.776 L 591.338 4911.776 L 591.338 4911.776 Q 620.644 4892.98 656.216 4892.98 L 656.216 4892.98 L 656.216 4892.98 Q 689.362 4892.98 705.127 4907.532 L 705.127 4907.532 L 705.127 4907.532 Q 720.892 4922.084 720.892 4945.125 L 720.892 4945.125 L 720.892 4945.125 Q 720.892 4974.633 701.489 4994.238 L 701.489 4994.238 L 701.489 4994.238 Q 682.086 5013.843 653.993 5023.14 L 653.993 5023.14 L 653.993 5023.14 Q 625.899 5032.437 598.412 5033.246 L 598.412 5033.246 L 598.412 5033.246 Q 598.008 5063.158 607.911 5078.519 L 607.911 5078.519 L 607.911 5078.519 Q 617.815 5093.879 635.601 5093.879 L 635.601 5093.879 L 635.601 5093.879 Q 656.216 5093.879 670.162 5084.582 L 670.162 5084.582 L 670.162 5084.582 Q 684.108 5075.285 694.617 5061.137 L 694.617 5061.137 L 707.148 5080.944 Z  M 642.068 4920.467 L 642.068 4920.467 Q 621.049 4920.467 610.741 4947.55 L 610.741 4947.55 L 610.741 4947.55 Q 600.433 4974.633 598.412 5009.396 L 598.412 5009.396 L 598.412 5009.396 Q 610.943 5008.588 625.091 5001.514 L 625.091 5001.514 L 625.091 5001.514 Q 639.239 4994.44 648.94 4981.101 L 648.94 4981.101 L 648.94 4981.101 Q 658.641 4967.761 658.641 4949.976 L 658.641 4949.976 L 658.641 4949.976 Q 658.641 4920.467 642.068 4920.467 L 642.068 4920.467 Z  M 903.927 5080.944 L 903.927 5080.944 Q 893.013 5098.326 869.164 5113.484 L 869.164 5113.484 L 869.164 5113.484 Q 845.315 5128.643 811.764 5128.643 L 811.764 5128.643 L 811.764 5128.643 Q 781.852 5128.643 762.449 5115.909 L 762.449 5115.909 L 762.449 5115.909 Q 743.046 5103.176 734.153 5082.561 L 734.153 5082.561 L 734.153 5082.561 Q 725.26 5061.945 725.26 5038.096 L 725.26 5038.096 L 725.26 5038.096 Q 725.26 4996.865 742.036 4963.719 L 742.036 4963.719 L 742.036 4963.719 Q 758.811 4930.573 788.117 4911.776 L 788.117 4911.776 L 788.117 4911.776 Q 817.423 4892.98 852.995 4892.98 L 852.995 4892.98 L 852.995 4892.98 Q 886.142 4892.98 901.906 4907.532 L 901.906 4907.532 L 901.906 4907.532 Q 917.671 4922.084 917.671 4945.125 L 917.671 4945.125 L 917.671 4945.125 Q 917.671 4974.633 898.268 4994.238 L 898.268 4994.238 L 898.268 4994.238 Q 878.866 5013.843 850.772 5023.14 L 850.772 5023.14 L 850.772 5023.14 Q 822.678 5032.437 795.191 5033.246 L 795.191 5033.246 L 795.191 5033.246 Q 794.787 5063.158 804.69 5078.519 L 804.69 5078.519 L 804.69 5078.519 Q 814.594 5093.879 832.38 5093.879 L 832.38 5093.879 L 832.38 5093.879 Q 852.995 5093.879 866.941 5084.582 L 866.941 5084.582 L 866.941 5084.582 Q 880.887 5075.285 891.396 5061.137 L 891.396 5061.137 L 903.927 5080.944 Z  M 838.847 4920.467 L 838.847 4920.467 Q 817.828 4920.467 807.52 4947.55 L 807.52 4947.55 L 807.52 4947.55 Q 797.212 4974.633 795.191 5009.396 L 795.191 5009.396 L 795.191 5009.396 Q 807.722 5008.588 821.87 5001.514 L 821.87 5001.514 L 821.87 5001.514 Q 836.018 4994.44 845.719 4981.101 L 845.719 4981.101 L 845.719 4981.101 Q 855.421 4967.761 855.421 4949.976 L 855.421 4949.976 L 855.421 4949.976 Q 855.421 4920.467 838.847 4920.467 L 838.847 4920.467 Z  M -64.989 5006.567 L -67.01 5020.714 L -67.01 5020.714 Q -72.265 5055.882 -72.265 5067.2 L -72.265 5067.2 L -72.265 5067.2 Q -72.265 5081.752 -67.818 5088.018 L -67.818 5088.018 L -67.818 5088.018 Q -63.372 5094.283 -53.266 5094.283 L -53.266 5094.283 L -53.266 5094.283 Q -42.352 5094.283 -32.044 5088.422 L -32.044 5088.422 L -32.044 5088.422 Q -21.737 5082.561 -14.056 5073.668 L -14.056 5073.668 L 10.197 4895.001 L 73.66 4895.001 L 48.194 5078.519 L 48.194 5078.519 Q 46.577 5093.475 56.279 5093.475 L 56.279 5093.475 L 56.279 5093.475 Q 59.512 5093.475 62.948 5091.656 L 62.948 5091.656 L 62.948 5091.656 Q 66.384 5089.837 74.065 5084.582 L 74.065 5084.582 L 79.724 5098.326 L 79.724 5098.326 Q 76.894 5103.176 69.618 5109.846 L 69.618 5109.846 L 69.618 5109.846 Q 62.342 5116.516 50.62 5121.771 L 50.62 5121.771 L 50.62 5121.771 Q 38.897 5127.025 24.749 5127.025 L 24.749 5127.025 L 24.749 5127.025 Q 8.984 5127.025 0.092 5121.568 L 0.092 5121.568 L 0.092 5121.568 Q -8.801 5116.111 -10.823 5106.006 L -10.823 5106.006 L -10.823 5106.006 Q -11.227 5104.793 -11.227 5101.56 L -11.227 5101.56 L -11.227 5101.56 Q -11.227 5096.708 -10.823 5094.283 L -10.823 5094.283 L -11.227 5093.879 L -11.227 5093.879 Q -24.162 5108.431 -40.331 5117.729 L -40.331 5117.729 L -40.331 5117.729 Q -56.5 5127.025 -79.945 5127.025 L -79.945 5127.025 L -79.945 5127.025 Q -101.369 5127.025 -119.155 5114.697 L -119.155 5114.697 L -119.155 5114.697 Q -136.94 5102.368 -137.345 5076.498 L -137.345 5076.498 L -137.345 5076.498 Q -137.345 5059.924 -130.877 5017.077 L -130.877 5017.077 L -130.877 5017.077 Q -129.26 5008.992 -128.856 5004.95 L -128.856 5004.95 L -118.346 4932.594 L -143.408 4917.233 L -140.174 4899.852 L -61.755 4893.384 L -51.649 4898.235 L -64.989 5006.567 Z  M -151.455 4848.919 L -152.667 4858.216 L -152.667 4858.216 Q -166.411 4970.995 -174.698 5033.448 L -174.698 5033.448 L -174.698 5033.448 Q -182.984 5095.9 -187.431 5108.027 L -187.431 5108.027 L -187.431 5108.027 Q -199.153 5141.982 -232.3 5163.406 L -232.3 5163.406 L -232.3 5163.406 Q -265.446 5184.83 -308.294 5190.893 L -308.294 5190.893 L -318.804 5170.277 L -318.804 5170.277 Q -288.487 5160.98 -273.935 5144.407 L -273.935 5144.407 L -273.935 5144.407 Q -259.383 5127.834 -255.34 5106.006 L -255.34 5106.006 L -255.34 5106.006 Q -236.342 5006.971 -219.364 4849.324 L -219.364 4849.324 L -248.064 4844.473 L -245.235 4822.645 L -121.138 4822.645 L -122.755 4844.473 L -151.455 4848.919 Z " fill="rgb(173,255,182)"/><path d=" M 131.126 4746.855 L 130.492 4751.608 L 130.492 4751.608 Q 130.202 4752.758 130.202 4754.484 L 130.202 4754.484 L 130.202 4754.484 Q 130.202 4762.538 137.615 4767.571 L 137.615 4767.571 L 137.615 4767.571 Q 145.027 4772.604 158.4 4772.604 L 158.4 4772.604 L 158.4 4772.604 Q 174.098 4772.604 184.418 4765.701 L 184.418 4765.701 L 184.418 4765.701 Q 194.738 4758.798 199.68 4752.183 L 199.68 4752.183 L 195.901 4742.404 L 195.901 4742.404 Q 190.668 4745.855 187.906 4747.293 L 187.906 4747.293 L 187.906 4747.293 Q 185.145 4748.731 182.819 4748.731 L 182.819 4748.731 L 182.819 4748.731 Q 177.586 4748.731 177.586 4741.829 L 177.586 4741.829 L 177.586 4741.829 Q 177.586 4739.527 177.877 4738.089 L 177.877 4738.089 L 177.877 4738.089 L 195.901 4609.809 L 188.342 4606.357 L 161.575 4609.925 C 162.752 4613.893 163.758 4617.912 164.59 4621.97 C 166.54 4631.52 167.53 4641.24 167.53 4650.98 C 167.53 4650.98 167.53 4650.99 167.53 4650.99 L 167.53 4651.02 L 167.53 4651.05 C 167.53 4651.05 167.53 4651.05 167.53 4651.06 C 167.53 4660.8 166.54 4670.52 164.59 4680.06 C 162.68 4689.39 159.85 4698.5 156.14 4707.26 C 150.003 4721.75 141.55 4735.117 131.126 4746.855 Z  M 495.53 4738.089 L 495.53 4738.089 Q 495.239 4739.527 495.239 4741.829 L 495.239 4741.829 L 495.239 4741.829 Q 495.239 4748.731 500.472 4748.731 L 500.472 4748.731 L 500.472 4748.731 Q 502.798 4748.731 505.559 4747.293 L 505.559 4747.293 L 505.559 4747.293 Q 508.321 4745.855 513.554 4742.404 L 513.554 4742.404 L 517.333 4752.183 L 517.333 4752.183 Q 512.391 4758.798 502.071 4765.701 L 502.071 4765.701 L 502.071 4765.701 Q 491.751 4772.604 476.053 4772.604 L 476.053 4772.604 L 476.053 4772.604 Q 462.68 4772.604 455.267 4767.571 L 455.267 4767.571 L 455.267 4767.571 Q 447.854 4762.538 447.854 4754.484 L 447.854 4754.484 L 447.854 4754.484 Q 447.854 4752.758 448.145 4751.608 L 448.145 4751.608 L 455.703 4694.946 L 463.843 4634.833 L 447.564 4626.204 L 449.889 4613.836 L 505.995 4606.357 L 513.554 4609.809 L 495.53 4738.089 L 495.53 4738.089 Z  M 495.239 4581.622 L 495.239 4581.622 Q 486.518 4581.622 479.687 4574.719 L 479.687 4574.719 L 479.687 4574.719 Q 472.855 4567.816 472.855 4559.187 L 472.855 4559.187 L 472.855 4559.187 Q 472.855 4547.395 480.995 4539.197 L 480.995 4539.197 L 480.995 4539.197 Q 489.134 4531 502.507 4531 L 502.507 4531 L 502.507 4531 Q 512.681 4531 518.786 4537.615 L 518.786 4537.615 L 518.786 4537.615 Q 524.891 4544.23 524.891 4552.859 L 524.891 4552.859 L 524.891 4552.859 Q 524.891 4565.515 517.333 4573.568 L 517.333 4573.568 L 517.333 4573.568 Q 509.774 4581.622 495.239 4581.622 L 495.239 4581.622 L 495.239 4581.622 Z  M 625.895 4640.297 L 625.895 4640.297 Q 621.535 4635.12 614.122 4630.662 L 614.122 4630.662 L 614.122 4630.662 Q 606.709 4626.204 596.825 4626.204 L 596.825 4626.204 L 596.825 4626.204 Q 587.232 4626.204 580.691 4630.662 L 580.691 4630.662 L 580.691 4630.662 Q 574.15 4635.12 573.859 4643.173 L 573.859 4643.173 L 573.859 4643.173 Q 573.859 4651.227 579.528 4657.698 L 579.528 4657.698 L 579.528 4657.698 Q 585.197 4664.17 599.15 4674.524 L 599.15 4674.524 L 599.15 4674.524 Q 613.686 4684.879 620.953 4694.946 L 620.953 4694.946 L 620.953 4694.946 Q 628.221 4705.013 628.221 4721.12 L 628.221 4721.12 L 628.221 4721.12 Q 628.221 4737.802 619.064 4749.451 L 619.064 4749.451 L 619.064 4749.451 Q 609.906 4761.099 594.499 4766.852 L 594.499 4766.852 L 594.499 4766.852 Q 579.092 4772.604 560.487 4772.604 L 560.487 4772.604 L 560.487 4772.604 Q 547.405 4772.604 533.451 4769.44 L 533.451 4769.44 L 533.451 4769.44 Q 519.498 4766.276 515.137 4762.825 L 515.137 4762.825 L 521.823 4734.925 L 521.823 4734.925 Q 528.219 4740.966 538.393 4746.143 L 538.393 4746.143 L 538.393 4746.143 Q 548.568 4751.32 559.615 4751.32 L 559.615 4751.32 L 559.615 4751.32 Q 568.627 4751.32 575.603 4746.718 L 575.603 4746.718 L 575.603 4746.718 Q 582.58 4742.116 582.58 4732.912 L 582.58 4732.912 L 582.58 4732.912 Q 582.58 4724.858 576.185 4717.956 L 576.185 4717.956 L 576.185 4717.956 Q 569.789 4711.053 556.417 4701.849 L 556.417 4701.849 L 556.417 4701.849 Q 544.207 4693.508 536.504 4682.29 L 536.504 4682.29 L 536.504 4682.29 Q 528.8 4671.073 528.8 4654.678 L 528.8 4654.678 L 528.8 4654.678 Q 528.8 4640.585 537.085 4629.655 L 537.085 4629.655 L 537.085 4629.655 Q 545.37 4618.726 560.341 4612.542 L 560.341 4612.542 L 560.341 4612.542 Q 575.313 4606.357 595.081 4606.357 L 595.081 4606.357 L 595.081 4606.357 Q 605.837 4606.357 616.883 4608.083 L 616.883 4608.083 L 616.883 4608.083 Q 627.93 4609.809 632 4611.535 L 632 4611.535 L 625.895 4640.297 L 625.895 4640.297 Z  M 411.201 4738.089 L 411.201 4738.089 Q 410.91 4739.24 410.91 4741.541 L 410.91 4741.541 L 410.91 4741.541 Q 410.91 4748.731 416.434 4748.731 L 416.434 4748.731 L 416.434 4748.731 Q 418.759 4748.731 421.521 4747.437 L 421.521 4747.437 L 421.521 4747.437 Q 424.283 4746.143 429.515 4742.404 L 429.515 4742.404 L 433.295 4752.183 L 433.295 4752.183 Q 418.178 4772.604 393.759 4772.604 L 393.759 4772.604 L 393.759 4772.604 Q 381.259 4772.604 372.683 4768.002 L 372.683 4768.002 L 372.683 4768.002 Q 364.107 4763.4 363.816 4753.621 L 363.816 4753.621 L 363.816 4753.621 Q 363.816 4751.896 364.979 4742.691 L 364.979 4742.691 L 389.398 4561.488 L 370.502 4555.448 L 373.41 4543.943 L 430.387 4537.903 L 437.655 4541.93 L 411.201 4738.089 L 411.201 4738.089 Z  M 177.586 4581.622 L 177.586 4581.622 Q 168.865 4581.622 162.034 4574.719 L 162.034 4574.719 L 162.034 4574.719 Q 155.202 4567.816 155.202 4559.187 L 155.202 4559.187 L 155.202 4559.187 Q 155.202 4547.395 163.342 4539.197 L 163.342 4539.197 L 163.342 4539.197 Q 171.482 4531 184.854 4531 L 184.854 4531 L 184.854 4531 Q 195.029 4531 201.133 4537.615 L 201.133 4537.615 L 201.133 4537.615 Q 207.238 4544.23 207.238 4552.859 L 207.238 4552.859 L 207.238 4552.859 Q 207.238 4565.515 199.68 4573.568 L 199.68 4573.568 L 199.68 4573.568 Q 192.122 4581.622 177.586 4581.622 L 177.586 4581.622 L 177.586 4581.622 Z  M 309.801 4627.642 L 309.801 4627.642 Q 303.115 4625.628 296.719 4625.628 L 296.719 4625.628 L 296.719 4625.628 Q 280.44 4625.628 270.12 4638.571 L 270.12 4638.571 L 270.12 4638.571 Q 259.8 4651.515 255.439 4671.073 L 255.439 4671.073 L 255.439 4671.073 Q 251.079 4690.631 251.079 4711.628 L 251.079 4711.628 L 251.079 4711.628 Q 251.079 4728.885 256.748 4738.665 L 256.748 4738.665 L 256.748 4738.665 Q 262.416 4748.444 272.3 4748.444 L 272.3 4748.444 L 272.3 4748.444 Q 283.638 4748.444 293.522 4737.514 L 293.522 4737.514 L 309.801 4627.642 L 309.801 4627.642 Z  M 333.929 4780.658 L 333.929 4780.658 Q 329.569 4814.022 304.714 4828.259 L 304.714 4828.259 L 304.714 4828.259 Q 279.858 4842.497 246.428 4842.497 L 246.428 4842.497 L 246.428 4842.497 Q 236.834 4842.497 224.915 4840.34 L 224.915 4840.34 L 224.915 4840.34 Q 212.997 4838.183 208.636 4836.169 L 208.636 4836.169 L 215.904 4806.256 L 215.904 4806.256 Q 217.939 4807.982 224.479 4811.29 L 224.479 4811.29 L 224.479 4811.29 Q 231.02 4814.597 239.596 4817.33 L 239.596 4817.33 L 239.596 4817.33 Q 248.172 4820.062 255.73 4820.062 L 255.73 4820.062 L 255.73 4820.062 Q 271.137 4820.062 278.26 4814.022 L 278.26 4814.022 L 278.26 4814.022 Q 285.382 4807.982 287.417 4790.149 L 287.417 4790.149 L 290.905 4759.086 L 290.905 4759.086 Q 274.044 4772.604 252.823 4772.604 L 252.823 4772.604 L 252.823 4772.604 Q 227.532 4772.604 215.031 4755.922 L 215.031 4755.922 L 215.031 4755.922 Q 202.531 4739.24 202.531 4713.354 L 202.531 4713.354 L 202.531 4713.354 Q 202.531 4685.454 213.723 4660.862 L 213.723 4660.862 L 213.723 4660.862 Q 224.915 4636.271 247.009 4621.314 L 247.009 4621.314 L 247.009 4621.314 Q 269.102 4606.357 299.917 4606.357 L 299.917 4606.357 L 299.917 4606.357 Q 308.347 4606.357 318.086 4608.371 L 318.086 4608.371 L 318.086 4608.371 Q 327.825 4610.384 334.802 4612.973 L 334.802 4612.973 L 357.767 4606.357 L 333.929 4780.658 L 333.929 4780.658 Z " fill-rule="evenodd" fill="rgb(173,255,182)"/><path d=" M -76.888 4770.445 L -76.888 4676.032 L -76.888 4651.019 L -76.888 4624.767 L -76.888 4531.593 L -3.152 4531.593 L 23.095 4531.593 C 31.169 4531.59 39.222 4532.402 47.133 4534.021 C 54.831 4535.597 62.354 4537.935 69.59 4540.997 C 83.765 4547.005 96.651 4555.694 107.534 4566.585 C 118.424 4577.468 127.113 4590.354 133.12 4604.529 C 136.184 4611.765 138.521 4619.288 140.098 4626.985 C 141.714 4634.895 142.528 4642.947 142.526 4651.019 C 142.528 4659.091 141.714 4667.143 140.098 4675.052 C 138.521 4682.75 136.184 4690.273 133.12 4697.509 C 127.113 4711.685 118.424 4724.57 107.534 4735.453 C 96.651 4746.343 83.765 4755.032 69.59 4761.039 C 62.354 4764.103 54.831 4766.44 47.133 4768.018 C 39.222 4769.636 31.169 4770.447 23.095 4770.445 L -4.391 4770.445 L -76.888 4770.445 Z  M -52.589 4735.337 Q -52.589 4716.524 -52.589 4714.449 C -49.275 4713.011 -45.079 4711.91 -38.891 4711.91 C -21.418 4711.91 -19.314 4721.059 -8.427 4721.059 C 2.916 4721.059 4.197 4711.91 22.036 4711.91 C 39.51 4711.91 41.614 4721.059 52.5 4721.059 C 63.844 4721.059 65.125 4711.91 82.964 4711.91 C 87.902 4711.91 91.613 4712.641 94.637 4713.691 C 85.174 4724.487 73.307 4733.124 59.875 4738.761 C 57.813 4739.135 55.447 4739.355 52.683 4739.355 C 35.21 4739.355 33.106 4730.207 22.219 4730.207 C 10.875 4730.207 9.595 4739.355 -8.244 4739.355 C -25.718 4739.355 -27.822 4730.207 -38.708 4730.207 C -44.545 4730.207 -47.948 4732.881 -52.589 4735.337 L -52.589 4735.337 Z  M -52.589 4698.745 Q -52.589 4677.007 -52.589 4677.855 C -49.275 4676.418 -45.079 4675.317 -38.891 4675.317 C -21.418 4675.317 -19.314 4684.465 -8.427 4684.465 C 2.916 4684.465 4.197 4675.317 22.036 4675.317 C 39.51 4675.317 41.614 4684.465 52.5 4684.465 C 63.844 4684.465 65.125 4675.317 82.964 4675.317 C 99.751 4675.317 102.352 4683.761 112.186 4684.421 C 109.932 4690.428 107.087 4696.146 103.721 4701.505 C 94.636 4698.999 91.584 4693.614 83.147 4693.614 C 71.803 4693.614 70.522 4702.762 52.683 4702.762 C 35.21 4702.762 33.106 4693.614 22.219 4693.614 C 10.875 4693.614 9.595 4702.762 -8.244 4702.762 C -25.718 4702.762 -27.822 4693.614 -38.708 4693.614 C -44.545 4693.614 -47.948 4696.288 -52.589 4698.745 L -52.589 4698.745 Z  M -2.474 4657.021 L -2.474 4636.975 L -12.497 4636.975 L -12.497 4657.021 L -2.474 4657.021 L -2.474 4657.021 Z  M 95.46 4657.021 L 95.46 4642.796 L 81.084 4642.796 L 81.084 4657.021 L 95.46 4657.021 L 95.46 4657.021 Z  M 17.572 4646.998 L 27.595 4646.998 L 27.595 4636.975 L 17.572 4636.975 L 17.572 4646.998 L 17.572 4646.998 L 17.572 4646.998 L 17.572 4646.998 Z  M 17.572 4626.952 L 27.595 4626.952 L 27.595 4616.929 L 17.572 4616.929 L 17.572 4626.952 L 17.572 4626.952 L 17.572 4626.952 L 17.572 4626.952 Z  M 17.572 4606.905 L 27.595 4606.905 L 27.595 4596.882 L 17.572 4596.882 L 17.572 4606.905 L 17.572 4606.905 L 17.572 4606.905 L 17.572 4606.905 Z  M -2.474 4626.952 L 7.549 4626.952 L 7.549 4616.929 L -2.474 4616.929 L -2.474 4626.952 L -2.474 4626.952 L -2.474 4626.952 L -2.474 4626.952 Z  M -2.474 4606.905 L 7.549 4606.905 L 7.549 4596.882 L -2.474 4596.882 L -2.474 4606.905 L -2.474 4606.905 L -2.474 4606.905 L -2.474 4606.905 Z  M -2.474 4586.859 L 7.549 4586.859 L 7.549 4576.836 L -2.474 4576.836 L -2.474 4586.859 L -2.474 4586.859 L -2.474 4586.859 L -2.474 4586.859 Z  M -22.52 4626.952 L -12.497 4626.952 L -12.497 4616.929 L -22.52 4616.929 L -22.52 4626.952 L -22.52 4626.952 L -22.52 4626.952 L -22.52 4626.952 Z  M -22.52 4606.905 L -12.497 4606.905 L -12.497 4596.882 L -22.52 4596.882 L -22.52 4606.905 L -22.52 4606.905 L -22.52 4606.905 L -22.52 4606.905 Z  M -22.52 4586.859 L -12.497 4586.859 L -12.497 4576.836 L -22.52 4576.836 L -22.52 4586.859 L -22.52 4586.859 L -22.52 4586.859 L -22.52 4586.859 Z  M -42.566 4646.998 L -32.543 4646.998 L -32.543 4636.975 L -42.566 4636.975 L -42.566 4646.998 L -42.566 4646.998 L -42.566 4646.998 L -42.566 4646.998 Z  M -42.566 4626.952 L -32.543 4626.952 L -32.543 4616.929 L -42.566 4616.929 L -42.566 4626.952 L -42.566 4626.952 L -42.566 4626.952 L -42.566 4626.952 Z  M 95.46 4628.42 C 95.46 4624.466 92.225 4621.232 88.272 4621.232 C 84.318 4621.232 81.084 4624.466 81.084 4628.42 L 95.46 4628.42 L 95.46 4628.42 L 95.46 4628.42 L 95.46 4628.42 Z  M 37.618 4657.021 L 37.618 4586.859 L 17.572 4586.859 L 17.572 4566.813 L -32.543 4566.813 L -32.543 4606.905 L -32.543 4606.905 L -32.543 4606.905 L -52.589 4606.905 L -52.589 4657.021 Q -52.589 4657.989 -52.589 4658.358 Q -52.589 4661.201 -52.589 4669.17 L -52.589 4669.17 L 107.329 4669.17 L 113.428 4669.17 L 113.428 4664.361 L 113.431 4664.361 L 113.431 4635.608 L 124.213 4635.608 L 88.272 4603.261 L 73.895 4616.2 L 73.895 4606.855 L 63.113 4606.855 L 63.113 4625.904 L 63.113 4625.904 L 63.113 4625.904 L 52.331 4635.608 L 63.113 4635.608 L 63.113 4657.021 L 37.618 4657.021 L 37.618 4657.021 Z " fill-rule="evenodd" fill="rgb(173,255,182)"/></g></svg>