<?xml version="1.0" encoding="UTF-8" standalone="no"?><!-- Generator: Gravit.io --><svg xmlns="http://www.w3.org/2000/svg" xmlns:xlink="http://www.w3.org/1999/xlink" style="isolation:isolate" viewBox="106.5 109.3 603.3 182.8" width="603.3pt" height="182.8pt"><path d=" M 321.469 223.253 C 315.917 230.18 308.622 233.644 299.582 233.644 C 295.799 233.644 292.335 233.005 289.193 231.728 C 286.048 230.451 283.359 228.682 281.123 226.422 C 278.887 224.163 277.143 221.46 275.891 218.316 C 274.638 215.172 274.011 211.709 274.011 207.925 C 274.011 204.192 274.624 200.74 275.854 197.571 C 277.08 194.402 278.824 191.651 281.085 189.318 C 283.344 186.985 286.048 185.167 289.193 183.864 C 292.335 182.563 295.799 181.911 299.582 181.911 C 303.857 181.911 307.811 182.624 311.446 184.049 C 315.082 185.474 318.153 187.954 320.658 191.492 L 312.036 200.187 C 310.661 198.32 309.016 196.822 307.1 195.692 C 305.183 194.562 302.996 193.997 300.541 193.997 C 298.477 193.997 296.635 194.341 295.015 195.029 C 293.393 195.717 292.029 196.675 290.924 197.903 C 289.819 199.132 288.972 200.569 288.382 202.214 C 287.791 203.86 287.496 205.641 287.496 207.556 C 287.496 209.522 287.804 211.341 288.417 213.01 C 289.031 214.68 289.903 216.131 291.034 217.357 C 292.164 218.586 293.527 219.545 295.125 220.232 C 296.72 220.92 298.501 221.263 300.467 221.263 C 303.316 221.263 305.637 220.76 307.431 219.753 C 309.224 218.746 310.98 217.162 312.7 214.999 L 321.469 223.253 Z  M 348.589 221.337 C 350.504 221.337 352.211 220.981 353.71 220.268 C 355.209 219.557 356.474 218.586 357.506 217.357 C 358.537 216.131 359.322 214.68 359.863 213.01 C 360.403 211.341 360.674 209.571 360.674 207.704 C 360.674 205.838 360.403 204.069 359.863 202.398 C 359.322 200.729 358.537 199.279 357.506 198.05 C 356.474 196.822 355.209 195.852 353.71 195.139 C 352.211 194.428 350.504 194.07 348.589 194.07 C 346.672 194.07 344.966 194.428 343.468 195.139 C 341.968 195.852 340.704 196.822 339.671 198.05 C 338.64 199.279 337.855 200.729 337.314 202.398 C 336.773 204.069 336.502 205.838 336.502 207.704 C 336.502 209.571 336.773 211.341 337.314 213.01 C 337.855 214.68 338.64 216.131 339.671 217.357 C 340.704 218.586 341.968 219.557 343.468 220.268 C 344.966 220.981 346.672 221.337 348.589 221.337 Z  M 348.589 233.57 C 344.904 233.57 341.502 232.918 338.382 231.617 C 335.262 230.316 332.56 228.522 330.277 226.238 C 327.991 223.953 326.21 221.227 324.933 218.058 C 323.655 214.889 323.018 211.438 323.018 207.704 C 323.018 203.971 323.655 200.519 324.933 197.35 C 326.21 194.181 327.991 191.455 330.277 189.17 C 332.56 186.886 335.262 185.106 338.382 183.827 C 341.502 182.55 344.904 181.911 348.589 181.911 C 352.274 181.911 355.688 182.55 358.832 183.827 C 361.976 185.106 364.678 186.886 366.938 189.17 C 369.197 191.455 370.965 194.181 372.244 197.35 C 373.522 200.519 374.159 203.971 374.159 207.704 C 374.159 211.438 373.522 214.889 372.244 218.058 C 370.965 221.227 369.197 223.953 366.938 226.238 C 364.678 228.522 361.976 230.316 358.832 231.617 C 355.688 232.918 352.274 233.57 348.589 233.57 Z  M 381.122 183.238 L 393.576 183.238 L 405.515 204.682 L 417.231 183.238 L 429.759 183.238 L 432.044 232.391 L 418.853 232.391 L 417.673 203.577 L 409.052 220.379 L 401.903 220.379 L 392.323 203.577 L 391.365 232.391 L 378.837 232.391 L 381.122 183.238 Z  M 439.724 183.238 L 452.177 183.238 L 464.116 204.682 L 475.832 183.238 L 488.359 183.238 L 490.645 232.391 L 477.453 232.391 L 476.275 203.577 L 467.653 220.379 L 460.504 220.379 L 450.925 203.577 L 449.966 232.391 L 437.439 232.391 L 439.724 183.238 Z  M 496.465 183.238 L 509.508 183.238 L 509.508 212.051 C 509.508 214.754 510.135 216.965 511.387 218.684 C 512.64 220.404 514.715 221.263 517.614 221.263 C 520.512 221.263 522.576 220.392 523.804 218.647 C 525.031 216.904 525.647 214.705 525.647 212.051 L 525.647 183.238 L 538.838 183.238 L 538.838 213.231 C 538.838 216.376 538.322 219.213 537.289 221.742 C 536.258 224.273 534.796 226.422 532.905 228.191 C 531.013 229.959 528.778 231.311 526.199 232.243 C 523.619 233.176 520.783 233.644 517.688 233.644 C 514.593 233.644 511.743 233.176 509.139 232.243 C 506.535 231.311 504.287 229.972 502.397 228.227 C 500.504 226.484 499.043 224.347 498.012 221.816 C 496.981 219.286 496.465 216.425 496.465 213.231 L 496.465 183.238 Z  M 546.156 183.238 L 558.022 183.238 L 576.887 210.652 L 576.887 183.238 L 589.783 183.238 L 589.783 232.391 L 578.655 232.391 L 559.053 204.167 L 559.053 232.391 L 546.156 232.391 L 546.156 183.238 Z  M 597.531 183.238 L 610.575 183.238 L 610.575 232.391 L 597.531 232.391 L 597.531 183.238 Z  M 631.578 194.66 L 616.472 194.66 L 616.472 183.238 L 659.729 183.238 L 659.729 194.66 L 644.77 194.66 L 644.77 232.391 L 631.578 232.391 L 631.578 194.66 Z  M 679.258 212.789 L 661.793 183.238 L 676.752 183.238 L 686.332 200.777 L 695.323 183.238 L 709.84 183.238 L 692.302 212.715 L 692.302 232.391 L 679.258 232.391 L 679.258 212.789 Z  M 276.165 243.944 L 305.684 243.944 L 305.684 250.003 L 282.928 250.003 L 282.928 264.375 L 300.259 264.375 L 300.259 270.363 L 282.928 270.363 L 282.928 290.935 L 276.165 290.935 L 276.165 243.944 Z  M 310.75 243.944 L 317.513 243.944 L 317.513 271.42 C 317.513 273.534 317.701 275.471 318.077 277.232 C 318.452 278.994 319.099 280.508 320.016 281.776 C 320.931 283.044 322.152 284.02 323.678 284.7 C 325.204 285.381 327.142 285.722 329.49 285.722 C 331.792 285.722 333.705 285.381 335.233 284.7 C 336.758 284.02 337.981 283.044 338.897 281.776 C 339.812 280.508 340.457 278.994 340.833 277.232 C 341.208 275.471 341.398 273.534 341.398 271.42 L 341.398 243.944 L 348.16 243.944 L 348.16 273.04 C 348.16 275.717 347.784 278.218 347.033 280.543 C 346.281 282.868 345.143 284.888 343.616 286.602 C 342.089 288.317 340.152 289.667 337.804 290.653 C 335.455 291.64 332.684 292.133 329.49 292.133 C 326.296 292.133 323.526 291.64 321.177 290.653 C 318.828 289.667 316.88 288.317 315.33 286.602 C 313.779 284.888 312.628 282.868 311.877 280.543 C 311.126 278.218 310.75 275.717 310.75 273.04 L 310.75 243.944 Z  M 355.286 243.944 L 362.12 243.944 L 387.764 280.65 L 387.764 243.944 L 394.388 243.944 L 394.388 290.935 L 387.623 290.935 L 361.909 254.159 L 361.909 290.935 L 355.286 290.935 L 355.286 243.944 Z  M 416.777 284.876 C 422.649 284.876 427.216 283.432 430.481 280.543 C 433.745 277.655 435.376 273.37 435.376 267.686 C 435.376 261.956 433.803 257.576 430.656 254.547 C 427.509 251.518 422.813 250.003 416.567 250.003 L 408.042 250.003 L 408.042 284.876 L 416.777 284.876 Z  M 401.277 243.944 L 416.989 243.944 C 420.699 243.944 424.116 244.402 427.239 245.318 C 430.363 246.234 433.052 247.667 435.307 249.615 C 437.561 251.565 439.322 254.019 440.59 256.978 C 441.859 259.937 442.492 263.459 442.492 267.545 C 442.492 271.49 441.859 274.931 440.59 277.866 C 439.322 280.802 437.561 283.245 435.307 285.193 C 433.052 287.143 430.351 288.587 427.204 289.526 C 424.058 290.466 420.628 290.935 416.918 290.935 L 401.277 290.935 L 401.277 243.944 Z  M 166.57 121.381 C 166.57 115.877 168.929 109.312 174.185 109.312 C 177.852 109.312 182.306 115.088 187.558 126.627 C 183.102 132.402 178.373 140.01 173.659 149.462 C 168.929 137.13 166.57 127.944 166.57 121.381 Z  M 167.526 250.416 L 174.321 247.232 C 181.001 266.939 200.241 272.338 218.047 263.067 L 220.808 269.813 C 197.447 283.076 175.729 274.609 167.526 250.416 Z  M 247.374 233.17 C 243.801 240.26 239.085 244.387 231.893 244.387 C 223.756 244.387 219.565 238.945 218.511 232.636 C 214.05 237.891 208.277 239.663 202.248 237.813 C 195.687 235.72 191.231 229.492 191.231 219.524 C 191.231 205.87 198.835 188.563 207.489 181.212 L 203.424 172.216 C 202.928 173.418 199.25 180.605 197.473 183.588 L 192.047 181.242 C 192.047 181.242 195.823 172.929 196.662 171.168 C 204.95 153.614 214.439 137.501 214.439 126.741 C 214.439 122.28 211.343 119.201 208.748 119.132 C 200.611 118.903 188.346 136.607 176.284 162.58 C 166.687 183.108 161.211 197.808 160.378 208.555 L 154.773 210.645 C 147.433 199.985 136.623 191.963 123.557 191.963 C 112.54 191.963 106.504 197.206 106.504 200.896 C 106.504 204.308 109.914 205.616 111.753 206.142 C 127.749 210.343 134.049 223.453 139.028 243.134 C 146.375 271.741 165.269 290.892 192.803 290.892 C 221.392 290.892 248.677 266.228 247.374 233.17 Z  M 208.355 225.362 C 204.99 225.362 202.26 222.641 202.26 219.265 C 202.26 215.91 204.99 213.177 208.355 213.177 C 211.722 213.177 214.444 215.91 214.444 219.265 C 214.444 222.641 211.722 225.362 208.355 225.362 Z  M 223.168 183.022 C 211.845 177.796 198.052 202.73 198.052 219.524 C 198.052 228.448 201.984 231.814 206.702 231.784 C 212.68 231.743 219.099 223.724 223.562 210.593 C 229.07 196.959 228.646 185.556 223.168 183.022 Z  M 234.625 232.123 C 231.601 232.123 229.143 229.67 229.143 226.642 C 229.143 223.616 231.601 221.157 234.625 221.157 C 237.654 221.157 240.109 223.616 240.109 226.642 C 240.109 229.67 237.654 232.123 234.625 232.123 Z  M 242.649 198.007 C 236.879 198.007 229.202 209.81 226.315 221.09 C 224.486 227.391 224.021 237.813 231.893 237.813 C 240.14 237.813 246.837 225.559 248.677 214.531 C 250.251 205.09 247.894 198.007 242.649 198.007 Z  M 229.994 120.797 C 230.323 120.797 230.565 120.716 230.714 120.557 C 230.865 120.396 230.938 120.182 230.938 119.916 C 230.938 119.637 230.859 119.431 230.696 119.29 C 230.539 119.154 230.282 119.083 229.93 119.083 L 228.94 119.083 L 228.94 120.797 L 229.994 120.797 Z  M 227.866 118.188 L 230.042 118.188 C 230.395 118.188 230.695 118.239 230.945 118.34 C 231.195 118.442 231.404 118.57 231.57 118.734 C 231.736 118.89 231.856 119.07 231.931 119.268 C 232.005 119.464 232.041 119.66 232.041 119.853 C 232.041 120.214 231.951 120.543 231.77 120.836 C 231.589 121.131 231.312 121.35 230.938 121.5 L 232.314 123.836 L 231.098 123.836 L 229.835 121.645 L 228.94 121.645 L 228.94 123.836 L 227.866 123.836 L 227.866 118.188 Z  M 229.802 125.547 C 230.431 125.547 231.013 125.434 231.548 125.204 C 232.078 124.975 232.541 124.656 232.93 124.251 C 233.319 123.847 233.623 123.369 233.842 122.82 C 234.062 122.271 234.17 121.684 234.17 121.05 C 234.17 120.424 234.062 119.833 233.842 119.284 C 233.623 118.734 233.319 118.257 232.93 117.852 C 232.541 117.448 232.078 117.128 231.548 116.892 C 231.013 116.656 230.436 116.538 229.817 116.538 C 229.19 116.538 228.607 116.656 228.075 116.892 C 227.54 117.128 227.076 117.448 226.683 117.852 C 226.288 118.257 225.981 118.734 225.762 119.284 C 225.542 119.833 225.435 120.424 225.435 121.05 C 225.435 121.684 225.542 122.271 225.762 122.82 C 225.981 123.369 226.285 123.847 226.673 124.251 C 227.062 124.656 227.525 124.975 228.057 125.204 C 228.592 125.434 229.174 125.547 229.802 125.547 Z  M 229.802 126.62 C 229.022 126.62 228.294 126.475 227.618 126.188 C 226.942 125.901 226.355 125.504 225.858 124.997 C 225.362 124.49 224.969 123.896 224.682 123.221 C 224.395 122.543 224.25 121.814 224.25 121.036 C 224.25 120.256 224.395 119.529 224.682 118.852 C 224.969 118.175 225.362 117.586 225.858 117.084 C 226.355 116.583 226.942 116.186 227.618 115.892 C 228.294 115.6 229.029 115.451 229.817 115.451 C 230.596 115.451 231.321 115.6 231.994 115.892 C 232.666 116.186 233.251 116.583 233.746 117.084 C 234.242 117.586 234.633 118.175 234.922 118.852 C 235.21 119.529 235.355 120.256 235.355 121.036 C 235.355 121.814 235.21 122.543 234.922 123.221 C 234.633 123.896 234.242 124.49 233.746 124.997 C 233.251 125.504 232.662 125.901 231.986 126.188 C 231.309 126.475 230.581 126.62 229.802 126.62 Z " fill-rule="evenodd" fill="rgb(41,41,41)"/></svg>