<?xml version="1.0" encoding="UTF-8" standalone="no"?><!-- Generator: Gravit.io --><svg xmlns="http://www.w3.org/2000/svg" xmlns:xlink="http://www.w3.org/1999/xlink" style="isolation:isolate" viewBox="0 0 24 24" width="24pt" height="24pt"><g><path d=" M 2.492 18.539 L 2.492 15.591 L 2.878 15.591 C 3.212 15.591 3.265 15.595 3.276 15.623 C 3.283 15.641 3.288 16.795 3.288 18.187 C 3.287 19.579 3.294 20.726 3.304 20.736 C 3.313 20.745 7.232 20.75 12.011 20.748 L 20.702 20.742 L 20.702 12.061 L 20.702 3.38 L 19.916 3.37 L 19.131 3.36 L 19.131 2.982 L 19.131 2.605 L 20.319 2.599 L 21.508 2.594 L 21.508 12.041 L 21.508 21.487 L 12 21.487 L 2.492 21.487 L 2.492 18.539 Z  M 8.96 14.373 C 8.824 14.349 8.631 14.279 8.521 14.213 C 8.131 13.979 7.96 13.58 7.96 12.906 C 7.96 12.717 7.966 12.676 7.993 12.665 C 8.01 12.658 8.184 12.653 8.379 12.653 C 8.671 12.653 8.738 12.658 8.764 12.684 C 8.789 12.709 8.796 12.768 8.795 12.97 C 8.795 13.268 8.819 13.366 8.918 13.47 C 9.071 13.631 9.386 13.633 9.544 13.475 C 9.714 13.305 9.718 12.901 9.553 12.573 C 9.458 12.385 9.274 12.174 8.932 11.86 C 8.47 11.435 8.313 11.246 8.166 10.938 C 8.03 10.655 7.995 10.489 7.995 10.133 C 7.995 9.886 8.003 9.794 8.039 9.656 C 8.102 9.411 8.194 9.237 8.34 9.088 C 8.56 8.863 8.858 8.757 9.266 8.757 C 10.071 8.757 10.493 9.187 10.539 10.056 C 10.548 10.223 10.545 10.27 10.52 10.294 C 10.495 10.319 10.422 10.324 10.123 10.322 C 9.921 10.32 9.748 10.314 9.738 10.308 C 9.728 10.302 9.716 10.195 9.711 10.072 C 9.7 9.822 9.665 9.721 9.552 9.626 C 9.477 9.563 9.388 9.544 9.227 9.556 C 9.001 9.572 8.88 9.727 8.862 10.022 C 8.837 10.444 9.011 10.742 9.593 11.276 C 10.169 11.804 10.365 12.078 10.494 12.541 C 10.559 12.77 10.558 13.258 10.494 13.496 C 10.362 13.98 10.064 14.269 9.605 14.357 C 9.459 14.385 9.083 14.394 8.96 14.373 L 8.96 14.373 Z  M 2.492 11.572 L 2.492 8.817 L 3.625 8.817 L 4.758 8.817 L 4.778 8.87 C 4.808 8.949 4.804 9.536 4.772 9.578 C 4.75 9.609 4.677 9.613 4.063 9.618 L 3.38 9.623 L 3.38 10.439 L 3.38 11.255 L 3.92 11.261 C 4.32 11.265 4.463 11.273 4.475 11.291 C 4.484 11.305 4.491 11.474 4.492 11.666 C 4.492 11.932 4.485 12.021 4.465 12.038 C 4.447 12.053 4.257 12.062 3.909 12.066 L 3.38 12.071 L 3.37 13.194 L 3.36 14.316 L 2.926 14.321 L 2.492 14.327 L 2.492 11.572 Z  M 5.215 14.301 C 5.21 14.286 5.208 13.049 5.211 11.551 L 5.216 8.827 L 6.389 8.827 L 7.562 8.827 L 7.562 9.215 L 7.562 9.603 L 6.828 9.613 L 6.094 9.623 L 6.094 10.378 L 6.094 11.133 L 6.675 11.143 L 7.256 11.153 L 7.262 11.518 C 7.266 11.769 7.26 11.891 7.244 11.911 C 7.225 11.933 7.111 11.939 6.652 11.939 L 6.083 11.939 L 6.088 12.729 L 6.094 13.52 L 6.828 13.53 L 7.562 13.54 L 7.562 13.928 L 7.562 14.316 L 6.394 14.321 C 5.47 14.325 5.223 14.321 5.215 14.301 L 5.215 14.301 Z  M 11.703 14.3 C 11.698 14.286 11.692 13.228 11.689 11.949 L 11.684 9.623 L 11.255 9.618 C 10.882 9.613 10.824 9.608 10.801 9.578 C 10.766 9.53 10.766 8.9 10.801 8.852 C 10.825 8.819 10.924 8.817 12.143 8.822 L 13.459 8.827 L 13.459 9.215 L 13.459 9.603 L 13.02 9.613 L 12.581 9.623 L 12.571 11.969 C 12.565 13.26 12.558 14.318 12.556 14.321 C 12.553 14.324 12.362 14.326 12.132 14.326 C 11.816 14.326 11.711 14.32 11.703 14.3 L 11.703 14.3 Z  M 13.243 8.146 C 12.605 8.056 12.26 7.651 12.204 6.93 C 12.179 6.61 12.179 4.038 12.203 3.747 C 12.239 3.333 12.345 3.064 12.559 2.852 C 12.788 2.623 13.063 2.527 13.489 2.526 C 14.158 2.525 14.566 2.816 14.728 3.411 C 14.757 3.518 14.764 3.628 14.764 3.992 L 14.765 4.441 L 14.367 4.441 L 13.969 4.441 L 13.958 4.043 C 13.947 3.62 13.93 3.542 13.83 3.434 C 13.676 3.269 13.327 3.274 13.187 3.444 C 13.07 3.586 13.071 3.56 13.071 5.349 C 13.071 6.688 13.076 7.006 13.099 7.073 C 13.17 7.279 13.302 7.358 13.556 7.345 C 13.685 7.339 13.719 7.329 13.784 7.279 C 13.931 7.167 13.947 7.098 13.959 6.542 L 13.969 6.053 L 14.367 6.053 L 14.765 6.053 L 14.765 6.593 C 14.765 7.046 14.759 7.156 14.729 7.267 C 14.607 7.717 14.328 8.003 13.904 8.112 C 13.755 8.15 13.403 8.168 13.243 8.146 L 13.243 8.146 Z  M 2.492 5.351 L 2.492 2.595 L 2.543 2.582 C 2.571 2.575 2.941 2.574 3.365 2.579 C 4.063 2.588 4.149 2.593 4.291 2.631 C 4.737 2.752 4.976 2.996 5.109 3.466 C 5.154 3.624 5.155 3.632 5.155 5.339 L 5.155 7.052 L 5.109 7.216 C 4.978 7.681 4.724 7.941 4.286 8.055 C 4.178 8.083 4.014 8.09 3.324 8.098 L 2.492 8.107 L 2.492 5.351 Z  M 4.07 7.258 C 4.168 7.21 4.236 7.106 4.267 6.961 C 4.284 6.88 4.289 6.405 4.284 5.277 L 4.278 3.706 L 4.222 3.593 C 4.18 3.508 4.144 3.467 4.079 3.43 C 3.997 3.383 3.973 3.38 3.686 3.38 L 3.38 3.38 L 3.375 5.327 C 3.371 6.871 3.375 7.278 3.395 7.292 C 3.409 7.301 3.549 7.306 3.706 7.303 C 3.937 7.298 4.007 7.289 4.07 7.258 L 4.07 7.258 Z  M 5.492 8.043 C 5.492 7.994 5.658 6.926 5.808 6.012 C 5.825 5.911 5.953 5.108 6.094 4.227 C 6.296 2.957 6.356 2.62 6.383 2.6 C 6.437 2.56 7.579 2.563 7.612 2.603 C 7.639 2.635 7.634 2.607 7.991 4.839 C 8.131 5.72 8.274 6.61 8.307 6.818 C 8.341 7.025 8.4 7.392 8.439 7.633 C 8.477 7.873 8.504 8.077 8.499 8.086 C 8.493 8.096 8.301 8.103 8.071 8.103 C 7.657 8.103 7.653 8.103 7.634 8.057 C 7.624 8.032 7.586 7.814 7.551 7.573 C 7.516 7.331 7.483 7.127 7.478 7.119 C 7.472 7.11 7.24 7.103 6.962 7.103 C 6.581 7.103 6.451 7.11 6.435 7.129 C 6.419 7.15 6.369 7.452 6.293 7.991 C 6.286 8.036 6.271 8.079 6.259 8.088 C 6.246 8.096 6.069 8.103 5.864 8.103 L 5.492 8.103 L 5.492 8.043 Z  M 7.342 6.315 C 7.349 6.297 7.335 6.152 7.311 5.994 C 7.287 5.835 7.202 5.27 7.123 4.737 C 7.043 4.204 6.974 3.754 6.968 3.737 C 6.94 3.654 6.935 3.682 6.643 5.634 C 6.56 6.187 6.548 6.287 6.56 6.318 C 6.57 6.344 6.635 6.349 6.95 6.349 C 7.283 6.349 7.331 6.344 7.342 6.315 Z  M 8.912 8.09 C 8.905 8.082 8.899 6.849 8.899 5.349 C 8.899 3.256 8.905 2.617 8.923 2.599 C 8.959 2.563 9.918 2.564 9.966 2.6 C 10 2.625 10.03 2.723 10.212 3.4 C 10.302 3.739 10.788 5.535 10.815 5.633 C 10.823 5.66 10.84 5.686 10.853 5.691 C 10.872 5.697 10.878 5.344 10.878 4.158 C 10.878 2.655 10.879 2.616 10.917 2.595 C 10.968 2.568 11.531 2.567 11.601 2.594 L 11.653 2.614 L 11.648 5.353 L 11.643 8.093 L 11.212 8.098 C 10.883 8.103 10.777 8.098 10.761 8.078 C 10.744 8.056 10.361 6.656 9.865 4.802 C 9.747 4.363 9.72 4.276 9.704 4.292 C 9.698 4.298 9.694 5.134 9.694 6.15 C 9.695 7.313 9.687 8.017 9.675 8.05 L 9.655 8.103 L 9.29 8.103 C 9.09 8.103 8.92 8.097 8.912 8.09 L 8.912 8.09 Z  M 15.319 8.09 C 15.311 8.082 15.305 6.848 15.305 5.346 C 15.305 2.668 15.306 2.616 15.345 2.595 C 15.37 2.581 15.771 2.574 16.505 2.574 C 17.434 2.574 17.63 2.579 17.649 2.602 C 17.666 2.622 17.671 2.743 17.667 2.995 L 17.662 3.36 L 16.927 3.37 L 16.193 3.38 L 16.193 4.135 L 16.193 4.89 L 16.774 4.9 L 17.356 4.91 L 17.356 5.298 L 17.356 5.685 L 16.774 5.696 L 16.193 5.706 L 16.193 6.502 L 16.193 7.297 L 16.927 7.307 L 17.662 7.318 L 17.662 7.705 L 17.662 8.093 L 16.497 8.098 C 15.857 8.101 15.327 8.097 15.319 8.09 L 15.319 8.09 Z " fill="rgb(57,233,197)"/></g></svg>