<?xml version="1.0" encoding="UTF-8" standalone="no"?><!-- Generator: Gravit.io --><svg xmlns="http://www.w3.org/2000/svg" xmlns:xlink="http://www.w3.org/1999/xlink" style="isolation:isolate" viewBox="0 0 24 24" width="24pt" height="24pt"><g><path d=" M 2.612 17.041 C 2.297 16.953 2.138 16.878 1.838 16.679 C 1.072 16.169 0.514 15.143 0.339 13.92 C 0.101 12.257 0.724 10.46 1.94 9.305 C 2.856 8.435 3.903 8.148 4.948 8.479 C 5.354 8.608 6.027 9.006 5.957 9.076 C 5.944 9.089 5.782 9.042 5.597 8.972 C 5.281 8.852 5.227 8.844 4.72 8.842 C 4.252 8.84 4.143 8.853 3.9 8.936 C 3.228 9.165 2.651 9.534 2.151 10.053 C 1.466 10.765 1.02 11.623 0.797 12.66 C 0.726 12.991 0.706 13.215 0.704 13.72 C 0.701 14.301 0.711 14.396 0.81 14.754 C 0.96 15.29 1.226 15.792 1.544 16.135 C 1.869 16.486 2.165 16.683 2.598 16.836 C 2.901 16.943 2.992 16.956 3.4 16.957 C 3.883 16.959 4.287 16.875 4.651 16.699 C 4.741 16.656 4.821 16.627 4.829 16.635 C 4.866 16.672 4.419 16.894 4.08 17.007 C 3.816 17.095 2.88 17.117 2.612 17.041 L 2.612 17.041 Z  M 2.74 15.779 C 2.456 15.722 2.13 15.58 1.832 15.383 C 1.574 15.213 1.264 14.94 1.329 14.94 C 1.342 14.94 1.476 14.995 1.626 15.063 C 2.621 15.509 3.756 15.322 4.795 14.539 C 5.645 13.899 6.323 12.806 6.632 11.582 C 6.726 11.206 6.738 11.083 6.739 10.46 C 6.74 9.654 6.675 9.328 6.4 8.757 C 6.013 7.954 5.408 7.442 4.601 7.237 C 4.183 7.13 3.567 7.174 3.05 7.346 C 2.824 7.422 2.64 7.478 2.64 7.472 C 2.64 7.466 2.744 7.409 2.87 7.345 C 3.767 6.893 4.762 6.924 5.52 7.429 C 6.631 8.168 7.276 9.701 7.122 11.24 C 7.011 12.354 6.689 13.296 6.131 14.136 C 5.855 14.552 5.314 15.105 4.96 15.333 C 4.653 15.532 4.155 15.732 3.843 15.783 C 3.578 15.826 2.965 15.824 2.74 15.779 L 2.74 15.779 Z  M 2.21 14.76 C 2.077 14.664 2.091 14.536 2.363 13.387 C 2.705 11.94 2.708 11.883 2.438 11.749 C 2.323 11.691 2.298 11.655 2.288 11.531 C 2.264 11.243 2.475 10.98 2.732 10.98 C 2.864 10.98 2.935 10.885 3.037 10.574 C 3.202 10.069 3.556 9.702 4.018 9.554 C 4.149 9.512 4.416 9.483 4.78 9.473 C 5.446 9.453 5.533 9.481 5.552 9.712 C 5.567 9.892 5.461 10.284 5.39 10.31 C 5.363 10.32 5.232 10.31 5.1 10.288 C 4.804 10.239 4.52 10.277 4.382 10.386 C 4.252 10.488 4.111 10.758 4.128 10.873 C 4.139 10.952 4.169 10.962 4.466 10.98 C 4.711 10.995 4.813 11.019 4.876 11.076 C 5.032 11.218 4.948 11.564 4.729 11.674 C 4.669 11.704 4.526 11.739 4.412 11.752 C 4.14 11.783 3.991 11.864 3.907 12.027 C 3.87 12.1 3.767 12.475 3.679 12.86 C 3.312 14.458 3.282 14.563 3.154 14.686 C 3.043 14.792 3.009 14.801 2.667 14.812 C 2.378 14.822 2.281 14.811 2.21 14.76 L 2.21 14.76 Z  M 14.72 14.305 C 14.72 14.285 14.768 14.166 14.826 14.039 L 14.931 13.808 L 14.805 13.552 C 14.735 13.411 14.689 13.278 14.702 13.258 C 14.752 13.177 14.842 13.227 14.92 13.38 C 14.965 13.468 15.015 13.54 15.031 13.54 C 15.047 13.54 15.096 13.473 15.14 13.39 C 15.223 13.235 15.36 13.165 15.36 13.278 C 15.36 13.312 15.253 13.566 15.123 13.841 C 14.932 14.243 14.87 14.34 14.803 14.34 C 14.757 14.34 14.72 14.324 14.72 14.305 L 14.72 14.305 Z  M 12.375 13.989 C 12.115 13.949 12.003 13.53 12.197 13.323 C 12.391 13.116 12.76 13.24 12.76 13.513 C 12.76 13.616 12.752 13.62 12.542 13.62 C 12.301 13.62 12.246 13.66 12.346 13.76 C 12.398 13.812 12.453 13.821 12.586 13.801 C 12.723 13.781 12.76 13.787 12.76 13.833 C 12.76 13.943 12.573 14.019 12.375 13.989 Z  M 12.55 13.45 C 12.541 13.423 12.491 13.4 12.44 13.4 C 12.389 13.4 12.339 13.423 12.33 13.45 C 12.319 13.483 12.356 13.5 12.44 13.5 C 12.524 13.5 12.561 13.483 12.55 13.45 Z  M 13.771 13.988 C 13.645 13.969 13.48 13.757 13.48 13.614 C 13.48 13.375 13.62 13.223 13.843 13.221 C 14.015 13.22 14.16 13.353 14.16 13.513 C 14.16 13.616 14.152 13.62 13.942 13.62 C 13.701 13.62 13.646 13.66 13.746 13.76 C 13.798 13.812 13.853 13.821 13.986 13.801 C 14.123 13.781 14.16 13.787 14.16 13.833 C 14.16 13.944 13.973 14.019 13.771 13.988 Z  M 13.95 13.45 C 13.941 13.423 13.891 13.4 13.84 13.4 C 13.789 13.4 13.739 13.423 13.73 13.45 C 13.719 13.483 13.756 13.5 13.84 13.5 C 13.924 13.5 13.961 13.483 13.95 13.45 Z  M 10.2 13.64 C 10.112 13.449 10.05 13.276 10.062 13.256 C 10.112 13.177 10.203 13.228 10.28 13.38 C 10.325 13.468 10.375 13.54 10.391 13.54 C 10.407 13.54 10.456 13.472 10.5 13.39 C 10.602 13.2 10.681 13.2 10.77 13.39 C 10.809 13.473 10.854 13.54 10.87 13.54 C 10.887 13.54 10.936 13.473 10.98 13.39 C 11.06 13.24 11.2 13.164 11.2 13.27 C 11.2 13.357 10.931 13.956 10.885 13.972 C 10.862 13.979 10.797 13.892 10.739 13.779 C 10.682 13.665 10.622 13.584 10.607 13.599 C 10.592 13.614 10.551 13.701 10.516 13.791 C 10.48 13.882 10.43 13.963 10.405 13.972 C 10.38 13.98 10.288 13.831 10.2 13.64 L 10.2 13.64 Z  M 11.305 13.919 C 11.273 13.835 11.272 13.007 11.304 12.923 C 11.318 12.888 11.363 12.86 11.404 12.86 C 11.467 12.86 11.48 12.89 11.48 13.04 L 11.48 13.22 L 11.632 13.22 C 11.892 13.22 11.94 13.286 11.94 13.647 C 11.94 13.933 11.933 13.96 11.86 13.96 C 11.79 13.96 11.778 13.927 11.76 13.68 C 11.742 13.434 11.73 13.399 11.656 13.388 C 11.533 13.37 11.486 13.455 11.472 13.721 C 11.463 13.903 11.445 13.962 11.395 13.972 C 11.359 13.978 11.319 13.955 11.305 13.919 L 11.305 13.919 Z  M 12.937 13.926 C 12.926 13.897 12.922 13.731 12.928 13.559 L 12.94 13.244 L 13.18 13.242 C 13.394 13.24 13.42 13.249 13.42 13.32 C 13.42 13.383 13.397 13.398 13.313 13.389 C 13.162 13.373 13.08 13.506 13.08 13.769 C 13.08 13.932 13.066 13.98 13.019 13.98 C 12.985 13.98 12.948 13.956 12.937 13.926 L 12.937 13.926 Z  M 15.517 13.863 C 15.327 13.674 15.366 13.401 15.599 13.28 C 15.785 13.184 15.95 13.204 16.083 13.337 C 16.339 13.593 16.176 13.98 15.811 13.98 C 15.668 13.98 15.611 13.957 15.517 13.863 L 15.517 13.863 Z  M 15.937 13.767 C 16.085 13.659 15.99 13.38 15.806 13.38 C 15.706 13.38 15.6 13.506 15.6 13.624 C 15.6 13.796 15.788 13.876 15.937 13.767 Z  M 16.453 13.948 C 16.379 13.902 16.32 13.712 16.32 13.521 C 16.32 13.309 16.351 13.22 16.424 13.22 C 16.487 13.22 16.515 13.32 16.53 13.6 C 16.54 13.793 16.544 13.8 16.66 13.8 C 16.776 13.8 16.78 13.793 16.79 13.6 C 16.796 13.49 16.81 13.359 16.821 13.31 C 16.845 13.206 16.94 13.19 16.976 13.283 C 17.01 13.372 17.005 13.871 16.969 13.925 C 16.936 13.976 16.525 13.994 16.453 13.948 L 16.453 13.948 Z  M 17.617 13.926 C 17.606 13.897 17.602 13.731 17.608 13.557 L 17.62 13.242 L 17.858 13.233 C 17.988 13.227 18.116 13.24 18.141 13.261 C 18.169 13.284 18.23 13.282 18.306 13.253 C 18.576 13.151 18.721 13.306 18.719 13.696 C 18.719 13.911 18.674 14.001 18.584 13.967 C 18.534 13.948 18.52 13.884 18.52 13.68 C 18.52 13.474 18.506 13.412 18.455 13.392 C 18.325 13.343 18.261 13.437 18.24 13.704 C 18.225 13.896 18.205 13.96 18.16 13.96 C 18.115 13.96 18.095 13.896 18.08 13.704 C 18.059 13.437 17.995 13.343 17.865 13.392 C 17.816 13.411 17.8 13.471 17.8 13.635 C 17.8 13.755 17.789 13.882 17.776 13.917 C 17.746 13.994 17.645 14 17.617 13.926 L 17.617 13.926 Z  M 18.844 13.89 C 18.797 13.762 18.864 13.642 19.027 13.565 C 19.204 13.48 19.181 13.396 18.986 13.412 C 18.885 13.42 18.84 13.407 18.84 13.37 C 18.84 13.276 18.931 13.22 19.082 13.22 C 19.289 13.22 19.36 13.315 19.36 13.591 C 19.36 13.714 19.378 13.826 19.4 13.84 C 19.422 13.854 19.44 13.891 19.44 13.922 C 19.44 13.967 19.377 13.98 19.159 13.98 C 18.904 13.98 18.874 13.972 18.844 13.89 L 18.844 13.89 Z  M 19.153 13.747 C 19.16 13.699 19.149 13.66 19.128 13.66 C 19.066 13.66 18.991 13.773 19.02 13.82 C 19.061 13.887 19.138 13.844 19.153 13.747 Z  M 19.665 13.919 C 19.623 13.877 19.6 13.786 19.6 13.657 C 19.6 13.548 19.578 13.423 19.551 13.38 C 19.509 13.313 19.515 13.288 19.589 13.213 C 19.682 13.12 19.692 13.122 19.974 13.268 C 20.031 13.297 20.072 13.284 20.146 13.214 C 20.228 13.137 20.256 13.131 20.321 13.171 C 20.364 13.198 20.426 13.22 20.459 13.22 C 20.559 13.22 20.532 13.373 20.43 13.387 C 20.35 13.399 20.34 13.423 20.34 13.599 C 20.34 13.768 20.352 13.801 20.42 13.812 C 20.59 13.839 20.613 13.857 20.56 13.92 C 20.493 14 20.263 13.996 20.195 13.914 C 20.165 13.878 20.131 13.738 20.12 13.604 L 20.1 13.36 L 19.962 13.371 C 19.802 13.384 19.761 13.431 19.761 13.602 C 19.76 13.748 19.822 13.82 19.951 13.82 C 20.02 13.82 20.042 13.839 20.033 13.89 C 20.014 13.987 19.753 14.008 19.665 13.919 L 19.665 13.919 Z  M 20.764 13.91 C 20.587 13.764 20.59 13.407 20.77 13.282 C 20.974 13.139 21.275 13.253 21.291 13.48 C 21.3 13.597 21.295 13.6 21.1 13.612 C 20.866 13.627 20.805 13.669 20.882 13.763 C 20.924 13.813 20.977 13.823 21.107 13.805 C 21.296 13.779 21.353 13.821 21.258 13.917 C 21.171 14.004 20.873 14 20.764 13.91 L 20.764 13.91 Z  M 21.09 13.44 C 21.075 13.381 20.869 13.392 20.849 13.453 C 20.836 13.491 20.868 13.502 20.966 13.493 C 21.04 13.486 21.096 13.462 21.09 13.44 L 21.09 13.44 Z  M 21.458 13.929 C 21.446 13.898 21.442 13.731 21.448 13.557 L 21.46 13.242 L 21.687 13.233 C 21.842 13.227 21.928 13.242 21.96 13.28 C 22.031 13.365 21.968 13.428 21.84 13.4 C 21.696 13.368 21.666 13.417 21.64 13.72 C 21.624 13.906 21.605 13.962 21.55 13.973 C 21.511 13.98 21.47 13.96 21.458 13.929 L 21.458 13.929 Z  M 9.978 12.26 C 9.912 12.239 9.805 12.168 9.742 12.102 C 9.59 11.944 9.557 11.629 9.671 11.423 C 9.78 11.225 9.972 11.131 10.231 11.151 C 10.475 11.169 10.648 11.302 10.723 11.528 C 10.798 11.755 10.764 11.78 10.384 11.78 C 9.998 11.78 9.93 11.824 10.096 11.967 C 10.222 12.075 10.345 12.084 10.546 12 C 10.728 11.924 10.72 11.922 10.72 12.039 C 10.72 12.102 10.682 12.163 10.616 12.206 C 10.496 12.285 10.154 12.314 9.978 12.26 Z  M 10.372 11.555 C 10.422 11.505 10.315 11.38 10.221 11.38 C 10.115 11.38 9.986 11.486 10.022 11.543 C 10.048 11.585 10.333 11.594 10.372 11.555 L 10.372 11.555 Z  M 11.218 12.227 C 10.998 12.124 10.909 11.976 10.909 11.714 C 10.909 11.368 11.132 11.14 11.472 11.14 C 11.79 11.14 12.04 11.363 12.04 11.648 L 12.04 11.777 L 11.69 11.788 C 11.371 11.799 11.34 11.807 11.34 11.879 C 11.34 12.009 11.541 12.083 11.738 12.024 C 11.989 11.95 12.019 11.953 12.032 12.047 C 12.062 12.254 11.527 12.372 11.218 12.227 L 11.218 12.227 Z  M 11.68 11.528 C 11.68 11.391 11.454 11.327 11.361 11.438 C 11.288 11.527 11.348 11.58 11.522 11.58 C 11.625 11.58 11.68 11.562 11.68 11.528 Z  M 12.491 12.243 C 12.283 12.149 12.193 11.966 12.21 11.669 C 12.222 11.449 12.24 11.401 12.351 11.291 C 12.462 11.18 12.51 11.162 12.737 11.147 L 12.996 11.131 L 13.008 10.885 L 13.02 10.64 L 13.18 10.64 L 13.34 10.64 L 13.351 11.45 L 13.362 12.26 L 13.166 12.26 C 13.059 12.26 12.892 12.269 12.796 12.281 C 12.686 12.293 12.572 12.279 12.491 12.243 L 12.491 12.243 Z  M 12.957 11.963 C 12.985 11.93 12.999 11.811 12.992 11.673 C 12.98 11.441 12.979 11.44 12.847 11.427 C 12.683 11.411 12.609 11.47 12.577 11.64 C 12.553 11.77 12.607 11.93 12.696 11.989 C 12.768 12.038 12.907 12.024 12.957 11.963 Z  M 13.881 12.21 C 13.46 11.994 13.461 11.425 13.883 11.21 C 14.062 11.119 14.345 11.121 14.521 11.215 C 14.922 11.429 14.908 12.022 14.498 12.221 C 14.285 12.324 14.098 12.321 13.881 12.21 L 13.881 12.21 Z  M 14.306 12.001 C 14.481 11.879 14.447 11.443 14.258 11.396 C 14.204 11.382 14.133 11.382 14.099 11.395 C 13.949 11.452 13.926 11.832 14.064 11.985 C 14.146 12.075 14.196 12.079 14.306 12.001 L 14.306 12.001 Z  M 7.985 12.199 C 7.971 12.163 7.96 11.986 7.96 11.806 C 7.96 11.527 7.948 11.467 7.88 11.409 C 7.779 11.323 7.778 11.24 7.877 11.17 C 7.92 11.141 7.967 11.063 7.984 10.998 C 8.05 10.728 8.224 10.604 8.505 10.627 C 8.653 10.639 8.66 10.646 8.66 10.78 C 8.66 10.902 8.646 10.922 8.544 10.94 C 8.481 10.951 8.409 10.991 8.385 11.03 C 8.35 11.086 8.358 11.111 8.43 11.162 C 8.541 11.239 8.544 11.314 8.442 11.41 C 8.376 11.471 8.361 11.546 8.352 11.861 L 8.34 12.24 L 8.175 12.252 C 8.052 12.261 8.004 12.248 7.985 12.199 L 7.985 12.199 Z  M 8.657 12.208 C 8.646 12.179 8.642 11.932 8.649 11.658 L 8.66 11.16 L 8.807 11.148 C 8.923 11.138 8.964 11.153 8.999 11.219 L 9.044 11.303 L 9.147 11.221 C 9.263 11.131 9.439 11.115 9.512 11.188 C 9.575 11.251 9.574 11.447 9.51 11.487 C 9.483 11.505 9.399 11.519 9.325 11.52 C 9.127 11.52 9.028 11.67 9.007 12 L 8.991 12.26 L 8.834 12.26 C 8.742 12.26 8.669 12.238 8.657 12.208 L 8.657 12.208 Z  M 15.049 11.712 L 15.06 11.16 L 15.193 11.147 C 15.266 11.14 15.349 11.154 15.378 11.178 C 15.414 11.209 15.463 11.209 15.538 11.181 C 15.705 11.117 15.875 11.132 16.041 11.226 L 16.193 11.311 L 16.302 11.226 C 16.446 11.112 16.711 11.11 16.853 11.222 C 16.984 11.325 17.04 11.522 17.039 11.88 C 17.039 12.229 17.015 12.269 16.816 12.253 L 16.66 12.24 L 16.648 11.882 C 16.642 11.685 16.617 11.501 16.593 11.472 C 16.57 11.443 16.499 11.42 16.437 11.42 C 16.258 11.42 16.2 11.544 16.2 11.931 L 16.2 12.265 L 16.03 12.252 L 15.86 12.24 L 15.84 11.88 C 15.829 11.682 15.805 11.498 15.788 11.47 C 15.74 11.396 15.542 11.409 15.468 11.491 C 15.422 11.542 15.4 11.659 15.392 11.901 L 15.38 12.24 L 15.209 12.252 L 15.038 12.265 L 15.049 11.712 Z  M 17.257 12.207 C 17.234 12.146 17.422 10.761 17.462 10.696 C 17.487 10.656 17.76 10.645 17.76 10.684 C 17.76 10.745 17.591 11.975 17.566 12.1 C 17.541 12.221 17.52 12.242 17.408 12.253 C 17.323 12.261 17.272 12.245 17.257 12.207 L 17.257 12.207 Z  M 18.052 12.182 C 17.733 11.987 17.798 11.427 18.162 11.239 C 18.526 11.051 18.926 11.291 18.873 11.666 C 18.861 11.755 18.842 11.761 18.53 11.772 C 18.241 11.782 18.2 11.792 18.2 11.857 C 18.2 11.991 18.302 12.032 18.56 12.003 C 18.762 11.98 18.8 11.986 18.8 12.038 C 18.8 12.072 18.764 12.136 18.72 12.18 C 18.61 12.29 18.232 12.291 18.052 12.182 L 18.052 12.182 Z  M 18.544 11.534 C 18.582 11.472 18.449 11.379 18.366 11.41 C 18.286 11.439 18.238 11.505 18.265 11.548 C 18.295 11.597 18.512 11.586 18.544 11.534 Z  M 19.062 12.223 C 19.04 12.187 19.139 11.389 19.183 11.25 C 19.208 11.172 19.417 11.151 19.462 11.223 C 19.491 11.271 19.406 12.03 19.355 12.17 C 19.331 12.236 19.29 12.26 19.203 12.26 C 19.138 12.26 19.074 12.243 19.062 12.223 Z  M 19.666 12.201 C 19.632 12.167 19.617 12.105 19.629 12.057 C 19.649 11.982 19.671 11.975 19.807 11.996 C 20.033 12.033 20.047 11.941 19.844 11.748 C 19.648 11.562 19.637 11.457 19.797 11.297 C 19.889 11.205 19.95 11.18 20.08 11.18 C 20.295 11.18 20.4 11.239 20.4 11.359 C 20.4 11.481 20.352 11.51 20.23 11.464 C 20.175 11.443 20.109 11.442 20.078 11.461 C 20.035 11.488 20.06 11.531 20.191 11.652 C 20.329 11.779 20.36 11.834 20.36 11.951 C 20.36 12.155 20.217 12.26 19.937 12.26 C 19.804 12.26 19.704 12.238 19.666 12.201 L 19.666 12.201 Z  M 20.67 12.187 C 20.638 12.15 20.601 12.089 20.587 12.05 C 20.555 11.96 20.639 11.295 20.69 11.23 C 20.738 11.17 20.948 11.163 20.967 11.222 C 20.975 11.244 20.964 11.404 20.944 11.576 C 20.903 11.923 20.922 12.02 21.032 12.02 C 21.172 12.02 21.272 11.857 21.302 11.58 C 21.318 11.437 21.347 11.289 21.367 11.25 C 21.404 11.178 21.617 11.151 21.655 11.212 C 21.684 11.259 21.558 12.151 21.516 12.204 C 21.496 12.229 21.323 12.249 21.104 12.251 C 20.797 12.254 20.717 12.242 20.67 12.187 L 20.67 12.187 Z  M 21.84 12.173 C 21.84 11.997 21.926 11.358 21.962 11.27 C 22.003 11.17 22.188 11.144 22.272 11.228 C 22.309 11.265 22.331 11.265 22.368 11.228 C 22.439 11.157 22.638 11.168 22.667 11.245 C 22.681 11.28 22.675 11.357 22.655 11.415 C 22.622 11.505 22.597 11.518 22.475 11.508 C 22.29 11.491 22.245 11.551 22.192 11.887 C 22.14 12.21 22.108 12.26 21.955 12.26 C 21.863 12.26 21.84 12.242 21.84 12.173 L 21.84 12.173 Z  M 22.892 12.182 C 22.623 12.018 22.616 11.594 22.879 11.332 C 23.01 11.2 23.055 11.18 23.213 11.18 C 23.314 11.18 23.44 11.2 23.494 11.225 C 23.622 11.283 23.731 11.489 23.714 11.64 L 23.7 11.76 L 23.37 11.772 C 23.081 11.782 23.04 11.792 23.04 11.857 C 23.04 11.982 23.141 12.028 23.388 12.014 C 23.601 12.001 23.619 12.006 23.607 12.08 C 23.587 12.208 23.481 12.26 23.242 12.26 C 23.093 12.26 22.978 12.234 22.892 12.182 L 22.892 12.182 Z  M 23.384 11.534 C 23.423 11.47 23.294 11.384 23.198 11.409 C 23.027 11.454 23.058 11.58 23.24 11.58 C 23.303 11.58 23.368 11.559 23.384 11.534 Z  M 19.263 10.997 C 19.188 10.923 19.188 10.917 19.241 10.817 C 19.265 10.773 19.325 10.74 19.38 10.74 C 19.461 10.74 19.56 10.836 19.56 10.915 C 19.56 10.956 19.432 11.06 19.38 11.06 C 19.35 11.06 19.297 11.032 19.263 10.997 Z " fill="rgb(170,82,140)"/><path d=" M 14.76 14.282 C 14.76 14.246 14.805 14.128 14.861 14.019 L 14.961 13.82 L 14.841 13.581 C 14.705 13.312 14.695 13.26 14.779 13.26 C 14.812 13.26 14.875 13.332 14.92 13.42 C 14.965 13.508 15.019 13.58 15.04 13.58 C 15.062 13.58 15.111 13.514 15.15 13.433 C 15.188 13.352 15.245 13.278 15.276 13.268 C 15.361 13.24 15.31 13.393 15.07 13.884 C 14.874 14.287 14.76 14.433 14.76 14.282 L 14.76 14.282 Z  M 12.237 13.863 C 12.15 13.777 12.12 13.708 12.12 13.6 C 12.12 13.492 12.15 13.423 12.237 13.337 C 12.375 13.199 12.471 13.19 12.615 13.303 C 12.74 13.401 12.761 13.58 12.647 13.58 C 12.598 13.58 12.575 13.552 12.577 13.495 C 12.579 13.449 12.549 13.39 12.51 13.365 C 12.414 13.304 12.3 13.38 12.3 13.505 C 12.3 13.557 12.287 13.62 12.271 13.644 C 12.255 13.668 12.268 13.722 12.298 13.764 C 12.34 13.822 12.398 13.838 12.537 13.833 C 12.729 13.826 12.773 13.869 12.643 13.939 C 12.505 14.012 12.359 13.985 12.237 13.863 L 12.237 13.863 Z  M 13.637 13.863 C 13.469 13.695 13.472 13.468 13.643 13.324 C 13.794 13.196 13.886 13.193 14.016 13.31 C 14.148 13.429 14.168 13.556 14.057 13.572 C 13.993 13.581 13.974 13.563 13.977 13.497 C 13.978 13.449 13.949 13.39 13.91 13.365 C 13.814 13.304 13.7 13.38 13.7 13.505 C 13.7 13.557 13.686 13.622 13.669 13.649 C 13.65 13.678 13.671 13.731 13.722 13.782 C 13.791 13.851 13.835 13.861 13.963 13.839 C 14.144 13.809 14.182 13.878 14.017 13.941 C 13.85 14.005 13.76 13.987 13.637 13.863 L 13.637 13.863 Z  M 15.68 13.952 C 15.534 13.898 15.44 13.765 15.44 13.611 C 15.44 13.147 16.159 13.133 16.172 13.596 C 16.179 13.846 15.914 14.037 15.68 13.952 L 15.68 13.952 Z  M 15.951 13.798 C 16.04 13.736 16.07 13.567 16.009 13.476 C 15.944 13.378 15.804 13.335 15.71 13.385 C 15.538 13.475 15.507 13.647 15.64 13.78 C 15.736 13.876 15.831 13.882 15.951 13.798 Z  M 16.46 13.926 C 16.393 13.876 16.38 13.82 16.38 13.577 C 16.38 13.381 16.396 13.282 16.43 13.27 C 16.466 13.258 16.48 13.316 16.48 13.479 C 16.48 13.751 16.531 13.86 16.657 13.86 C 16.792 13.86 16.834 13.787 16.848 13.528 C 16.866 13.184 16.94 13.249 16.94 13.61 C 16.94 13.912 16.937 13.92 16.84 13.929 C 16.785 13.933 16.695 13.948 16.64 13.961 C 16.58 13.975 16.508 13.961 16.46 13.926 L 16.46 13.926 Z  M 18.897 13.911 C 18.787 13.801 18.854 13.689 19.09 13.589 C 19.281 13.507 19.189 13.311 18.984 13.363 C 18.846 13.397 18.846 13.314 18.984 13.251 C 19.067 13.213 19.108 13.215 19.194 13.263 C 19.284 13.314 19.304 13.358 19.326 13.561 C 19.34 13.693 19.358 13.834 19.366 13.876 C 19.378 13.941 19.352 13.952 19.167 13.959 C 19.026 13.965 18.934 13.948 18.897 13.911 L 18.897 13.911 Z  M 19.184 13.797 C 19.214 13.678 19.162 13.607 19.07 13.642 C 18.97 13.68 18.947 13.791 19.025 13.849 C 19.126 13.922 19.155 13.913 19.184 13.797 Z  M 19.703 13.917 C 19.663 13.877 19.64 13.783 19.64 13.657 C 19.64 13.548 19.618 13.423 19.591 13.38 C 19.55 13.315 19.553 13.29 19.606 13.236 C 19.663 13.18 19.69 13.178 19.816 13.224 C 19.985 13.285 19.998 13.322 19.86 13.356 C 19.768 13.379 19.76 13.4 19.76 13.602 C 19.76 13.814 19.764 13.823 19.88 13.846 C 20.012 13.872 20.035 13.918 19.937 13.956 C 19.835 13.995 19.77 13.984 19.703 13.917 L 19.703 13.917 Z  M 20.26 13.925 C 20.203 13.883 20.177 13.796 20.156 13.575 C 20.121 13.212 20.163 13.139 20.356 13.225 C 20.504 13.29 20.508 13.309 20.39 13.361 C 20.324 13.389 20.297 13.44 20.288 13.548 C 20.271 13.746 20.337 13.86 20.466 13.86 C 20.554 13.86 20.562 13.869 20.52 13.92 C 20.458 13.995 20.358 13.997 20.26 13.925 L 20.26 13.925 Z  M 20.852 13.94 C 20.804 13.92 20.735 13.847 20.699 13.777 C 20.536 13.464 20.818 13.124 21.113 13.276 C 21.296 13.371 21.348 13.58 21.188 13.58 C 21.115 13.58 21.097 13.558 21.098 13.47 C 21.1 13.381 21.08 13.358 20.997 13.348 C 20.874 13.334 20.763 13.439 20.831 13.507 C 20.862 13.538 20.861 13.572 20.827 13.628 C 20.787 13.693 20.795 13.718 20.877 13.785 C 20.954 13.847 21.01 13.859 21.137 13.84 L 21.3 13.816 L 21.206 13.898 C 21.106 13.985 20.996 13.998 20.852 13.94 L 20.852 13.94 Z  M 10.301 13.81 C 10.271 13.739 10.209 13.593 10.163 13.487 C 10.064 13.257 10.065 13.26 10.138 13.26 C 10.17 13.26 10.233 13.342 10.277 13.443 C 10.367 13.647 10.409 13.644 10.511 13.43 C 10.61 13.224 10.668 13.225 10.759 13.437 C 10.802 13.538 10.853 13.62 10.872 13.62 C 10.891 13.62 10.941 13.545 10.983 13.452 C 11.059 13.287 11.16 13.204 11.16 13.307 C 11.16 13.387 10.905 13.94 10.868 13.94 C 10.85 13.94 10.798 13.85 10.752 13.74 C 10.707 13.63 10.652 13.54 10.631 13.54 C 10.61 13.54 10.555 13.63 10.509 13.74 C 10.462 13.85 10.409 13.94 10.39 13.94 C 10.371 13.94 10.331 13.882 10.301 13.81 L 10.301 13.81 Z  M 11.337 13.888 C 11.301 13.792 11.339 12.9 11.38 12.89 C 11.402 12.884 11.429 12.961 11.44 13.06 L 11.46 13.24 L 11.636 13.244 C 11.871 13.249 11.92 13.322 11.92 13.668 C 11.92 13.883 11.907 13.94 11.86 13.94 C 11.813 13.94 11.8 13.885 11.8 13.688 C 11.8 13.431 11.758 13.34 11.638 13.34 C 11.511 13.34 11.44 13.474 11.44 13.713 C 11.44 13.923 11.386 14.015 11.337 13.888 L 11.337 13.888 Z  M 12.96 13.603 C 12.96 13.259 12.971 13.23 13.078 13.298 C 13.115 13.321 13.163 13.315 13.214 13.279 C 13.27 13.239 13.314 13.235 13.367 13.264 C 13.464 13.316 13.417 13.393 13.305 13.365 C 13.156 13.327 13.101 13.4 13.08 13.665 C 13.068 13.813 13.04 13.92 13.01 13.93 C 12.973 13.943 12.96 13.86 12.96 13.603 L 12.96 13.603 Z  M 17.64 13.599 L 17.64 13.251 L 17.741 13.277 C 17.796 13.291 17.877 13.283 17.92 13.26 C 17.979 13.229 18.028 13.233 18.11 13.275 C 18.206 13.325 18.235 13.325 18.331 13.275 C 18.412 13.232 18.461 13.228 18.519 13.26 C 18.64 13.324 18.68 13.432 18.68 13.697 C 18.68 13.886 18.667 13.94 18.62 13.94 C 18.574 13.94 18.56 13.888 18.56 13.708 C 18.56 13.426 18.496 13.317 18.351 13.354 C 18.236 13.383 18.201 13.473 18.201 13.75 C 18.2 14.021 18.135 13.985 18.109 13.699 C 18.086 13.44 18.033 13.34 17.92 13.34 C 17.808 13.34 17.765 13.426 17.752 13.678 C 17.745 13.822 17.72 13.92 17.69 13.93 C 17.653 13.943 17.64 13.859 17.64 13.599 Z  M 21.48 13.597 L 21.48 13.254 L 21.59 13.277 C 21.65 13.289 21.726 13.283 21.758 13.263 C 21.824 13.221 21.96 13.277 21.96 13.346 C 21.96 13.373 21.915 13.381 21.841 13.366 C 21.679 13.334 21.6 13.452 21.6 13.729 C 21.6 13.89 21.586 13.94 21.54 13.94 C 21.491 13.94 21.48 13.875 21.48 13.597 L 21.48 13.597 Z  M 8.05 12.234 C 8.015 12.219 8 12.098 8 11.826 C 8 11.483 7.991 11.434 7.92 11.389 C 7.819 11.326 7.817 11.235 7.915 11.182 C 7.957 11.16 8.003 11.077 8.018 10.997 C 8.05 10.826 8.193 10.679 8.361 10.646 C 8.525 10.613 8.68 10.678 8.68 10.78 C 8.68 10.864 8.663 10.875 8.473 10.917 C 8.325 10.949 8.28 11.097 8.395 11.173 C 8.501 11.244 8.503 11.307 8.4 11.4 C 8.331 11.462 8.32 11.523 8.32 11.842 C 8.32 12.142 8.308 12.216 8.257 12.236 C 8.185 12.263 8.122 12.263 8.05 12.234 L 8.05 12.234 Z  M 8.707 12.233 C 8.692 12.219 8.68 11.976 8.68 11.693 L 8.68 11.18 L 8.819 11.18 C 8.934 11.18 8.963 11.197 8.984 11.28 C 8.997 11.335 9.018 11.38 9.03 11.38 C 9.041 11.38 9.093 11.335 9.144 11.28 C 9.32 11.089 9.605 11.177 9.521 11.397 C 9.485 11.491 9.465 11.501 9.35 11.479 C 9.147 11.441 9.03 11.589 9.008 11.911 C 8.998 12.048 8.972 12.182 8.95 12.21 C 8.908 12.263 8.751 12.278 8.707 12.233 L 8.707 12.233 Z  M 9.923 12.192 C 9.725 12.088 9.627 11.935 9.627 11.732 C 9.627 11.377 9.831 11.18 10.197 11.18 C 10.364 11.18 10.421 11.201 10.537 11.303 C 10.695 11.442 10.771 11.683 10.675 11.744 C 10.645 11.763 10.482 11.779 10.312 11.779 C 10.137 11.78 9.993 11.798 9.978 11.823 C 9.94 11.885 10.107 12.048 10.233 12.072 C 10.292 12.084 10.412 12.068 10.499 12.038 C 10.701 11.968 10.775 12.023 10.649 12.148 C 10.527 12.271 10.118 12.295 9.923 12.192 L 9.923 12.192 Z  M 10.398 11.563 C 10.436 11.517 10.428 11.488 10.363 11.423 C 10.271 11.331 10.193 11.32 10.077 11.381 C 10.002 11.422 9.973 11.54 10.027 11.593 C 10.076 11.643 10.35 11.62 10.398 11.563 Z  M 11.199 12.187 C 10.864 12.01 10.832 11.509 11.141 11.267 C 11.332 11.116 11.758 11.165 11.917 11.356 C 11.994 11.449 12.038 11.686 11.987 11.737 C 11.963 11.761 11.795 11.78 11.609 11.78 C 11.285 11.78 11.275 11.783 11.287 11.87 C 11.295 11.927 11.354 11.986 11.448 12.032 C 11.595 12.104 11.692 12.097 11.93 12 C 11.984 11.978 12 11.991 12 12.058 C 12 12.244 11.471 12.329 11.199 12.187 L 11.199 12.187 Z  M 11.657 11.596 C 11.738 11.565 11.737 11.505 11.654 11.413 C 11.571 11.322 11.449 11.319 11.353 11.406 C 11.268 11.483 11.258 11.565 11.33 11.594 C 11.402 11.623 11.583 11.624 11.657 11.596 L 11.657 11.596 Z  M 12.471 12.196 C 12.177 12.04 12.136 11.525 12.399 11.29 C 12.503 11.196 12.556 11.18 12.756 11.18 C 13.025 11.18 13.04 11.163 13.04 10.857 L 13.04 10.66 L 13.176 10.66 C 13.263 10.66 13.32 10.683 13.336 10.723 C 13.349 10.758 13.36 11.099 13.36 11.481 C 13.36 11.993 13.347 12.184 13.31 12.207 C 13.217 12.267 12.588 12.258 12.471 12.196 L 12.471 12.196 Z  M 12.96 11.98 C 13.049 11.891 13.071 11.593 12.999 11.457 C 12.951 11.368 12.771 11.353 12.667 11.43 C 12.517 11.541 12.516 11.9 12.667 12.01 C 12.766 12.082 12.868 12.072 12.96 11.98 L 12.96 11.98 Z  M 13.885 12.192 C 13.513 12.009 13.508 11.432 13.876 11.242 C 14.049 11.153 14.39 11.162 14.552 11.261 C 14.691 11.345 14.8 11.547 14.8 11.717 C 14.8 12.125 14.288 12.39 13.885 12.192 L 13.885 12.192 Z  M 14.378 11.971 C 14.412 11.922 14.44 11.8 14.44 11.699 C 14.44 11.3 14.062 11.2 13.962 11.573 C 13.917 11.739 13.962 11.971 14.049 12.027 C 14.149 12.09 14.314 12.062 14.378 11.971 Z  M 15.085 12.206 C 15.052 12.167 15.041 11.999 15.049 11.674 L 15.06 11.2 L 15.193 11.187 C 15.266 11.18 15.35 11.195 15.38 11.22 C 15.42 11.253 15.457 11.254 15.515 11.223 C 15.651 11.15 15.938 11.171 16.055 11.263 L 16.161 11.346 L 16.295 11.263 C 16.482 11.147 16.724 11.153 16.868 11.276 C 16.975 11.369 16.981 11.39 16.994 11.793 C 17.006 12.189 17.002 12.214 16.924 12.239 C 16.878 12.253 16.804 12.254 16.76 12.24 C 16.689 12.217 16.68 12.179 16.68 11.886 C 16.68 11.523 16.62 11.38 16.467 11.38 C 16.418 11.38 16.338 11.408 16.289 11.442 C 16.209 11.498 16.2 11.539 16.2 11.837 C 16.2 12.198 16.161 12.277 15.992 12.253 C 15.905 12.241 15.899 12.219 15.88 11.876 C 15.858 11.475 15.812 11.38 15.641 11.38 C 15.452 11.38 15.384 11.505 15.361 11.893 C 15.341 12.23 15.337 12.24 15.237 12.252 C 15.18 12.259 15.112 12.238 15.085 12.206 L 15.085 12.206 Z " fill="rgb(62,80,154)"/></g></svg>