<?xml version="1.0" encoding="UTF-8" standalone="no"?><!-- Generator: Gravit.io --><svg xmlns="http://www.w3.org/2000/svg" xmlns:xlink="http://www.w3.org/1999/xlink" style="isolation:isolate" viewBox="0 0 24 24" width="24pt" height="24pt"><path d=" M 8.744 22.958 C 8.708 22.865 8.534 21.932 8.548 21.908 C 8.556 21.894 8.614 21.883 8.676 21.883 C 8.785 21.883 8.791 21.89 8.826 22.051 C 8.846 22.144 8.872 22.281 8.884 22.356 C 8.914 22.543 8.95 22.552 9.03 22.393 C 9.112 22.233 9.146 22.208 9.25 22.234 C 9.303 22.247 9.348 22.301 9.385 22.395 C 9.419 22.479 9.454 22.523 9.472 22.505 C 9.489 22.488 9.53 22.345 9.564 22.187 L 9.624 21.9 L 9.751 21.889 C 9.821 21.883 9.878 21.892 9.878 21.909 C 9.878 21.998 9.67 22.95 9.645 22.974 C 9.629 22.99 9.557 22.998 9.485 22.993 C 9.371 22.983 9.346 22.965 9.294 22.855 C 9.261 22.785 9.223 22.728 9.21 22.728 C 9.196 22.728 9.154 22.785 9.117 22.855 C 9.057 22.967 9.033 22.983 8.905 22.992 C 8.809 22.999 8.755 22.988 8.744 22.958 L 8.744 22.958 Z  M 10.605 22.951 C 10.176 22.759 10.151 22.156 10.563 21.946 C 10.865 21.792 11.232 21.928 11.35 22.237 C 11.527 22.7 11.056 23.152 10.605 22.951 Z  M 11.021 22.66 C 11.165 22.525 11.159 22.298 11.008 22.199 C 10.874 22.111 10.722 22.132 10.613 22.253 C 10.497 22.383 10.496 22.491 10.608 22.624 C 10.716 22.752 10.904 22.768 11.021 22.66 L 11.021 22.66 Z  M 11.855 22.957 C 11.845 22.932 11.842 22.684 11.847 22.405 L 11.856 21.9 L 12.182 21.89 C 12.507 21.88 12.509 21.881 12.613 21.986 C 12.7 22.072 12.719 22.118 12.719 22.244 C 12.719 22.344 12.695 22.43 12.649 22.494 L 12.58 22.592 L 12.649 22.749 C 12.746 22.968 12.74 22.999 12.601 22.999 C 12.494 22.999 12.475 22.984 12.4 22.834 C 12.264 22.567 12.12 22.562 12.103 22.824 C 12.093 22.975 12.088 22.982 11.983 22.992 C 11.913 22.999 11.866 22.986 11.855 22.957 L 11.855 22.957 Z  M 12.383 22.355 C 12.533 22.275 12.41 22.104 12.218 22.126 C 12.146 22.134 12.125 22.156 12.116 22.234 C 12.099 22.377 12.231 22.436 12.383 22.355 Z  M 13.25 22.978 C 13.237 22.964 13.226 22.713 13.226 22.418 L 13.226 21.883 L 13.344 21.883 C 13.459 21.883 13.463 21.887 13.463 22.009 C 13.464 22.231 13.503 22.238 13.679 22.052 C 13.825 21.898 13.853 21.883 13.989 21.883 C 14.072 21.883 14.139 21.892 14.139 21.904 C 14.139 21.916 14.071 22.006 13.987 22.104 C 13.903 22.202 13.835 22.299 13.835 22.32 C 13.835 22.34 13.904 22.486 13.99 22.643 C 14.075 22.8 14.135 22.945 14.123 22.964 C 14.089 23.019 13.916 23.005 13.864 22.943 C 13.839 22.913 13.78 22.819 13.733 22.734 C 13.687 22.65 13.631 22.575 13.609 22.568 C 13.555 22.551 13.488 22.681 13.465 22.847 C 13.449 22.96 13.432 22.983 13.36 22.992 C 13.313 22.997 13.263 22.991 13.25 22.978 L 13.25 22.978 Z  M 14.755 22.96 C 14.619 22.921 14.585 22.849 14.663 22.762 C 14.713 22.707 14.752 22.7 14.937 22.718 C 15.119 22.735 15.156 22.729 15.174 22.681 C 15.203 22.604 15.194 22.599 14.982 22.559 C 14.759 22.517 14.64 22.435 14.6 22.295 C 14.532 22.058 14.714 21.883 15.027 21.883 C 15.367 21.883 15.496 21.975 15.378 22.136 C 15.337 22.192 15.318 22.194 15.183 22.157 C 15.074 22.126 15.009 22.125 14.939 22.151 C 14.794 22.206 14.848 22.265 15.089 22.313 C 15.245 22.344 15.327 22.38 15.382 22.442 C 15.465 22.537 15.483 22.719 15.422 22.835 C 15.345 22.977 15.023 23.038 14.755 22.96 L 14.755 22.96 Z  M 2.528 20.575 C 2.515 20.563 2.505 20.144 2.505 19.646 L 2.505 18.739 L 2.589 18.718 C 2.634 18.706 2.869 18.702 3.11 18.709 C 3.533 18.72 3.552 18.724 3.691 18.822 C 4.026 19.059 4.073 19.546 3.785 19.807 C 3.644 19.934 3.542 19.969 3.249 19.987 L 2.962 20.006 L 2.953 20.225 C 2.938 20.595 2.937 20.597 2.73 20.597 C 2.631 20.597 2.54 20.587 2.527 20.575 L 2.528 20.575 Z  M 3.503 19.47 C 3.572 19.372 3.566 19.291 3.484 19.209 C 3.426 19.151 3.38 19.142 3.188 19.15 L 2.962 19.16 L 2.951 19.353 L 2.941 19.545 L 3.087 19.555 C 3.324 19.573 3.45 19.547 3.503 19.47 L 3.503 19.47 Z  M 5.345 20.546 C 5.261 20.52 5.127 20.443 5.048 20.375 C 4.632 20.02 4.604 19.373 4.989 19 C 5.41 18.591 6.108 18.654 6.424 19.13 C 6.922 19.882 6.213 20.813 5.345 20.546 L 5.345 20.546 Z  M 5.924 20.081 C 6.249 19.864 6.227 19.402 5.883 19.218 C 5.635 19.085 5.395 19.155 5.219 19.413 C 5.009 19.722 5.261 20.158 5.65 20.158 C 5.759 20.158 5.845 20.134 5.924 20.081 L 5.924 20.081 Z  M 7.362 20.544 C 7.35 20.515 7.341 20.106 7.341 19.635 C 7.341 18.924 7.35 18.773 7.391 18.738 C 7.426 18.709 7.575 18.7 7.909 18.709 C 8.356 18.72 8.385 18.725 8.52 18.815 C 8.861 19.041 8.92 19.442 8.66 19.769 C 8.584 19.865 8.569 19.908 8.592 19.966 C 8.608 20.006 8.668 20.153 8.726 20.291 C 8.785 20.434 8.818 20.555 8.801 20.572 C 8.785 20.588 8.684 20.597 8.576 20.591 L 8.381 20.581 L 8.258 20.293 L 8.135 20.006 L 7.967 20.006 L 7.798 20.006 L 7.789 20.225 C 7.775 20.595 7.773 20.597 7.564 20.597 C 7.43 20.597 7.377 20.584 7.362 20.544 L 7.362 20.544 Z  M 8.328 19.493 C 8.41 19.419 8.406 19.295 8.321 19.209 C 8.262 19.151 8.216 19.142 8.025 19.15 L 7.798 19.16 L 7.788 19.355 L 7.778 19.549 L 8.022 19.549 C 8.202 19.549 8.282 19.534 8.328 19.493 L 8.328 19.493 Z  M 10.124 20.542 C 10.045 20.514 9.905 20.423 9.813 20.34 C 9.439 20.003 9.402 19.428 9.731 19.044 C 10.01 18.719 10.478 18.625 10.866 18.816 C 10.973 18.868 11.092 18.951 11.131 19.001 L 11.202 19.092 L 11.073 19.202 C 11.001 19.262 10.926 19.312 10.904 19.312 C 10.883 19.312 10.799 19.274 10.718 19.228 C 10.543 19.128 10.376 19.12 10.215 19.206 C 9.746 19.455 9.923 20.157 10.456 20.158 C 10.567 20.158 10.649 20.133 10.737 20.073 C 10.806 20.027 10.871 19.989 10.884 19.989 C 10.945 19.989 11.163 20.175 11.163 20.228 C 11.163 20.311 10.945 20.483 10.761 20.546 C 10.573 20.61 10.312 20.608 10.124 20.542 L 10.124 20.542 Z  M 11.99 20.555 C 11.981 20.531 11.978 20.109 11.983 19.616 L 11.992 18.72 L 12.6 18.711 C 12.935 18.706 13.244 18.71 13.287 18.72 C 13.358 18.738 13.364 18.755 13.354 18.933 L 13.344 19.126 L 12.88 19.136 L 12.415 19.145 L 12.393 19.234 C 12.356 19.38 12.415 19.429 12.637 19.441 C 12.858 19.453 12.887 19.477 12.887 19.657 C 12.888 19.831 12.819 19.887 12.6 19.887 C 12.449 19.887 12.415 19.898 12.397 19.955 C 12.386 19.992 12.386 20.053 12.397 20.09 C 12.417 20.153 12.449 20.158 12.852 20.158 C 13.352 20.158 13.371 20.167 13.355 20.417 L 13.344 20.581 L 12.676 20.59 C 12.155 20.597 12.003 20.589 11.99 20.555 L 11.99 20.555 Z  M 14.16 20.545 C 14.149 20.515 14.139 20.106 14.139 19.635 C 14.139 18.667 14.132 18.693 14.399 18.71 L 14.562 18.72 L 14.579 19.431 L 14.596 20.141 L 15.002 20.158 L 15.407 20.175 L 15.407 20.378 L 15.407 20.581 L 14.794 20.59 C 14.257 20.598 14.178 20.592 14.16 20.545 L 14.16 20.545 Z  M 16.186 20.564 C 16.161 20.525 16.687 18.903 16.765 18.78 C 16.806 18.714 16.841 18.704 17.027 18.704 C 17.162 18.704 17.256 18.72 17.279 18.747 C 17.337 18.818 17.896 20.507 17.877 20.556 C 17.865 20.588 17.803 20.598 17.667 20.591 L 17.474 20.581 L 17.393 20.378 C 17.348 20.266 17.294 20.164 17.273 20.15 C 17.22 20.116 16.839 20.118 16.785 20.152 C 16.762 20.167 16.708 20.27 16.665 20.38 L 16.587 20.581 L 16.398 20.591 C 16.288 20.596 16.199 20.585 16.186 20.564 L 16.186 20.564 Z  M 17.13 19.688 C 17.15 19.655 17.089 19.449 17.044 19.399 C 17.008 19.36 16.901 19.607 16.926 19.671 C 16.946 19.723 17.1 19.736 17.13 19.688 Z  M 18.653 20.555 C 18.643 20.531 18.64 20.109 18.645 19.616 L 18.654 18.72 L 18.822 18.71 C 18.952 18.702 19 18.713 19.033 18.759 C 19.066 18.803 19.077 19.027 19.077 19.654 C 19.077 20.114 19.068 20.515 19.056 20.544 C 19.03 20.612 18.678 20.621 18.653 20.555 L 18.653 20.555 Z  M 19.972 20.556 C 19.963 20.532 19.959 20.109 19.964 19.616 L 19.973 18.72 L 20.148 18.71 L 20.324 18.7 L 20.456 18.879 C 20.528 18.978 20.691 19.208 20.816 19.391 C 20.942 19.573 21.055 19.713 21.067 19.701 C 21.079 19.689 21.097 19.463 21.106 19.2 L 21.123 18.72 L 21.309 18.72 L 21.495 18.72 L 21.495 19.651 L 21.495 20.581 L 21.332 20.591 C 21.238 20.597 21.147 20.584 21.119 20.56 C 21.092 20.538 20.939 20.328 20.778 20.093 C 20.439 19.597 20.439 19.596 20.405 19.63 C 20.391 19.644 20.371 19.864 20.362 20.118 L 20.345 20.581 L 20.167 20.591 C 20.043 20.598 19.984 20.587 19.972 20.556 L 19.972 20.556 Z  M 8.973 17.548 C 8.915 17.49 8.914 16.536 8.971 16.478 C 9.024 16.426 9.418 16.428 9.57 16.482 C 9.806 16.564 9.889 16.819 9.759 17.059 C 9.696 17.176 9.696 17.184 9.755 17.348 C 9.822 17.534 9.809 17.588 9.698 17.587 C 9.589 17.586 9.552 17.552 9.489 17.394 C 9.39 17.147 9.211 17.158 9.195 17.413 C 9.186 17.553 9.175 17.572 9.1 17.58 C 9.053 17.586 8.996 17.571 8.973 17.548 L 8.973 17.548 Z  M 9.536 16.898 C 9.622 16.795 9.484 16.687 9.298 16.714 C 9.218 16.725 9.18 16.807 9.214 16.896 C 9.239 16.96 9.484 16.961 9.536 16.898 L 9.536 16.898 Z  M 10.568 17.523 C 10.357 17.427 10.267 17.277 10.267 17.023 C 10.267 16.864 10.284 16.792 10.337 16.719 C 10.594 16.373 11.048 16.384 11.292 16.743 C 11.359 16.841 11.37 16.892 11.358 17.055 C 11.342 17.282 11.269 17.4 11.075 17.511 C 10.914 17.603 10.752 17.607 10.568 17.523 L 10.568 17.523 Z  M 11.012 17.234 C 11.2 17.046 11.072 16.728 10.81 16.728 C 10.543 16.728 10.415 17.053 10.61 17.234 C 10.73 17.345 10.901 17.345 11.012 17.234 L 11.012 17.234 Z  M 12.066 17.566 C 12.053 17.553 12.042 17.458 12.042 17.356 C 12.042 17.191 12.02 17.129 11.852 16.833 C 11.701 16.566 11.672 16.491 11.708 16.467 C 11.811 16.4 11.922 16.452 12.025 16.615 C 12.081 16.703 12.142 16.774 12.161 16.773 C 12.179 16.773 12.24 16.701 12.296 16.613 C 12.367 16.503 12.423 16.452 12.482 16.446 C 12.668 16.426 12.667 16.478 12.476 16.813 C 12.323 17.083 12.293 17.163 12.279 17.35 C 12.263 17.556 12.256 17.571 12.176 17.581 C 12.129 17.586 12.08 17.58 12.066 17.566 L 12.066 17.566 Z  M 12.867 17.54 C 12.843 17.476 13.146 16.556 13.214 16.488 C 13.268 16.434 13.419 16.422 13.488 16.466 C 13.542 16.499 13.875 17.487 13.853 17.545 C 13.844 17.568 13.791 17.587 13.735 17.587 C 13.65 17.587 13.622 17.566 13.573 17.461 C 13.518 17.344 13.501 17.333 13.356 17.324 C 13.205 17.314 13.197 17.318 13.137 17.442 C 13.09 17.538 13.05 17.573 12.981 17.581 C 12.921 17.588 12.88 17.574 12.867 17.54 L 12.867 17.54 Z  M 13.395 16.979 C 13.395 16.942 13.381 16.911 13.363 16.911 C 13.318 16.911 13.286 16.973 13.311 17.013 C 13.346 17.07 13.395 17.05 13.395 16.979 L 13.395 16.979 Z  M 14.366 17.566 C 14.353 17.553 14.342 17.303 14.342 17.011 C 14.342 16.549 14.349 16.476 14.398 16.457 C 14.428 16.446 14.481 16.445 14.516 16.456 C 14.572 16.474 14.579 16.515 14.579 16.854 C 14.58 17.062 14.591 17.251 14.606 17.273 C 14.62 17.295 14.728 17.318 14.85 17.324 L 15.069 17.334 L 15.069 17.452 L 15.069 17.571 L 14.729 17.58 C 14.542 17.585 14.379 17.579 14.366 17.566 L 14.366 17.566 Z  M 7.565 14.084 C 7.527 13.987 7.542 4.739 7.579 4.431 C 7.681 3.6 8.005 2.954 8.642 2.313 C 9.172 1.778 9.671 1.466 10.362 1.236 C 10.976 1.032 11.203 0.998 11.975 1 C 12.603 1.001 12.703 1.01 13.048 1.091 C 13.971 1.309 14.723 1.728 15.327 2.359 C 15.931 2.991 16.264 3.711 16.337 4.546 C 16.373 4.952 16.386 13.992 16.351 14.084 C 16.332 14.133 15.914 14.138 11.958 14.138 C 8.002 14.138 7.583 14.133 7.565 14.084 L 7.565 14.084 Z  M 11.56 9.445 L 11.552 5.463 L 9.929 5.463 L 8.305 5.463 L 8.296 9.403 C 8.292 11.57 8.295 13.362 8.304 13.385 C 8.316 13.418 8.676 13.428 9.944 13.428 L 11.569 13.428 L 11.56 9.445 Z  M 15.61 9.437 L 15.61 5.463 L 13.987 5.463 L 12.364 5.463 L 12.355 9.446 L 12.346 13.428 L 13.978 13.419 L 15.61 13.411 L 15.61 9.437 Z  M 15.602 4.516 C 15.597 4.404 15.561 4.206 15.522 4.076 C 15.12 2.73 13.785 1.787 12.161 1.704 C 10.61 1.624 9.154 2.405 8.557 3.637 C 8.374 4.014 8.232 4.635 8.311 4.713 C 8.323 4.726 9.971 4.732 11.972 4.727 L 15.61 4.719 L 15.602 4.516 Z " fill="rgb(58,58,58)"/></svg>