<?xml version="1.0" encoding="UTF-8" standalone="no"?><!-- Generator: Gravit.io --><svg xmlns="http://www.w3.org/2000/svg" xmlns:xlink="http://www.w3.org/1999/xlink" style="isolation:isolate" viewBox="0 0 24 24" width="24pt" height="24pt"><path d=" M 1.843 16.107 L 1.768 16.094 L 1.762 15.816 C 1.753 15.421 1.743 15.44 1.955 15.447 C 2.126 15.453 2.131 15.455 2.131 15.507 C 2.131 15.554 2.121 15.561 2.042 15.567 C 1.89 15.578 1.852 15.699 2 15.699 C 2.106 15.699 2.141 15.718 2.141 15.775 C 2.141 15.828 2.114 15.841 1.981 15.853 C 1.926 15.858 1.917 15.867 1.917 15.923 C 1.917 15.984 1.922 15.987 2.024 15.998 C 2.114 16.007 2.132 16.016 2.137 16.056 C 2.144 16.099 2.135 16.104 2.059 16.104 C 2.012 16.104 1.961 16.108 1.946 16.112 C 1.93 16.116 1.884 16.114 1.843 16.107 L 1.843 16.107 Z  M 13.885 16.104 C 13.817 16.076 13.759 15.98 13.786 15.938 C 13.82 15.883 13.85 15.885 13.906 15.945 C 13.972 16.016 14.05 16.003 14.05 15.921 C 14.05 15.881 14.03 15.86 13.97 15.833 C 13.837 15.773 13.794 15.723 13.794 15.629 C 13.794 15.521 13.886 15.421 13.986 15.421 C 14.053 15.421 14.178 15.518 14.178 15.57 C 14.178 15.614 14.109 15.62 14.044 15.581 C 13.982 15.545 13.978 15.545 13.952 15.58 C 13.912 15.635 13.934 15.668 14.04 15.709 C 14.149 15.75 14.199 15.81 14.199 15.897 C 14.199 16.062 14.04 16.166 13.885 16.104 L 13.885 16.104 Z  M 15.144 16.111 C 15.118 16.106 15.077 16.076 15.052 16.046 C 15.013 15.995 15.009 15.965 15.015 15.722 L 15.021 15.453 L 15.074 15.453 C 15.127 15.453 15.127 15.455 15.139 15.683 C 15.148 15.861 15.159 15.921 15.188 15.95 C 15.216 15.978 15.233 15.981 15.261 15.963 C 15.291 15.944 15.299 15.902 15.303 15.739 C 15.311 15.463 15.318 15.438 15.39 15.447 L 15.447 15.453 L 15.454 15.677 C 15.463 15.963 15.438 16.055 15.34 16.095 C 15.268 16.125 15.234 16.128 15.144 16.111 L 15.144 16.111 Z  M 17.795 16.11 C 17.721 16.092 17.61 15.995 17.579 15.921 C 17.507 15.748 17.582 15.547 17.748 15.466 C 17.85 15.417 17.975 15.408 18.047 15.445 C 18.114 15.48 18.211 15.574 18.211 15.605 C 18.211 15.655 18.13 15.659 18.042 15.614 C 17.94 15.562 17.889 15.56 17.806 15.603 C 17.765 15.624 17.736 15.661 17.723 15.71 C 17.692 15.821 17.728 15.904 17.829 15.956 C 17.906 15.995 17.917 15.996 17.977 15.965 C 18.012 15.947 18.04 15.925 18.04 15.915 C 18.04 15.906 17.995 15.889 17.939 15.878 C 17.858 15.863 17.838 15.85 17.838 15.816 C 17.838 15.777 17.854 15.773 18.046 15.767 C 18.203 15.763 18.254 15.768 18.256 15.789 C 18.276 16.006 18.041 16.17 17.795 16.11 L 17.795 16.11 Z  M 19.15 16.108 L 19.075 16.094 L 19.069 15.816 C 19.061 15.421 19.05 15.44 19.263 15.447 C 19.434 15.453 19.438 15.455 19.438 15.507 C 19.438 15.554 19.428 15.561 19.349 15.567 C 19.252 15.574 19.206 15.61 19.227 15.664 C 19.236 15.688 19.266 15.699 19.321 15.699 C 19.49 15.699 19.488 15.829 19.319 15.848 C 19.251 15.856 19.223 15.869 19.218 15.897 C 19.206 15.959 19.255 15.998 19.346 15.998 C 19.429 15.998 19.477 16.043 19.436 16.083 C 19.408 16.109 19.237 16.124 19.15 16.108 L 19.15 16.108 Z  M 20.505 16.111 C 20.373 16.076 20.26 15.918 20.26 15.77 C 20.261 15.536 20.531 15.356 20.744 15.447 C 20.878 15.503 20.985 15.652 20.985 15.78 C 20.985 15.868 20.903 16.014 20.825 16.062 C 20.753 16.106 20.584 16.133 20.505 16.111 Z  M 20.729 15.945 C 20.802 15.907 20.847 15.793 20.818 15.718 C 20.754 15.551 20.519 15.527 20.44 15.679 C 20.402 15.753 20.402 15.8 20.439 15.867 C 20.496 15.969 20.618 16.002 20.729 15.945 L 20.729 15.945 Z  M 23.275 16.111 C 23.224 16.101 23.141 16.01 23.141 15.965 C 23.141 15.951 23.156 15.927 23.174 15.912 C 23.201 15.889 23.217 15.894 23.268 15.943 C 23.343 16.015 23.418 16.003 23.418 15.92 C 23.418 15.878 23.399 15.859 23.323 15.825 C 23.209 15.775 23.162 15.714 23.162 15.618 C 23.162 15.521 23.26 15.421 23.354 15.421 C 23.428 15.421 23.557 15.528 23.541 15.576 C 23.527 15.618 23.44 15.621 23.397 15.581 C 23.349 15.538 23.312 15.556 23.312 15.621 C 23.312 15.657 23.332 15.676 23.39 15.697 C 23.433 15.713 23.491 15.748 23.518 15.775 C 23.611 15.868 23.564 16.058 23.437 16.102 C 23.368 16.126 23.358 16.127 23.275 16.111 L 23.275 16.111 Z  M 0.638 16.068 C 0.54 15.823 0.434 15.517 0.434 15.483 C 0.434 15.449 0.446 15.441 0.492 15.447 C 0.555 15.454 0.572 15.48 0.649 15.684 C 0.705 15.832 0.721 15.825 0.796 15.607 C 0.844 15.471 0.857 15.453 0.909 15.447 C 0.945 15.443 0.972 15.452 0.979 15.469 C 0.985 15.486 0.94 15.633 0.877 15.796 C 0.775 16.067 0.759 16.094 0.709 16.1 C 0.671 16.105 0.648 16.094 0.638 16.068 Z  M 3.073 16.09 C 3.065 16.082 3.059 15.968 3.059 15.836 L 3.059 15.596 L 2.993 15.573 C 2.942 15.556 2.929 15.54 2.935 15.502 C 2.941 15.456 2.95 15.453 3.134 15.453 C 3.323 15.453 3.326 15.454 3.326 15.506 C 3.326 15.544 3.311 15.562 3.272 15.571 C 3.22 15.583 3.219 15.589 3.214 15.796 C 3.207 16.071 3.199 16.104 3.137 16.104 C 3.11 16.104 3.081 16.098 3.073 16.09 L 3.073 16.09 Z  M 4.131 15.779 L 4.137 15.453 L 4.314 15.447 L 4.492 15.441 L 4.485 15.5 C 4.479 15.554 4.468 15.561 4.382 15.571 C 4.296 15.58 4.285 15.588 4.279 15.64 C 4.273 15.694 4.278 15.699 4.347 15.699 C 4.453 15.699 4.489 15.718 4.489 15.773 C 4.489 15.829 4.453 15.848 4.347 15.848 C 4.276 15.848 4.273 15.851 4.279 15.918 C 4.286 15.983 4.292 15.988 4.382 15.998 C 4.462 16.006 4.479 16.017 4.485 16.056 C 4.492 16.103 4.486 16.104 4.308 16.104 L 4.125 16.104 L 4.131 15.779 Z  M 5.352 16.078 C 5.346 16.062 5.344 15.915 5.347 15.751 L 5.353 15.453 L 5.49 15.447 C 5.655 15.439 5.739 15.47 5.783 15.555 C 5.826 15.638 5.807 15.733 5.732 15.811 L 5.674 15.871 L 5.732 15.974 C 5.795 16.087 5.791 16.104 5.704 16.104 C 5.656 16.104 5.632 16.084 5.579 15.998 C 5.543 15.939 5.504 15.891 5.493 15.891 C 5.482 15.891 5.47 15.936 5.466 15.992 C 5.461 16.079 5.453 16.095 5.412 16.1 C 5.385 16.104 5.359 16.094 5.352 16.078 L 5.352 16.078 Z  M 5.62 15.72 C 5.67 15.67 5.672 15.656 5.635 15.605 C 5.616 15.58 5.586 15.569 5.544 15.574 C 5.493 15.58 5.48 15.593 5.474 15.642 C 5.47 15.675 5.473 15.716 5.479 15.733 C 5.496 15.776 5.57 15.77 5.62 15.72 L 5.62 15.72 Z  M 6.628 15.779 C 6.634 15.454 6.634 15.453 6.685 15.446 C 6.713 15.442 6.744 15.452 6.754 15.467 C 6.774 15.5 6.779 16.019 6.759 16.071 C 6.752 16.091 6.721 16.104 6.684 16.104 L 6.622 16.104 L 6.628 15.779 Z  M 7.597 16.072 C 7.577 16.019 7.581 15.5 7.602 15.468 C 7.612 15.452 7.647 15.442 7.681 15.446 C 7.73 15.452 7.764 15.484 7.846 15.603 C 7.902 15.685 7.96 15.752 7.974 15.752 C 7.99 15.752 8.003 15.699 8.01 15.603 C 8.02 15.459 8.023 15.453 8.079 15.447 C 8.156 15.438 8.163 15.471 8.155 15.816 L 8.149 16.094 L 8.08 16.1 C 8.015 16.107 8.005 16.097 7.901 15.934 C 7.841 15.839 7.781 15.765 7.767 15.769 C 7.754 15.773 7.739 15.846 7.733 15.935 C 7.722 16.087 7.72 16.094 7.666 16.1 C 7.63 16.104 7.605 16.094 7.597 16.072 L 7.597 16.072 Z  M 8.92 16.087 C 8.911 16.074 9.044 15.726 9.156 15.468 C 9.163 15.452 9.194 15.443 9.232 15.447 C 9.293 15.453 9.301 15.467 9.419 15.763 C 9.487 15.933 9.538 16.079 9.533 16.088 C 9.527 16.097 9.497 16.104 9.465 16.104 C 9.423 16.104 9.396 16.086 9.369 16.04 C 9.335 15.983 9.32 15.976 9.227 15.976 C 9.136 15.976 9.117 15.984 9.077 16.04 C 9.033 16.102 8.945 16.128 8.92 16.087 Z  M 9.259 15.784 C 9.259 15.718 9.214 15.706 9.183 15.764 C 9.163 15.801 9.164 15.815 9.187 15.829 C 9.231 15.857 9.259 15.839 9.259 15.784 L 9.259 15.784 Z  M 10.32 15.78 L 10.326 15.453 L 10.463 15.447 C 10.626 15.439 10.711 15.47 10.753 15.551 C 10.801 15.644 10.791 15.711 10.716 15.796 L 10.648 15.874 L 10.706 15.976 C 10.737 16.033 10.763 16.084 10.763 16.091 C 10.763 16.098 10.729 16.104 10.688 16.104 C 10.622 16.104 10.606 16.093 10.555 16.008 C 10.523 15.955 10.487 15.915 10.475 15.919 C 10.463 15.923 10.449 15.964 10.443 16.01 C 10.434 16.082 10.424 16.095 10.373 16.1 L 10.314 16.107 L 10.32 15.78 Z  M 10.559 15.75 C 10.662 15.71 10.638 15.571 10.529 15.571 C 10.459 15.571 10.433 15.619 10.455 15.708 C 10.469 15.763 10.496 15.774 10.559 15.75 L 10.559 15.75 Z  M 11.717 16.091 C 11.709 16.083 11.702 16.031 11.702 15.976 C 11.702 15.903 11.678 15.825 11.617 15.693 C 11.512 15.47 11.51 15.443 11.597 15.443 C 11.655 15.443 11.667 15.454 11.706 15.549 C 11.731 15.608 11.762 15.656 11.775 15.656 C 11.789 15.656 11.821 15.608 11.845 15.549 C 11.886 15.454 11.898 15.443 11.956 15.443 C 12.042 15.443 12.04 15.464 11.942 15.67 C 11.887 15.784 11.859 15.878 11.851 15.966 C 11.842 16.083 11.837 16.094 11.787 16.1 C 11.757 16.103 11.726 16.099 11.717 16.091 Z  M 16.3 16.077 C 16.294 16.061 16.292 15.915 16.295 15.751 L 16.301 15.453 L 16.464 15.447 C 16.613 15.442 16.632 15.446 16.693 15.497 C 16.749 15.544 16.76 15.568 16.76 15.647 C 16.76 15.72 16.746 15.756 16.697 15.812 L 16.634 15.883 L 16.686 15.967 C 16.754 16.078 16.752 16.104 16.676 16.104 C 16.625 16.104 16.6 16.085 16.545 16.006 C 16.471 15.898 16.441 15.907 16.44 16.035 C 16.44 16.098 16.434 16.104 16.375 16.104 C 16.34 16.104 16.306 16.092 16.3 16.077 L 16.3 16.077 Z  M 16.569 15.735 C 16.653 15.67 16.62 15.571 16.514 15.571 C 16.457 15.571 16.429 15.631 16.449 15.711 C 16.463 15.767 16.515 15.778 16.569 15.735 Z  M 21.789 16.047 C 21.774 15.962 21.772 15.618 21.788 15.523 C 21.799 15.452 21.807 15.443 21.861 15.443 C 21.912 15.443 21.939 15.469 22.042 15.616 C 22.109 15.711 22.171 15.78 22.182 15.77 C 22.192 15.76 22.203 15.685 22.206 15.603 C 22.212 15.459 22.215 15.453 22.266 15.453 L 22.319 15.453 L 22.325 15.779 L 22.331 16.104 L 22.267 16.104 C 22.209 16.104 22.189 16.084 22.081 15.923 C 22.015 15.823 21.953 15.741 21.943 15.741 C 21.934 15.741 21.923 15.821 21.92 15.918 C 21.914 16.09 21.913 16.094 21.857 16.1 C 21.81 16.106 21.799 16.097 21.789 16.047 L 21.789 16.047 Z  M 0.747 14.779 C 0.619 14.749 0.487 14.646 0.431 14.531 C 0.382 14.432 0.38 14.411 0.374 13.784 C 0.37 13.401 0.376 13.123 0.388 13.102 C 0.404 13.073 0.434 13.12 0.536 13.335 C 0.813 13.918 1.248 14.408 1.715 14.664 C 1.797 14.709 1.864 14.753 1.864 14.761 C 1.864 14.769 1.842 14.782 1.816 14.789 C 1.741 14.809 0.839 14.801 0.747 14.779 Z  M 4.339 14.781 C 4.302 14.756 4.302 14.756 4.489 14.649 C 5.042 14.331 5.311 14.052 5.62 13.472 C 5.681 13.359 5.739 13.271 5.75 13.278 C 5.761 13.284 5.769 13.54 5.769 13.859 C 5.768 14.5 5.761 14.538 5.613 14.668 C 5.481 14.784 5.373 14.803 4.842 14.802 C 4.57 14.802 4.358 14.793 4.339 14.781 L 4.339 14.781 Z  M 6.724 14.779 C 6.614 14.753 6.538 14.711 6.469 14.639 C 6.35 14.514 6.345 14.479 6.345 13.748 C 6.345 13.379 6.354 13.071 6.364 13.065 C 6.374 13.059 6.431 13.133 6.49 13.229 C 6.856 13.826 7.272 14.193 7.613 14.222 C 7.835 14.24 8.074 14.081 8.233 13.81 C 8.35 13.61 8.4 13.44 8.403 13.234 C 8.405 13.064 8.398 13.028 8.345 12.92 C 8.166 12.554 7.58 12.306 6.901 12.306 C 6.644 12.306 6.549 12.324 6.447 12.396 C 6.415 12.418 6.379 12.43 6.367 12.423 C 6.353 12.414 6.346 12.035 6.346 11.339 C 6.347 10.143 6.344 10.163 6.497 10.034 C 6.637 9.916 6.641 9.916 7.511 9.915 C 7.954 9.914 8.324 9.922 8.334 9.932 C 8.345 9.943 8.342 9.978 8.328 10.013 C 8.281 10.127 8.292 10.481 8.349 10.694 C 8.451 11.077 8.606 11.371 8.799 11.545 C 9.081 11.799 9.419 11.775 9.698 11.48 C 9.819 11.352 9.873 11.243 9.909 11.057 C 9.954 10.828 9.844 10.417 9.653 10.102 C 9.606 10.024 9.568 9.95 9.568 9.938 C 9.568 9.922 9.851 9.915 10.47 9.916 C 11.475 9.916 11.466 9.915 11.611 10.068 C 11.724 10.187 11.745 10.282 11.745 10.674 C 11.745 10.866 11.737 11.028 11.727 11.034 C 11.717 11.04 11.662 10.976 11.604 10.892 C 11.369 10.548 11.037 10.309 10.66 10.212 C 10.473 10.164 10.365 10.172 10.239 10.243 C 9.872 10.449 9.977 11.413 10.417 11.883 C 10.704 12.19 11.155 12.183 11.601 11.866 C 11.657 11.826 11.712 11.793 11.723 11.793 C 11.753 11.793 11.752 12.789 11.723 12.807 C 11.711 12.815 11.663 12.787 11.615 12.747 C 11.501 12.649 11.307 12.555 11.049 12.474 C 10.933 12.437 10.708 12.356 10.55 12.294 C 10.021 12.087 9.746 12.019 9.429 12.018 C 9.215 12.018 9.184 12.023 9.073 12.077 C 8.796 12.213 8.706 12.448 8.651 13.181 C 8.626 13.513 8.593 13.719 8.535 13.917 C 8.467 14.146 8.432 14.406 8.442 14.593 C 8.451 14.743 8.447 14.781 8.422 14.791 C 8.371 14.81 6.811 14.8 6.724 14.779 L 6.724 14.779 Z  M 8.082 12.328 C 8.312 12.249 8.459 12.107 8.545 11.881 C 8.599 11.737 8.597 11.616 8.536 11.437 C 8.445 11.166 8.185 10.846 7.855 10.596 C 7.585 10.393 7.325 10.352 7.081 10.476 C 6.74 10.649 6.606 11.019 6.749 11.392 C 6.85 11.656 7.139 12.032 7.363 12.191 C 7.611 12.369 7.838 12.412 8.082 12.328 L 8.082 12.328 Z  M 10.683 14.789 C 10.639 14.77 10.653 14.744 10.736 14.693 C 11.048 14.5 11.42 14.145 11.588 13.879 C 11.653 13.777 11.715 13.698 11.725 13.705 C 11.736 13.711 11.745 13.863 11.745 14.042 C 11.745 14.414 11.718 14.529 11.607 14.64 C 11.476 14.771 11.407 14.79 11.041 14.796 C 10.859 14.799 10.698 14.796 10.683 14.789 L 10.683 14.789 Z  M 12.63 14.758 C 12.539 14.732 12.412 14.62 12.363 14.524 C 12.322 14.443 12.321 14.389 12.321 12.352 C 12.321 10.041 12.313 10.181 12.46 10.034 C 12.605 9.888 12.503 9.894 15.01 9.894 C 17.518 9.894 17.407 9.888 17.559 10.036 C 17.706 10.179 17.698 10.041 17.701 12.33 C 17.704 14.263 17.702 14.414 17.667 14.499 C 17.623 14.606 17.487 14.73 17.38 14.76 C 17.284 14.786 12.722 14.785 12.63 14.758 L 12.63 14.758 Z  M 12.961 14.424 C 13.192 14.333 13.303 14.27 13.328 14.216 C 13.36 14.145 13.338 14.102 13.25 14.065 C 13.186 14.038 13.161 14.038 13.058 14.065 C 12.993 14.082 12.896 14.13 12.841 14.172 C 12.786 14.213 12.729 14.248 12.714 14.248 C 12.679 14.248 12.561 14.347 12.532 14.401 C 12.516 14.431 12.518 14.451 12.537 14.475 C 12.575 14.521 12.779 14.496 12.961 14.424 L 12.961 14.424 Z  M 14.172 13.949 C 14.371 13.884 14.496 13.826 14.581 13.759 C 14.674 13.686 14.792 13.669 15.254 13.659 C 15.479 13.654 15.6 13.643 15.661 13.619 C 15.716 13.598 15.809 13.587 15.908 13.588 C 16.184 13.593 16.466 13.564 16.572 13.521 C 16.632 13.496 16.722 13.479 16.797 13.479 C 16.948 13.479 17.131 13.429 17.188 13.371 C 17.24 13.319 17.217 13.263 17.116 13.199 C 17.056 13.161 17.024 13.157 16.835 13.167 C 16.717 13.174 16.589 13.189 16.55 13.2 C 16.501 13.215 16.446 13.214 16.376 13.198 C 16.301 13.181 16.256 13.181 16.205 13.199 C 16.152 13.217 16.114 13.217 16.051 13.198 C 15.985 13.178 15.907 13.178 15.707 13.198 C 15.527 13.216 15.424 13.217 15.373 13.202 C 15.266 13.171 15.186 13.176 15.054 13.222 C 14.951 13.258 14.93 13.259 14.879 13.233 C 14.79 13.187 14.732 13.099 14.733 13.012 C 14.734 12.906 14.787 12.799 14.956 12.565 C 15.035 12.455 15.142 12.294 15.194 12.206 C 15.245 12.119 15.326 12 15.372 11.941 C 15.453 11.838 15.474 11.788 15.518 11.588 C 15.529 11.539 15.578 11.448 15.627 11.385 C 16.058 10.834 16.12 10.731 16.12 10.563 C 16.12 10.469 16.11 10.438 16.061 10.384 C 16.024 10.344 15.974 10.315 15.925 10.307 C 15.822 10.291 15.745 10.363 15.626 10.588 C 15.577 10.681 15.442 10.915 15.326 11.106 C 15.211 11.298 15.098 11.49 15.076 11.533 C 15.053 11.576 15.007 11.644 14.972 11.682 C 14.937 11.721 14.903 11.78 14.896 11.813 C 14.89 11.846 14.841 11.924 14.788 11.986 C 14.734 12.048 14.68 12.134 14.666 12.176 C 14.613 12.344 14.539 12.449 14.434 12.506 C 14.374 12.538 14.297 12.608 14.247 12.674 C 14.175 12.77 14.146 12.791 14.054 12.815 C 13.921 12.849 13.879 12.83 13.801 12.705 C 13.77 12.655 13.668 12.52 13.575 12.404 C 13.482 12.288 13.382 12.141 13.351 12.078 C 13.321 12.014 13.265 11.937 13.226 11.908 C 13.178 11.871 13.138 11.808 13.098 11.707 C 13.056 11.601 13 11.516 12.894 11.397 C 12.814 11.307 12.748 11.222 12.748 11.208 C 12.748 11.178 12.584 11.018 12.52 10.985 C 12.388 10.917 12.368 11.004 12.481 11.162 C 12.522 11.219 12.561 11.301 12.569 11.343 C 12.576 11.385 12.614 11.482 12.653 11.559 C 12.817 11.882 12.871 12 12.884 12.061 C 12.892 12.096 12.955 12.199 13.023 12.29 C 13.103 12.397 13.172 12.518 13.214 12.632 C 13.269 12.776 13.304 12.831 13.409 12.938 L 13.536 13.068 L 13.523 13.208 C 13.511 13.343 13.514 13.355 13.608 13.547 C 13.714 13.764 13.807 13.889 13.909 13.951 C 13.992 14.001 14.013 14.001 14.172 13.949 L 14.172 13.949 Z  M 17.588 13.35 C 17.673 13.271 17.629 13.223 17.473 13.223 C 17.346 13.223 17.298 13.259 17.334 13.327 C 17.377 13.405 17.515 13.418 17.588 13.35 Z  M 16.152 10.244 C 16.22 10.2 16.225 10.084 16.162 10.022 C 16.109 9.969 16.096 9.969 16.027 10.024 C 15.966 10.071 15.956 10.126 15.995 10.2 C 16.04 10.285 16.075 10.295 16.152 10.244 L 16.152 10.244 Z  M 18.593 14.76 C 18.501 14.733 18.403 14.649 18.342 14.546 C 18.288 14.453 18.286 14.438 18.279 14.058 C 18.275 13.824 18.28 13.658 18.292 13.646 C 18.306 13.632 18.338 13.699 18.382 13.835 C 18.522 14.256 18.678 14.481 18.948 14.652 C 19.024 14.7 19.086 14.749 19.086 14.76 C 19.086 14.785 18.675 14.786 18.593 14.761 L 18.593 14.76 Z  M 20.281 14.761 C 20.281 14.75 20.323 14.712 20.374 14.676 C 20.58 14.535 20.752 14.28 20.813 14.026 C 20.845 13.894 20.845 13.471 20.813 13.337 C 20.8 13.28 20.742 13.118 20.685 12.976 C 20.453 12.396 20.357 11.933 20.36 11.399 C 20.362 11.062 20.388 10.847 20.466 10.536 C 20.485 10.461 20.501 10.351 20.503 10.291 C 20.505 10.194 20.5 10.181 20.446 10.155 C 20.377 10.121 20.276 10.137 19.918 10.238 C 19.611 10.325 19.446 10.428 19.169 10.704 C 18.815 11.056 18.577 11.451 18.391 11.992 C 18.345 12.126 18.304 12.215 18.293 12.204 C 18.282 12.193 18.277 11.761 18.28 11.215 C 18.286 10.28 18.287 10.243 18.33 10.161 C 18.39 10.047 18.526 9.946 18.658 9.918 C 18.794 9.888 23.045 9.886 23.247 9.915 C 23.413 9.939 23.535 10.017 23.605 10.143 C 23.654 10.23 23.654 10.231 23.648 11.113 L 23.642 11.996 L 23.528 11.772 C 23.285 11.298 22.968 10.923 22.535 10.599 C 22.229 10.37 22.042 10.272 21.708 10.162 C 21.28 10.022 21.132 10.033 21.105 10.209 C 21.09 10.306 21.109 10.443 21.194 10.876 C 21.289 11.359 21.306 11.51 21.306 11.889 C 21.305 12.361 21.254 12.669 21.099 13.133 C 21.025 13.355 21.023 13.372 21.022 13.682 C 21.022 13.956 21.028 14.018 21.066 14.115 C 21.17 14.379 21.295 14.536 21.506 14.664 C 21.584 14.711 21.647 14.756 21.647 14.765 C 21.647 14.774 21.34 14.781 20.964 14.781 C 20.546 14.781 20.281 14.773 20.281 14.761 L 20.281 14.761 Z  M 22.715 14.765 C 22.715 14.756 22.792 14.707 22.886 14.655 C 23.199 14.482 23.372 14.274 23.526 13.884 C 23.577 13.755 23.627 13.65 23.636 13.65 C 23.645 13.65 23.653 13.836 23.653 14.063 L 23.653 14.475 L 23.588 14.573 C 23.543 14.641 23.489 14.689 23.413 14.726 C 23.311 14.777 23.282 14.781 23.009 14.781 C 22.847 14.781 22.714 14.774 22.715 14.765 L 22.715 14.765 Z  M 1.717 14.202 C 1.67 14.142 1.668 14.135 1.701 14.103 C 1.734 14.07 1.741 14.072 1.803 14.134 C 1.845 14.177 1.865 14.214 1.857 14.235 C 1.837 14.288 1.773 14.273 1.717 14.202 L 1.717 14.202 Z  M 4.453 14.192 C 4.445 14.171 4.465 14.134 4.507 14.092 C 4.568 14.031 4.577 14.028 4.607 14.058 C 4.638 14.089 4.636 14.098 4.584 14.159 C 4.522 14.233 4.473 14.245 4.453 14.192 L 4.453 14.192 Z  M 2.653 14.118 C 2.43 14.059 2.182 13.931 1.976 13.768 C 1.3 13.233 0.954 12.121 1.239 11.399 C 1.262 11.34 1.35 11.173 1.433 11.027 C 1.62 10.703 1.673 10.567 1.686 10.374 C 1.695 10.236 1.686 10.18 1.618 9.963 L 1.603 9.915 L 3.042 9.915 C 3.834 9.915 4.487 9.921 4.494 9.928 C 4.501 9.935 4.492 9.975 4.474 10.018 C 4.451 10.073 4.444 10.139 4.451 10.235 C 4.463 10.397 4.542 10.569 4.748 10.88 C 4.974 11.223 5.058 11.476 5.079 11.886 C 5.128 12.815 4.662 13.621 3.863 13.991 C 3.599 14.114 3.453 14.145 3.112 14.154 C 2.866 14.16 2.786 14.153 2.653 14.118 L 2.653 14.118 Z  M 1.045 13.512 C 0.997 13.44 1 13.373 1.05 13.373 C 1.097 13.373 1.16 13.458 1.16 13.521 C 1.16 13.583 1.087 13.577 1.045 13.512 L 1.045 13.512 Z  M 5.138 13.365 C 5.124 13.329 5.186 13.209 5.226 13.194 C 5.239 13.189 5.264 13.193 5.28 13.203 C 5.306 13.219 5.304 13.235 5.268 13.302 C 5.222 13.388 5.158 13.418 5.138 13.365 Z  M 0.673 12.522 C 0.655 12.51 0.647 12.471 0.651 12.41 C 0.657 12.333 0.666 12.316 0.701 12.316 C 0.738 12.316 0.743 12.33 0.743 12.421 C 0.743 12.527 0.724 12.554 0.673 12.522 Z  M 5.527 12.313 C 5.52 12.305 5.513 12.256 5.513 12.204 C 5.513 12.119 5.518 12.111 5.561 12.117 C 5.602 12.123 5.61 12.139 5.616 12.226 C 5.621 12.313 5.617 12.327 5.582 12.327 C 5.56 12.327 5.535 12.32 5.527 12.313 Z  M 0.761 11.397 C 0.741 11.344 0.812 11.213 0.856 11.221 C 0.91 11.232 0.912 11.307 0.86 11.373 C 0.809 11.439 0.78 11.445 0.761 11.397 L 0.761 11.397 Z  M 0.383 11.022 C 0.376 10.986 0.37 10.82 0.37 10.654 C 0.37 10.305 0.399 10.178 0.504 10.068 C 0.616 9.95 0.728 9.911 0.952 9.913 C 1.058 9.915 1.15 9.92 1.156 9.926 C 1.162 9.932 1.113 9.986 1.047 10.045 C 0.89 10.185 0.724 10.436 0.55 10.798 C 0.473 10.958 0.407 11.089 0.403 11.089 C 0.4 11.089 0.391 11.059 0.383 11.022 Z  M 5.622 10.639 C 5.478 10.385 5.366 10.236 5.197 10.071 C 5.121 9.997 5.065 9.93 5.072 9.923 C 5.08 9.915 5.156 9.91 5.243 9.911 C 5.49 9.913 5.659 10.015 5.741 10.208 C 5.773 10.285 5.782 10.833 5.751 10.833 C 5.741 10.833 5.683 10.746 5.622 10.639 Z  M 19.285 9.253 C 19.154 9.227 19.082 9.183 18.974 9.063 C 18.846 8.921 18.798 8.752 18.814 8.502 C 18.831 8.218 18.943 8.037 19.169 7.926 C 19.251 7.886 19.302 7.877 19.472 7.877 C 19.657 7.877 19.688 7.883 19.803 7.942 C 19.895 7.989 19.948 8.034 19.998 8.11 C 20.092 8.248 20.091 8.309 19.995 8.327 C 19.896 8.345 19.838 8.323 19.734 8.228 C 19.604 8.109 19.403 8.089 19.263 8.181 C 19.177 8.237 19.108 8.409 19.108 8.566 C 19.107 8.843 19.253 9.019 19.481 9.019 C 19.595 9.019 19.683 8.979 19.746 8.899 C 19.782 8.853 19.807 8.767 19.785 8.762 C 19.782 8.761 19.736 8.756 19.684 8.75 C 19.622 8.744 19.574 8.724 19.55 8.696 C 19.503 8.64 19.501 8.537 19.547 8.52 C 19.591 8.503 20.011 8.503 20.055 8.52 C 20.084 8.531 20.089 8.582 20.089 8.869 C 20.089 9.259 20.078 9.287 19.949 9.226 C 19.909 9.206 19.876 9.181 19.876 9.169 C 19.876 9.133 19.814 9.144 19.749 9.192 C 19.65 9.266 19.469 9.289 19.285 9.253 Z  M 0.375 9.24 C 0.338 9.225 0.337 8.065 0.374 7.984 C 0.404 7.917 0.447 7.905 0.635 7.914 L 0.782 7.92 L 0.808 8.016 C 0.823 8.069 0.871 8.246 0.915 8.411 C 1.008 8.758 1.024 8.806 1.05 8.806 C 1.072 8.806 1.072 8.804 1.161 8.464 C 1.196 8.329 1.234 8.19 1.244 8.155 C 1.255 8.119 1.275 8.05 1.287 7.999 L 1.311 7.908 L 1.518 7.914 L 1.725 7.92 L 1.731 8.569 C 1.735 9.075 1.73 9.223 1.709 9.236 C 1.695 9.245 1.642 9.253 1.593 9.253 C 1.526 9.254 1.497 9.243 1.481 9.213 C 1.469 9.191 1.461 9.059 1.462 8.92 C 1.467 8.536 1.46 8.368 1.441 8.391 C 1.419 8.415 1.396 8.492 1.287 8.9 C 1.241 9.076 1.191 9.227 1.176 9.236 C 1.132 9.264 0.932 9.257 0.908 9.227 C 0.895 9.212 0.866 9.128 0.842 9.04 C 0.775 8.789 0.686 8.457 0.674 8.416 C 0.642 8.301 0.626 8.425 0.626 8.791 C 0.626 9.083 0.619 9.21 0.6 9.228 C 0.575 9.253 0.428 9.261 0.375 9.24 L 0.375 9.24 Z  M 1.966 9.21 C 1.866 9.157 1.813 9.059 1.815 8.928 C 1.817 8.755 1.92 8.655 2.141 8.614 C 2.414 8.562 2.478 8.525 2.419 8.454 C 2.372 8.397 2.259 8.392 2.158 8.442 C 2.031 8.505 1.878 8.497 1.868 8.426 C 1.858 8.357 1.982 8.239 2.1 8.208 C 2.218 8.175 2.476 8.192 2.564 8.238 C 2.653 8.284 2.717 8.372 2.72 8.451 C 2.721 8.488 2.729 8.542 2.737 8.571 C 2.751 8.619 2.756 8.613 2.791 8.51 C 2.84 8.365 2.96 8.241 3.085 8.207 C 3.224 8.169 3.423 8.192 3.538 8.26 C 3.635 8.316 3.737 8.464 3.709 8.508 C 3.702 8.519 3.646 8.528 3.583 8.528 C 3.501 8.528 3.455 8.516 3.413 8.483 C 3.328 8.416 3.211 8.407 3.14 8.463 C 3.019 8.558 3.012 8.845 3.129 8.971 C 3.19 9.037 3.32 9.035 3.432 8.965 C 3.532 8.904 3.693 8.892 3.713 8.944 C 3.732 8.993 3.653 9.108 3.552 9.179 C 3.473 9.234 3.439 9.244 3.293 9.251 C 3.152 9.257 3.108 9.25 3.027 9.211 C 2.912 9.156 2.837 9.064 2.788 8.921 L 2.752 8.816 L 2.715 8.941 C 2.647 9.171 2.518 9.253 2.227 9.252 C 2.088 9.252 2.026 9.242 1.966 9.21 L 1.966 9.21 Z  M 2.37 8.994 C 2.417 8.955 2.464 8.837 2.448 8.796 C 2.432 8.754 2.371 8.754 2.232 8.795 C 2.123 8.828 2.082 8.876 2.096 8.955 C 2.111 9.04 2.284 9.065 2.37 8.994 L 2.37 8.994 Z  M 3.838 9.232 C 3.821 9.205 3.833 9.168 4.065 8.539 C 4.169 8.257 4.272 8.003 4.293 7.973 C 4.328 7.927 4.352 7.919 4.484 7.914 L 4.634 7.907 L 4.698 8.074 C 4.942 8.705 5.11 9.175 5.104 9.206 C 5.098 9.236 5.073 9.243 4.97 9.243 C 4.831 9.243 4.829 9.242 4.757 9.056 L 4.725 8.975 L 4.465 8.981 L 4.205 8.987 L 4.165 9.103 C 4.144 9.167 4.114 9.227 4.099 9.236 C 4.06 9.261 3.853 9.258 3.838 9.232 L 3.838 9.232 Z  M 4.627 8.721 C 4.649 8.686 4.503 8.283 4.469 8.283 C 4.431 8.283 4.305 8.655 4.325 8.706 C 4.335 8.734 4.368 8.742 4.476 8.742 C 4.552 8.742 4.62 8.732 4.627 8.721 L 4.627 8.721 Z  M 5.237 9.214 C 5.225 9.192 5.219 9.048 5.224 8.878 C 5.232 8.542 5.269 8.42 5.393 8.326 C 5.483 8.257 5.647 8.204 5.744 8.212 L 5.823 8.219 L 5.823 8.347 C 5.823 8.467 5.82 8.475 5.769 8.481 C 5.543 8.509 5.513 8.561 5.513 8.928 C 5.513 9.113 5.505 9.211 5.488 9.228 C 5.473 9.242 5.416 9.254 5.36 9.254 C 5.283 9.254 5.253 9.244 5.237 9.214 L 5.237 9.214 Z  M 6.032 9.223 C 5.995 9.206 5.954 9.174 5.941 9.15 C 5.926 9.12 5.92 8.912 5.924 8.513 L 5.929 7.92 L 6.027 7.914 C 6.151 7.906 6.191 7.947 6.2 8.091 C 6.207 8.195 6.209 8.198 6.281 8.208 C 6.343 8.217 6.357 8.229 6.363 8.274 C 6.369 8.33 6.339 8.368 6.253 8.411 C 6.209 8.432 6.207 8.449 6.207 8.71 L 6.207 8.987 L 6.287 9.026 C 6.358 9.061 6.367 9.074 6.367 9.147 C 6.367 9.201 6.356 9.232 6.333 9.241 C 6.274 9.264 6.102 9.253 6.032 9.223 L 6.032 9.223 Z  M 6.438 9.228 C 6.42 9.204 6.418 8.999 6.429 8.043 L 6.431 7.909 L 6.524 7.909 C 6.647 7.909 6.68 7.95 6.691 8.117 C 6.696 8.19 6.706 8.256 6.714 8.263 C 6.721 8.271 6.772 8.255 6.826 8.229 C 7.018 8.136 7.255 8.21 7.364 8.396 C 7.421 8.493 7.421 8.497 7.416 8.856 C 7.414 9.055 7.406 9.226 7.4 9.236 C 7.387 9.256 7.241 9.26 7.19 9.241 C 7.163 9.23 7.156 9.188 7.155 9.011 C 7.151 8.549 7.105 8.436 6.922 8.439 C 6.749 8.441 6.707 8.533 6.689 8.944 L 6.676 9.243 L 6.568 9.249 C 6.497 9.254 6.452 9.246 6.438 9.228 L 6.438 9.228 Z  M 7.744 9.22 C 7.634 9.179 7.545 9.093 7.518 8.999 C 7.505 8.956 7.498 8.771 7.502 8.571 L 7.509 8.219 L 7.637 8.219 L 7.765 8.219 L 7.775 8.576 C 7.785 8.91 7.789 8.936 7.834 8.981 C 7.895 9.041 8.03 9.046 8.092 8.991 C 8.129 8.956 8.134 8.918 8.141 8.621 C 8.149 8.303 8.151 8.288 8.199 8.249 C 8.266 8.195 8.386 8.195 8.415 8.249 C 8.445 8.306 8.443 8.908 8.413 9 C 8.357 9.166 8.201 9.255 7.971 9.252 C 7.893 9.251 7.791 9.237 7.744 9.22 L 7.744 9.22 Z  M 8.527 9.228 C 8.509 9.211 8.501 9.109 8.501 8.91 C 8.501 8.588 8.531 8.472 8.645 8.352 C 8.742 8.25 9.012 8.174 9.094 8.226 C 9.113 8.238 9.12 8.282 9.116 8.359 L 9.109 8.475 L 9.024 8.487 C 8.92 8.501 8.851 8.537 8.822 8.591 C 8.81 8.614 8.8 8.753 8.8 8.902 C 8.8 9.05 8.79 9.19 8.778 9.212 C 8.761 9.244 8.733 9.254 8.654 9.254 C 8.598 9.254 8.541 9.242 8.527 9.228 L 8.527 9.228 Z  M 9.677 9.208 C 9.666 9.18 9.659 8.897 9.661 8.578 C 9.664 8.041 9.667 7.996 9.705 7.954 C 9.743 7.912 9.766 7.909 10.111 7.909 C 10.448 7.909 10.484 7.913 10.571 7.957 C 10.703 8.025 10.747 8.094 10.749 8.237 C 10.751 8.331 10.74 8.37 10.694 8.434 L 10.637 8.514 L 10.709 8.594 C 10.888 8.793 10.792 9.131 10.533 9.213 C 10.489 9.227 10.283 9.243 10.075 9.248 L 9.696 9.258 L 9.677 9.208 Z  M 10.434 8.954 C 10.532 8.872 10.511 8.719 10.395 8.679 C 10.315 8.651 10.017 8.65 9.974 8.677 C 9.939 8.699 9.931 8.924 9.962 8.976 C 9.986 9.013 10.384 8.995 10.434 8.954 L 10.434 8.954 Z  M 10.424 8.359 C 10.475 8.297 10.475 8.268 10.424 8.205 C 10.386 8.159 10.363 8.154 10.167 8.147 L 9.952 8.14 L 9.952 8.267 C 9.952 8.336 9.959 8.4 9.968 8.409 C 9.977 8.418 10.074 8.422 10.184 8.417 C 10.362 8.41 10.389 8.403 10.424 8.359 L 10.424 8.359 Z  M 11.012 9.209 C 10.957 9.179 10.918 9.137 10.89 9.076 C 10.787 8.85 10.904 8.669 11.19 8.613 C 11.471 8.557 11.527 8.525 11.468 8.454 C 11.421 8.398 11.311 8.393 11.205 8.441 C 11.096 8.491 10.95 8.5 10.918 8.459 C 10.865 8.393 11.001 8.248 11.154 8.206 C 11.265 8.176 11.526 8.193 11.609 8.236 C 11.728 8.298 11.75 8.342 11.772 8.571 C 11.808 8.934 11.74 9.124 11.543 9.214 C 11.418 9.27 11.124 9.268 11.012 9.209 L 11.012 9.209 Z  M 11.37 9.02 C 11.429 8.997 11.51 8.883 11.51 8.821 C 11.51 8.765 11.456 8.754 11.325 8.783 C 11.143 8.824 11.081 8.91 11.169 8.998 C 11.215 9.044 11.285 9.052 11.37 9.02 Z  M 11.856 9.228 C 11.816 9.188 11.822 8.692 11.864 8.548 C 11.907 8.406 12.018 8.292 12.163 8.243 C 12.366 8.173 12.449 8.206 12.449 8.354 C 12.449 8.451 12.428 8.485 12.371 8.485 C 12.294 8.485 12.178 8.54 12.152 8.589 C 12.139 8.614 12.129 8.754 12.129 8.917 C 12.129 9.111 12.121 9.211 12.103 9.228 C 12.089 9.242 12.034 9.254 11.98 9.254 C 11.926 9.254 11.87 9.242 11.856 9.228 L 11.856 9.228 Z  M 12.673 9.214 C 12.575 9.169 12.532 9.123 12.493 9.024 C 12.454 8.927 12.489 8.891 12.621 8.891 C 12.71 8.891 12.73 8.9 12.775 8.957 C 12.812 9.005 12.849 9.025 12.914 9.034 C 13.024 9.049 13.102 9.03 13.119 8.984 C 13.143 8.923 13.071 8.875 12.901 8.837 C 12.602 8.771 12.513 8.698 12.513 8.521 C 12.513 8.398 12.554 8.321 12.658 8.25 C 12.726 8.203 12.756 8.197 12.938 8.198 C 13.09 8.198 13.16 8.208 13.21 8.235 C 13.295 8.28 13.368 8.381 13.373 8.459 C 13.377 8.515 13.372 8.518 13.273 8.524 C 13.194 8.529 13.159 8.521 13.124 8.489 C 13.017 8.392 12.912 8.375 12.831 8.44 C 12.788 8.475 12.785 8.486 12.81 8.515 C 12.837 8.548 12.877 8.562 13.1 8.615 C 13.343 8.673 13.448 8.784 13.424 8.959 C 13.409 9.074 13.354 9.146 13.238 9.206 C 13.113 9.27 12.804 9.274 12.673 9.214 L 12.673 9.214 Z  M 13.673 9.239 C 13.649 9.234 13.608 9.208 13.582 9.182 C 13.538 9.134 13.537 9.121 13.542 8.526 L 13.548 7.92 L 13.638 7.913 C 13.751 7.905 13.815 7.961 13.815 8.068 C 13.815 8.173 13.834 8.208 13.891 8.208 C 13.999 8.208 13.997 8.341 13.888 8.401 L 13.826 8.436 L 13.819 8.679 C 13.812 8.977 13.819 9.01 13.895 9.029 C 13.927 9.037 13.96 9.055 13.969 9.069 C 13.994 9.107 13.988 9.2 13.96 9.228 C 13.936 9.252 13.773 9.259 13.673 9.239 L 13.673 9.239 Z  M 14.274 9.213 C 14.154 9.158 14.08 9.07 14.041 8.935 C 13.956 8.646 14.046 8.344 14.25 8.235 C 14.297 8.209 14.369 8.199 14.498 8.199 C 14.702 8.199 14.776 8.227 14.872 8.341 C 14.972 8.459 14.993 8.537 14.985 8.753 C 14.979 8.925 14.971 8.96 14.914 9.051 C 14.826 9.194 14.707 9.253 14.508 9.253 C 14.408 9.253 14.331 9.24 14.274 9.213 L 14.274 9.213 Z  M 14.619 8.986 C 14.683 8.945 14.718 8.823 14.707 8.674 C 14.699 8.572 14.686 8.536 14.64 8.49 C 14.57 8.42 14.44 8.411 14.371 8.473 C 14.283 8.553 14.265 8.778 14.334 8.929 C 14.362 8.991 14.468 9.044 14.53 9.026 C 14.553 9.02 14.593 9.002 14.619 8.986 L 14.619 8.986 Z  M 15.358 9.238 C 15.316 9.21 15.052 8.266 15.078 8.235 C 15.091 8.22 15.147 8.208 15.204 8.208 C 15.33 8.208 15.328 8.205 15.405 8.534 C 15.439 8.677 15.474 8.783 15.487 8.778 C 15.499 8.774 15.526 8.699 15.546 8.612 C 15.616 8.316 15.631 8.263 15.654 8.236 C 15.684 8.2 15.894 8.199 15.922 8.235 C 15.934 8.249 15.965 8.369 15.992 8.5 C 16.04 8.737 16.063 8.805 16.087 8.781 C 16.094 8.775 16.128 8.655 16.163 8.515 C 16.202 8.36 16.24 8.251 16.262 8.235 C 16.308 8.201 16.497 8.199 16.509 8.233 C 16.515 8.252 16.396 8.692 16.253 9.179 C 16.235 9.241 16.208 9.253 16.082 9.253 C 15.946 9.254 15.949 9.259 15.868 8.903 C 15.836 8.763 15.8 8.646 15.788 8.642 C 15.766 8.634 15.746 8.702 15.69 8.96 C 15.677 9.022 15.655 9.111 15.64 9.158 C 15.615 9.243 15.614 9.243 15.499 9.249 C 15.436 9.252 15.372 9.247 15.358 9.238 L 15.358 9.238 Z  M 17.258 9.21 C 17.156 9.159 17.115 9.106 17.081 8.981 C 17.037 8.817 17.105 8.667 17.288 8.524 L 17.334 8.488 L 17.28 8.39 C 17.215 8.274 17.21 8.17 17.266 8.075 C 17.332 7.962 17.43 7.909 17.575 7.909 C 17.795 7.909 17.934 8.02 17.934 8.196 C 17.934 8.285 17.869 8.419 17.803 8.466 C 17.769 8.49 17.742 8.52 17.742 8.532 C 17.742 8.569 17.873 8.723 17.897 8.715 C 17.91 8.71 17.931 8.674 17.945 8.634 C 17.968 8.563 17.974 8.56 18.074 8.56 C 18.177 8.56 18.179 8.562 18.186 8.63 C 18.19 8.672 18.171 8.747 18.138 8.819 C 18.108 8.885 18.083 8.947 18.083 8.957 C 18.083 8.967 18.127 9.024 18.18 9.084 C 18.234 9.144 18.274 9.205 18.269 9.218 C 18.265 9.232 18.208 9.246 18.141 9.249 C 18.043 9.255 18.008 9.247 17.955 9.208 L 17.891 9.16 L 17.794 9.207 C 17.66 9.272 17.386 9.273 17.258 9.21 L 17.258 9.21 Z  M 17.657 9.008 C 17.692 8.99 17.72 8.966 17.72 8.955 C 17.72 8.919 17.537 8.71 17.499 8.702 C 17.454 8.694 17.381 8.754 17.355 8.823 C 17.334 8.879 17.377 8.982 17.438 9.017 C 17.492 9.049 17.585 9.045 17.657 9.008 L 17.657 9.008 Z  M 17.656 8.295 C 17.687 8.235 17.683 8.153 17.646 8.123 C 17.598 8.083 17.51 8.114 17.494 8.177 C 17.466 8.29 17.604 8.391 17.656 8.295 L 17.656 8.295 Z  M 20.219 9.224 C 20.202 9.204 20.197 9.049 20.201 8.707 L 20.207 8.219 L 20.3 8.212 C 20.373 8.207 20.404 8.216 20.444 8.253 C 20.494 8.3 20.495 8.304 20.495 8.752 C 20.495 9.074 20.487 9.21 20.469 9.228 C 20.434 9.264 20.25 9.261 20.219 9.224 L 20.219 9.224 Z  M 20.772 9.195 C 20.684 9.15 20.641 9.111 20.601 9.04 C 20.549 8.945 20.548 8.939 20.548 8.432 L 20.548 7.92 L 20.647 7.914 C 20.78 7.905 20.836 7.97 20.836 8.133 C 20.836 8.194 20.842 8.249 20.848 8.256 C 20.855 8.263 20.905 8.249 20.959 8.225 C 21.169 8.132 21.385 8.215 21.498 8.434 C 21.543 8.522 21.551 8.566 21.551 8.73 C 21.55 8.967 21.496 9.098 21.363 9.186 C 21.288 9.236 21.252 9.244 21.083 9.249 C 20.906 9.255 20.879 9.25 20.772 9.195 L 20.772 9.195 Z  M 21.157 8.997 C 21.226 8.96 21.263 8.86 21.263 8.712 C 21.263 8.594 21.255 8.564 21.207 8.507 C 21.156 8.447 21.141 8.441 21.042 8.447 C 20.946 8.453 20.928 8.462 20.885 8.526 C 20.798 8.656 20.829 8.933 20.937 8.996 C 20.986 9.024 21.105 9.025 21.157 8.997 L 21.157 8.997 Z  M 21.918 9.221 C 21.798 9.177 21.721 9.115 21.676 9.025 C 21.637 8.946 21.631 8.744 21.645 8.011 L 21.647 7.909 L 21.742 7.909 C 21.874 7.909 21.924 7.975 21.924 8.147 C 21.924 8.216 21.928 8.272 21.933 8.272 C 21.937 8.272 21.983 8.253 22.034 8.23 C 22.351 8.086 22.651 8.329 22.65 8.728 C 22.649 9.078 22.481 9.255 22.154 9.252 C 22.069 9.251 21.963 9.237 21.918 9.221 Z  M 22.276 8.968 C 22.352 8.892 22.384 8.754 22.353 8.635 C 22.314 8.486 22.258 8.44 22.129 8.447 C 22.034 8.453 22.016 8.462 21.973 8.526 C 21.886 8.656 21.917 8.933 22.026 8.996 C 22.096 9.037 22.221 9.023 22.276 8.968 L 22.276 8.968 Z  M 22.917 9.228 C 22.823 9.195 22.738 9.107 22.71 9.013 C 22.679 8.911 22.701 8.892 22.846 8.891 C 22.933 8.891 22.953 8.9 22.999 8.958 C 23.044 9.016 23.068 9.027 23.167 9.035 C 23.256 9.043 23.291 9.037 23.318 9.009 C 23.338 8.989 23.354 8.965 23.354 8.954 C 23.354 8.918 23.26 8.874 23.085 8.827 C 22.87 8.77 22.796 8.725 22.748 8.625 C 22.682 8.486 22.75 8.312 22.898 8.238 C 23.019 8.178 23.335 8.18 23.44 8.241 C 23.529 8.294 23.615 8.414 23.606 8.474 C 23.601 8.51 23.582 8.519 23.5 8.524 C 23.416 8.529 23.385 8.52 23.31 8.465 C 23.206 8.39 23.124 8.383 23.053 8.441 C 23.008 8.478 23.006 8.486 23.034 8.515 C 23.052 8.533 23.148 8.568 23.248 8.594 C 23.58 8.68 23.669 8.759 23.647 8.95 C 23.634 9.071 23.579 9.145 23.461 9.206 C 23.383 9.246 23.334 9.253 23.174 9.252 C 23.068 9.251 22.952 9.24 22.917 9.228 L 22.917 9.228 Z  M 20.23 8.117 C 20.203 8.096 20.195 8.066 20.2 8.004 C 20.206 7.921 20.208 7.92 20.3 7.913 C 20.373 7.908 20.404 7.917 20.444 7.954 C 20.505 8.012 20.51 8.092 20.453 8.122 C 20.396 8.153 20.276 8.15 20.23 8.117 L 20.23 8.117 Z " fill="rgb(11,73,25)"/></svg>