<?xml version="1.0" encoding="UTF-8" standalone="no"?><!-- Generator: Gravit.io --><svg xmlns="http://www.w3.org/2000/svg" xmlns:xlink="http://www.w3.org/1999/xlink" style="isolation:isolate" viewBox="-9.5 362.1 118.3 69.5" width="118.3pt" height="69.5pt"><g><mask id="_mask_QjqTbpoHXiKvEyaAJq3HxafIbVQxXGX0" x="-200%" y="-200%" width="400%" height="400%"><rect x="-200%" y="-200%" width="400%" height="400%" style="fill:white;"/><path d=" M 11.896 404.096 C 10.606 396.607 10.239 389.2 10.75 382.061 C 16.561 385.872 22.9 388.807 29.565 390.772 C 24.469 395.786 18.55 400.293 11.896 404.096 Z " fill="black" stroke="none"/></mask><path d=" M 11.896 404.096 C 10.606 396.607 10.239 389.2 10.75 382.061 C 16.561 385.872 22.9 388.807 29.565 390.772 C 24.469 395.786 18.55 400.293 11.896 404.096 Z " fill="rgb(104,153,109)"/><path d=" M 11.896 404.096 C 10.606 396.607 10.239 389.2 10.75 382.061 C 16.561 385.872 22.9 388.807 29.565 390.772 C 24.469 395.786 18.55 400.293 11.896 404.096 Z " fill="rgb(104,153,109)" mask="url(#_mask_QjqTbpoHXiKvEyaAJq3HxafIbVQxXGX0)" vector-effect="non-scaling-stroke" stroke-width="4" stroke="rgb(173,255,182)" stroke-linejoin="miter" stroke-linecap="round" stroke-miterlimit="10"/><path d=" M 36.214 413.609 C 32.427 405.788 29.689 397.771 28 389.772 C 35.523 391.99 43.325 393.115 51.168 393.114 C 47.214 400.307 42.212 407.215 36.214 413.609 L 36.214 413.609 Z " fill="rgb(223,204,77)" vector-effect="non-scaling-stroke" stroke-width="2" stroke="rgb(173,255,182)" stroke-linejoin="miter" stroke-linecap="round" stroke-miterlimit="10"/><mask id="_mask_51PowSBdZFHRMFAnRxFYBxy5T30mg9Rh" x="-200%" y="-200%" width="400%" height="400%"><rect x="-200%" y="-200%" width="400%" height="400%" style="fill:white;"/><path d=" M 62.349 411.533 C 57.272 405.941 53.041 399.926 49.695 393.676 C 56.478 393.676 63.262 392.708 69.826 390.772 C 68.27 397.748 65.778 404.734 62.349 411.533 Z " fill="black" stroke="none"/></mask><path d=" M 62.349 411.533 C 57.272 405.941 53.041 399.926 49.695 393.676 C 56.478 393.676 63.262 392.708 69.826 390.772 C 68.27 397.748 65.778 404.734 62.349 411.533 Z " fill="rgb(54,38,83)"/><path d=" M 62.349 411.533 C 57.272 405.941 53.041 399.926 49.695 393.676 C 56.478 393.676 63.262 392.708 69.826 390.772 C 68.27 397.748 65.778 404.734 62.349 411.533 Z " fill="rgb(54,38,83)" mask="url(#_mask_51PowSBdZFHRMFAnRxFYBxy5T30mg9Rh)" vector-effect="non-scaling-stroke" stroke-width="4" stroke="rgb(173,255,182)" stroke-linejoin="miter" stroke-linecap="round" stroke-miterlimit="10"/><mask id="_mask_X65mOI9ACXFQ2mNemrlSO4QWvANfzl6p" x="-200%" y="-200%" width="400%" height="400%"><rect x="-200%" y="-200%" width="400%" height="400%" style="fill:white;"/><path d=" M 87.176 404.243 C 80.644 400.364 74.833 395.812 69.825 390.772 C 76.49 388.807 82.829 385.872 88.64 382.061 C 89.072 389.252 88.599 396.711 87.176 404.243 Z " fill="black" stroke="none"/></mask><path d=" M 87.176 404.243 C 80.644 400.364 74.833 395.812 69.825 390.772 C 76.49 388.807 82.829 385.872 88.64 382.061 C 89.072 389.252 88.599 396.711 87.176 404.243 Z " fill="rgb(225,208,255)"/><path d=" M 87.176 404.243 C 80.644 400.364 74.833 395.812 69.825 390.772 C 76.49 388.807 82.829 385.872 88.64 382.061 C 89.072 389.252 88.599 396.711 87.176 404.243 Z " fill="rgb(225,208,255)" mask="url(#_mask_X65mOI9ACXFQ2mNemrlSO4QWvANfzl6p)" vector-effect="non-scaling-stroke" stroke-width="4" stroke="rgb(173,255,182)" stroke-linejoin="miter" stroke-linecap="round" stroke-miterlimit="10"/><path d=" M 91.671 379.197 C 91.285 379.473 90.895 379.744 90.502 380.009 L 90.502 380.009 C 90.696 382.409 90.79 384.815 90.79 387.22 C 90.78 393.99 90.04 400.74 88.58 407.35 L 88.58 407.35 C 82.192 403.833 76.264 399.557 70.932 394.6 C 69.063 401.678 66.335 408.505 62.81 414.94 L 62.81 414.94 C 57.755 409.73 53.338 403.934 49.661 397.676 L 49.661 397.676 L 49.661 397.676 C 45.751 404.038 41.154 409.961 35.95 415.33 L 35.95 415.33 C 32.647 408.771 30.041 401.893 28.18 394.798 C 22.81 399.638 16.853 403.791 10.44 407.17 L 10.44 407.17 C 9.18 400.97 8.54 394.65 8.53 388.31 C 8.53 385.542 8.657 382.781 8.913 380.026 C 8.511 379.756 8.114 379.479 7.719 379.197 C 7.719 379.197 7.719 379.197 7.719 379.197 L 7.719 376.959 C 7.769 376.959 7.82 376.962 7.87 376.97 C 7.949 376.982 8.026 377.005 8.099 377.036 C 8.174 377.065 8.245 377.103 8.31 377.15 C 20.32 385.94 34.82 390.68 49.69 390.68 C 64.57 390.68 79.07 385.94 91.08 377.15 C 91.142 377.106 91.209 377.068 91.279 377.039 C 91.352 377.006 91.43 376.982 91.511 376.97 C 91.565 376.962 91.618 376.958 91.671 376.959 L 91.671 376.959 L 91.671 379.197 Z  M 50.823 395.73 C 51.23 395.043 51.626 394.348 52.013 393.648 C 58.02 393.443 64.009 392.488 69.825 390.772 L 69.825 390.772 L 69.825 390.772 C 69.825 390.772 69.826 390.773 69.826 390.773 C 69.789 390.939 69.751 391.104 69.709 391.27 C 69.271 391.572 68.837 391.874 68.41 392.18 C 68.702 392.473 68.996 392.764 69.292 393.054 C 67.715 399.269 65.404 405.475 62.349 411.533 L 62.349 411.533 C 57.83 406.556 53.981 401.243 50.823 395.73 L 50.823 395.73 L 50.823 395.73 L 50.823 395.73 Z  M 52.146 393.306 C 52.192 393.076 52.158 392.837 52.041 392.633 C 53.14 392.604 54.234 392.541 55.325 392.45 C 54.242 392.722 53.176 393.002 52.146 393.306 L 52.146 393.306 L 52.146 393.306 L 52.146 393.306 Z  M 48.524 395.708 C 45.059 401.475 41.029 406.889 36.48 411.85 C 33.684 405.889 31.458 399.667 29.841 393.281 C 30.378 392.776 30.907 392.263 31.425 391.736 L 31.425 391.736 C 37.323 393.176 43.367 393.973 49.451 394.099 C 48.94 394.27 48.431 394.442 47.93 394.62 C 48.126 394.984 48.324 395.347 48.524 395.708 L 48.524 395.708 L 48.524 395.708 L 48.524 395.708 Z  M 27.012 389.958 C 21.278 388.037 15.813 385.381 10.75 382.061 C 10.239 389.2 10.606 396.607 11.896 404.096 L 11.896 404.096 C 17.72 400.768 22.98 396.9 27.631 392.633 C 27.41 391.746 27.207 390.853 27.012 389.958 L 27.012 389.958 L 27.012 389.958 L 27.012 389.958 L 27.012 389.958 Z  M 74.478 388.277 C 73.737 388.558 72.989 388.818 72.233 389.057 C 72.19 389.276 72.146 389.495 72.102 389.714 L 72.102 389.714 C 72.874 389.23 73.662 388.75 74.478 388.277 L 74.478 388.277 L 74.478 388.277 L 74.478 388.277 L 74.478 388.277 Z  M 72.019 390.078 C 71.857 390.86 71.681 391.638 71.49 392.412 C 76.113 396.8 81.358 400.788 87.176 404.243 L 87.176 404.243 C 88.599 396.711 89.072 389.252 88.64 382.061 C 83.471 385.451 77.884 388.147 72.019 390.078 L 72.019 390.078 L 72.019 390.078 L 72.019 390.078 L 72.019 390.078 L 72.019 390.078 Z " fill-rule="evenodd" fill="rgb(173,255,182)"/></g></svg>