<svg xmlns="http://www.w3.org/2000/svg" style="isolation:isolate" viewBox="-318.8 4531 1236.5 659.9" width="1648.6" height="879.9"><g fill="#ADFFB6"><path d="M171 4914.4q25-21 55.4-21 34 0 50.9 22 17 22 17 63.7 0 41.2-16.4 75-16.4 33.7-46.9 53.3-30.5 19.6-71 19.6-21.4 0-47.6-8.5l-28.7 8.5 37.2-297-20.7-8.6 4-16.5 70.8-7.7 10.5 5.6-14.5 111.6ZM147 5097.5q8.1 2.4 18.2 2.4 32 0 47.5-35.3 15.6-35.4 15.6-85.5 0-22.3-7.3-36.8-7.3-14.6-21.8-14.6-17.8 0-32.4 18.2l-19.8 151.6Zm232.4-19q-.4 2-.4 5.3 0 9.7 7.3 9.7 3.2 0 7-2 3.9-2 11.1-7l5.3 13.8q-6.9 9.3-21.2 19-14.4 9.7-36.2 9.7-18.6 0-29-7-10.2-7.1-10.2-18.4 0-2.5.4-4l10.5-79.7 11.3-84.5-22.6-12.1 3.2-17.4 78-10.5 10.5 4.8-25 180.3Zm-.4-219.9q-12.2 0-21.7-9.7t-9.5-21.8q0-16.6 11.4-28.1 11.3-11.5 29.9-11.5 14.1 0 22.6 9.3 8.5 9.3 8.5 21.4 0 17.8-10.5 29.1t-30.7 11.3Zm111.5 220q-.4 1.5-.4 4.8 0 10 7.6 10 3.3 0 7.1-1.7 3.9-1.9 11.1-7.1l5.3 13.7q-21 28.7-55 28.7-17.4 0-29.3-6.4-12-6.5-12.3-20.3 0-2.4 1.6-15.3l34-254.7-26.3-8.5 4-16.1 79.2-8.5 10.1 5.6-36.7 275.7Zm216.5 2.3q-10.9 17.4-34.7 32.6-23.9 15.1-57.4 15.1-30 0-49.3-12.7-19.4-12.7-28.3-33.3-9-20.7-9-44.5 0-41.2 16.9-74.4 16.7-33.1 46-52 29.3-18.7 65-18.7 33 0 48.8 14.5 15.8 14.6 15.8 37.6 0 29.5-19.4 49.1t-47.5 29q-28.1 9.2-55.6 10-.4 30 9.5 45.3 10 15.4 27.7 15.4 20.6 0 34.6-9.3t24.4-23.5l12.5 19.8Zm-65-160.4q-21 0-31.4 27-10.3 27.1-12.3 61.9 12.5-.8 26.7-7.9 14.1-7 23.8-20.4 9.7-13.3 9.7-31.1 0-29.5-16.5-29.5Zm261.8 160.4q-10.9 17.4-34.7 32.6-23.9 15.1-57.4 15.1-30 0-49.4-12.7t-28.2-33.3q-9-20.7-9-44.5 0-41.2 16.8-74.4 16.8-33.1 46.1-52 29.3-18.7 64.9-18.7 33.1 0 49 14.5 15.7 14.6 15.7 37.6 0 29.5-19.4 49.1t-47.5 29q-28.1 9.2-55.6 10-.4 30 9.5 45.3 9.9 15.4 27.7 15.4 20.6 0 34.5-9.3 14-9.3 24.5-23.5l12.5 19.8Zm-65-160.4q-21 0-31.4 27-10.3 27.1-12.3 61.9 12.5-.8 26.7-7.9 14.1-7 23.8-20.4 9.7-13.3 9.7-31.1 0-29.5-16.6-29.5Zm-903.9 86-2 14.2q-5.3 35.2-5.3 46.5 0 14.6 4.5 20.8 4.4 6.3 14.5 6.3 11 0 21.3-5.9 10.3-5.8 18-14.7L10.1 4895h63.5l-25.5 183.5q-1.6 15 8 15 3.3 0 6.7-1.8 3.5-1.9 11.2-7.1l5.6 13.7q-2.8 4.9-10 11.5-7.4 6.7-19 12-11.8 5.2-26 5.2-15.7 0-24.6-5.4-8.9-5.5-11-15.6-.3-1.2-.3-4.4 0-4.9.4-7.3l-.4-.4q-13 14.5-29.1 23.8-16.2 9.3-39.6 9.3-21.5 0-39.3-12.3-17.7-12.3-18.1-38.2 0-16.6 6.4-59.4 1.6-8.1 2-12.2l10.6-72.3-25.1-15.4 3.2-17.3 78.4-6.5 10.2 4.8-13.4 108.4Zm-86.5-157.6-1.2 9.3q-13.7 112.8-22 175.2-8.3 62.5-12.7 74.6-11.8 34-44.9 55.4-33.1 21.4-76 27.5l-10.5-20.6q30.3-9.3 44.9-25.9 14.5-16.6 18.6-38.4 19-99 36-256.7l-28.8-4.8 2.9-21.9h124l-1.6 21.9-28.7 4.4Z"/><path d="m131.1 4746.9-.6 4.7q-.3 1.2-.3 2.9 0 8 7.4 13 7.4 5.1 20.8 5.1 15.7 0 26-6.9t15.3-13.5l-3.8-9.8q-5.2 3.5-8 4.9-2.8 1.4-5 1.4-5.3 0-5.3-6.9 0-2.3.3-3.7l18-128.3-7.6-3.4-26.7 3.5a144.2 144.2 0 0 1 6 41v.1A144.8 144.8 0 0 1 131 4747Zm364.4-8.8q-.3 1.4-.3 3.7 0 7 5.3 7 2.3 0 5-1.5 2.8-1.4 8-4.9l3.8 9.8q-5 6.6-15.2 13.5-10.3 6.9-26 6.9-13.4 0-20.8-5t-7.4-13.1q0-1.7.2-2.9l7.6-56.7 8.1-60-16.2-8.7 2.3-12.4 56.1-7.4 7.6 3.4-18 128.3Zm-.3-156.5q-8.7 0-15.5-6.9-6.8-6.9-6.8-15.5 0-11.8 8.1-20t21.5-8.2q10.2 0 16.3 6.6 6 6.6 6 15.3 0 12.6-7.5 20.7-7.5 8-22 8Zm130.7 58.7q-4.4-5.2-11.8-9.6-7.4-4.5-17.3-4.5-9.6 0-16.1 4.5-6.6 4.4-6.8 12.5 0 8 5.6 14.5 5.7 6.5 19.6 16.8 14.6 10.4 21.9 20.4 7.2 10.1 7.2 26.2 0 16.7-9.1 28.4-9.2 11.6-24.6 17.4-15.4 5.7-34 5.7-13.1 0-27-3.2-14-3.1-18.4-6.6l6.7-27.9q6.4 6 16.6 11.2 10.2 5.2 21.2 5.2 9 0 16-4.6t7-13.8q0-8-6.4-15-6.4-6.8-19.8-16-12.2-8.4-19.9-19.6-7.7-11.2-7.7-27.6 0-14.1 8.3-25 8.3-11 23.2-17.2 15-6.1 34.8-6.1 10.7 0 21.8 1.7 11 1.7 15.1 3.4l-6.1 28.8Zm-214.7 97.8q-.3 1.1-.3 3.4 0 7.2 5.5 7.2 2.4 0 5.1-1.3 2.8-1.3 8-5l3.8 9.8q-15.1 20.4-39.5 20.4-12.5 0-21.1-4.6-8.6-4.6-8.9-14.4 0-1.7 1.2-11l24.4-181.1-18.9-6 3-11.6 56.9-6 7.3 4-26.5 196.2Zm-233.6-156.5q-8.7 0-15.6-6.9-6.8-6.9-6.8-15.5 0-11.8 8.1-20 8.2-8.2 21.6-8.2 10.1 0 16.2 6.6t6.1 15.3q0 12.6-7.5 20.7-7.6 8-22.1 8Zm132.2 46q-6.7-2-13-2-16.4 0-26.7 13t-14.7 32.5q-4.3 19.5-4.3 40.5 0 17.3 5.6 27 5.7 9.8 15.6 9.8 11.3 0 21.2-10.9l16.3-109.9Zm24.1 153q-4.3 33.4-29.2 47.7-24.8 14.2-58.3 14.2-9.6 0-21.5-2.2-11.9-2.1-16.3-4.1l7.3-30q2 1.8 8.6 5 6.5 3.4 15.1 6.1 8.6 2.8 16.1 2.8 15.4 0 22.6-6 7-6.1 9.1-24l3.5-31q-16.9 13.5-38 13.5-25.4 0-37.9-16.7t-12.5-42.5q0-28 11.2-52.5 11.2-24.6 33.3-39.6 22.1-15 53-15 8.3 0 18 2 9.8 2 16.8 4.7l23-6.6-23.9 174.3ZM-76.9 4770.4v-238.8h100a119.7 119.7 0 0 1 117 95.4 120 120 0 0 1-32.6 108.5 119.7 119.7 0 0 1-84.4 35H-77Zm24.3-35v-21c3.3-1.4 7.5-2.5 13.7-2.5 17.5 0 19.6 9.2 30.5 9.2 11.3 0 12.6-9.2 30.4-9.2 17.5 0 19.6 9.2 30.5 9.2 11.3 0 12.6-9.2 30.5-9.2 4.9 0 8.6.7 11.6 1.8a95.3 95.3 0 0 1-34.7 25c-2 .4-4.5.7-7.2.7-17.5 0-19.6-9.2-30.5-9.2-11.3 0-12.6 9.2-30.4 9.2-17.5 0-19.6-9.2-30.5-9.2-5.8 0-9.2 2.7-13.9 5.1Zm0-36.7V4678c3.3-1.5 7.5-2.6 13.7-2.6 17.5 0 19.6 9.2 30.5 9.2 11.3 0 12.6-9.2 30.4-9.2 17.5 0 19.6 9.2 30.5 9.2 11.3 0 12.6-9.2 30.5-9.2 16.8 0 19.4 8.5 29.2 9.1-2.3 6-5.1 11.7-8.5 17.1-9-2.5-12.1-7.9-20.6-7.9-11.3 0-12.6 9.2-30.4 9.2-17.5 0-19.6-9.2-30.5-9.2-11.3 0-12.6 9.2-30.4 9.2-17.5 0-19.6-9.2-30.5-9.2-5.8 0-9.2 2.7-13.9 5.1Zm50.1-41.7v-20h-10v20h10Zm98 0v-14.2H81v14.2h14.4Zm-78-10h10v-10h-10v10Zm0-20h10v-10h-10v10Zm0-20.1h10v-10h-10v10Zm-20 20h10v-10h-10v10Zm0-20h10v-10h-10v10Zm0-20h10v-10h-10v10Zm-20 40h10v-10h-10v10Zm0-20h10v-10h-10v10Zm0-20h10v-10h-10v10Zm-20 60.1h10v-10h-10v10Zm0-20h10v-10h-10v10Zm138 1.4a7.2 7.2 0 0 0-14.4 0h14.4ZM37.6 4657V4587h-20v-20h-50.1v40h-20v62.3h165.9v-33.6h10.8l-36-32.3-14.3 12.9v-9.3H63v19l-10.8 9.7h10.8v21.4H37.6Z" fill-rule="evenodd"/></g></svg>