<svg xmlns="http://www.w3.org/2000/svg" style="isolation:isolate" viewBox="106.5 109.3 603.3 182.8" width="804.4" height="243.7"><path d="M321.5 223.3a26.7 26.7 0 0 1-22 10.3c-3.7 0-7.2-.6-10.3-1.9a23.8 23.8 0 0 1-13.3-13.4A27.8 27.8 0 0 1 274 208c0-3.7.6-7.2 1.9-10.3a24.3 24.3 0 0 1 23.7-15.7c4.3 0 8.2.7 11.8 2.1 3.7 1.5 6.8 4 9.3 7.5l-8.7 8.7c-1.3-1.9-3-3.4-4.9-4.5-2-1.1-4.1-1.7-6.6-1.7-2 0-3.9.3-5.5 1s-3 1.7-4 2.9c-1.2 1.2-2 2.7-2.6 4.3-.6 1.7-.9 3.4-.9 5.4 0 2 .3 3.7 1 5.4.5 1.7 1.4 3.1 2.5 4.4 1.2 1.2 2.5 2.1 4.1 2.8 1.6.7 3.4 1 5.4 1 2.8 0 5.1-.4 7-1.4 1.7-1 3.5-2.6 5.2-4.8l8.8 8.3Zm27-2c2 0 3.7-.3 5.2-1s2.8-1.7 3.8-3c1-1.2 1.8-2.6 2.4-4.3a17.1 17.1 0 0 0 0-10.6c-.6-1.7-1.4-3.1-2.4-4.3a11.1 11.1 0 0 0-9-4c-1.8 0-3.5.3-5 1-1.5.8-2.8 1.7-3.8 3-1 1.2-1.8 2.6-2.4 4.3a17.1 17.1 0 0 0 0 10.6c.6 1.7 1.3 3.1 2.4 4.4a11.1 11.1 0 0 0 8.9 4Zm0 12.3a26.3 26.3 0 0 1-18.2-7.4c-2.3-2.2-4-5-5.4-8.1-1.2-3.2-1.9-6.7-1.9-10.4s.7-7.2 2-10.3a24.2 24.2 0 0 1 13.4-13.6c3.1-1.3 6.5-1.9 10.2-1.9 3.7 0 7 .7 10.2 2a24 24 0 0 1 13.4 13.4c1.3 3.2 2 6.7 2 10.4s-.7 7.2-2 10.4a24.6 24.6 0 0 1-23.6 15.5Zm32.6-50.4h12.5l12 21.5 11.6-21.5h12.6l2.2 49.2H419l-1.2-28.8-8.6 16.8h-7.2l-9.6-16.8-1 28.8h-12.5l2.3-49.2Zm58.6 0h12.5l12 21.5 11.6-21.5h12.6l2.2 49.2h-13.1l-1.2-28.8-8.6 16.8h-7.2l-9.6-16.8-1 28.8h-12.5l2.3-49.2Zm56.8 0h13v28.9c0 2.7.6 4.9 1.9 6.6 1.2 1.7 3.3 2.6 6.2 2.6 3 0 5-1 6.2-2.7 1.2-1.7 1.8-3.9 1.8-6.5v-28.9h13.2v30c0 3.2-.5 6-1.5 8.5a18 18 0 0 1-11.1 10.5c-2.6 1-5.4 1.4-8.5 1.4-3.1 0-6-.4-8.6-1.4-2.6-.9-4.8-2.2-6.7-4a17.6 17.6 0 0 1-4.4-6.4c-1-2.5-1.5-5.4-1.5-8.6v-30Zm49.7 0H558l18.9 27.5v-27.5h12.9v49.2h-11.1L559 204.2v28.2h-13v-49.2Zm51.3 0h13v49.2h-13v-49.2Zm34 11.5h-15v-11.5h43.2v11.5h-15v37.7h-13.1v-37.7Zm47.8 18-17.5-29.5h15l9.5 17.6 9-17.6h14.5l-17.5 29.5v19.7h-13v-19.6ZM276.2 244h29.5v6.1h-22.8v14.4h17.4v6h-17.4v20.5h-6.7v-47Zm34.6 0h6.7v27.5c0 2.1.2 4 .6 5.8.4 1.8 1 3.3 2 4.6.8 1.2 2 2.2 3.6 2.9 1.5.7 3.4 1 5.8 1 2.3 0 4.2-.3 5.7-1a8.9 8.9 0 0 0 3.7-3 12 12 0 0 0 2-4.5c.3-1.7.5-3.7.5-5.8V244h6.8V273c0 2.7-.4 5.2-1.2 7.5a15.9 15.9 0 0 1-9.2 10.1c-2.3 1-5.1 1.5-8.3 1.5-3.2 0-6-.5-8.3-1.4a16.2 16.2 0 0 1-9.3-10.2c-.8-2.3-1.1-4.8-1.1-7.5v-29Zm44.5 0h6.8l25.7 36.7V244h6.6v47h-6.8L362 254.2v36.7h-6.6v-47Zm61.5 41a20 20 0 0 0 13.7-4.4c3.2-2.8 4.9-7.1 4.9-12.8 0-5.7-1.6-10.1-4.7-13.2-3.2-3-7.9-4.5-14.1-4.5H408v34.9h8.8Zm-15.5-41H417c3.7 0 7.1.5 10.2 1.4a20 20 0 0 1 13.4 11.7c1.3 3 1.9 6.5 1.9 10.5s-.6 7.4-2 10.4a20 20 0 0 1-13.3 11.6c-3.1 1-6.6 1.4-10.3 1.4h-15.6v-47ZM166.6 121.4c0-5.5 2.3-12 7.6-12 3.7 0 8.1 5.7 13.4 17.2a140 140 0 0 0-14 22.9 86 86 0 0 1-7-28.1Zm1 129 6.7-3.2c6.7 19.7 26 25.1 43.7 15.9l2.8 6.7c-23.4 13.3-45 4.8-53.3-19.4Zm79.8-17.2c-3.6 7-8.3 11.2-15.5 11.2-8.1 0-12.3-5.5-13.4-11.8-4.4 5.3-10.2 7-16.3 5.2-6.5-2-11-8.3-11-18.3 0-13.6 7.6-31 16.3-38.3l-4-9c-.6 1.2-4.3 8.4-6 11.4l-5.5-2.4 4.7-10c8.3-17.6 17.7-33.7 17.7-44.5 0-4.4-3-7.5-5.7-7.6-8-.2-20.4 17.5-32.4 43.5-9.6 20.5-15 35.2-16 46l-5.5 2c-7.4-10.6-18.2-18.6-31.2-18.6-11 0-17.1 5.2-17.1 8.9 0 3.4 3.4 4.7 5.3 5.2 16 4.2 22.2 17.4 27.2 37 7.4 28.6 26.3 47.8 53.8 47.8a55.6 55.6 0 0 0 54.6-57.7Zm-39-7.8a6 6 0 1 1 0-12.2 6 6 0 0 1 0 12.2Zm14.8-42.4c-11.4-5.2-25.1 19.7-25.1 36.5 0 9 3.9 12.3 8.6 12.3 6 0 12.4-8 16.9-21.2 5.5-13.6 5-25-.4-27.6Zm11.4 49.1a5.5 5.5 0 1 1 0-11 5.5 5.5 0 0 1 0 11Zm8-34c-5.7 0-13.4 11.7-16.3 23-1.8 6.3-2.3 16.7 5.6 16.7 8.2 0 15-12.2 16.8-23.3 1.6-9.4-.8-16.5-6-16.5ZM230 120.7c.3 0 .6 0 .7-.2.2-.2.2-.4.2-.7 0-.3 0-.5-.2-.6l-.8-.2h-1v1.7h1Zm-2.1-2.6h2.1l1 .1.6.4.3.6.1.6c0 .3 0 .6-.2 1l-.9.6 1.4 2.3h-1.2l-1.3-2.2h-.9v2.2h-1v-5.6Zm1.9 7.3a4.4 4.4 0 0 0 3.1-1.2l1-1.5c.2-.5.3-1.1.3-1.8a4.7 4.7 0 0 0-1.3-3.1 4.4 4.4 0 0 0-7.5 3.1 4.7 4.7 0 0 0 1.3 3.3 4.2 4.2 0 0 0 3.1 1.2Zm0 1.1a5.5 5.5 0 0 1-5.1-7.7 5.6 5.6 0 0 1 3-3 5.5 5.5 0 0 1 4.3 0 5.6 5.6 0 0 1 3 7.3c-.4.7-.8 1.3-1.3 1.8a5.4 5.4 0 0 1-3.9 1.6Z" fill-rule="evenodd" fill="#292929"/></svg>